%TF.GenerationSoftware,KiCad,Pcbnew,9.0.4*%
%TF.CreationDate,2025-09-18T17:41:51-06:00*%
%TF.ProjectId,sumo_bueno,73756d6f-5f62-4756-956e-6f2e6b696361,rev?*%
%TF.SameCoordinates,Original*%
%TF.FileFunction,Legend,Top*%
%TF.FilePolarity,Positive*%
%FSLAX46Y46*%
G04 Gerber Fmt 4.6, Leading zero omitted, Abs format (unit mm)*
G04 Created by KiCad (PCBNEW 9.0.4) date 2025-09-18 17:41:51*
%MOMM*%
%LPD*%
G01*
G04 APERTURE LIST*
%ADD10C,0.100000*%
%ADD11C,0.150000*%
%ADD12C,0.120000*%
G04 APERTURE END LIST*
D10*
X238833884Y-86351466D02*
X239595789Y-86351466D01*
X239214836Y-86732419D02*
X239214836Y-85970514D01*
X191033884Y-99531466D02*
X191795789Y-99531466D01*
X191414836Y-99912419D02*
X191414836Y-99150514D01*
X227793884Y-59081466D02*
X228555789Y-59081466D01*
X228174836Y-59462419D02*
X228174836Y-58700514D01*
X191103884Y-59271466D02*
X191865789Y-59271466D01*
X191484836Y-59652419D02*
X191484836Y-58890514D01*
D11*
X240247200Y-85561904D02*
X240294819Y-85419047D01*
X240294819Y-85419047D02*
X240294819Y-85180952D01*
X240294819Y-85180952D02*
X240247200Y-85085714D01*
X240247200Y-85085714D02*
X240199580Y-85038095D01*
X240199580Y-85038095D02*
X240104342Y-84990476D01*
X240104342Y-84990476D02*
X240009104Y-84990476D01*
X240009104Y-84990476D02*
X239913866Y-85038095D01*
X239913866Y-85038095D02*
X239866247Y-85085714D01*
X239866247Y-85085714D02*
X239818628Y-85180952D01*
X239818628Y-85180952D02*
X239771009Y-85371428D01*
X239771009Y-85371428D02*
X239723390Y-85466666D01*
X239723390Y-85466666D02*
X239675771Y-85514285D01*
X239675771Y-85514285D02*
X239580533Y-85561904D01*
X239580533Y-85561904D02*
X239485295Y-85561904D01*
X239485295Y-85561904D02*
X239390057Y-85514285D01*
X239390057Y-85514285D02*
X239342438Y-85466666D01*
X239342438Y-85466666D02*
X239294819Y-85371428D01*
X239294819Y-85371428D02*
X239294819Y-85133333D01*
X239294819Y-85133333D02*
X239342438Y-84990476D01*
X239294819Y-84657142D02*
X239294819Y-83990476D01*
X239294819Y-83990476D02*
X240294819Y-84419047D01*
X239634819Y-94823094D02*
X238634819Y-94823094D01*
X238634819Y-94823094D02*
X238634819Y-94584999D01*
X238634819Y-94584999D02*
X238682438Y-94442142D01*
X238682438Y-94442142D02*
X238777676Y-94346904D01*
X238777676Y-94346904D02*
X238872914Y-94299285D01*
X238872914Y-94299285D02*
X239063390Y-94251666D01*
X239063390Y-94251666D02*
X239206247Y-94251666D01*
X239206247Y-94251666D02*
X239396723Y-94299285D01*
X239396723Y-94299285D02*
X239491961Y-94346904D01*
X239491961Y-94346904D02*
X239587200Y-94442142D01*
X239587200Y-94442142D02*
X239634819Y-94584999D01*
X239634819Y-94584999D02*
X239634819Y-94823094D01*
X238634819Y-93918332D02*
X238634819Y-93299285D01*
X238634819Y-93299285D02*
X239015771Y-93632618D01*
X239015771Y-93632618D02*
X239015771Y-93489761D01*
X239015771Y-93489761D02*
X239063390Y-93394523D01*
X239063390Y-93394523D02*
X239111009Y-93346904D01*
X239111009Y-93346904D02*
X239206247Y-93299285D01*
X239206247Y-93299285D02*
X239444342Y-93299285D01*
X239444342Y-93299285D02*
X239539580Y-93346904D01*
X239539580Y-93346904D02*
X239587200Y-93394523D01*
X239587200Y-93394523D02*
X239634819Y-93489761D01*
X239634819Y-93489761D02*
X239634819Y-93775475D01*
X239634819Y-93775475D02*
X239587200Y-93870713D01*
X239587200Y-93870713D02*
X239539580Y-93918332D01*
X237234819Y-93271904D02*
X236234819Y-93271904D01*
X237234819Y-92700476D02*
X236663390Y-93129047D01*
X236234819Y-92700476D02*
X236806247Y-93271904D01*
X196708095Y-73867200D02*
X196850952Y-73914819D01*
X196850952Y-73914819D02*
X197089047Y-73914819D01*
X197089047Y-73914819D02*
X197184285Y-73867200D01*
X197184285Y-73867200D02*
X197231904Y-73819580D01*
X197231904Y-73819580D02*
X197279523Y-73724342D01*
X197279523Y-73724342D02*
X197279523Y-73629104D01*
X197279523Y-73629104D02*
X197231904Y-73533866D01*
X197231904Y-73533866D02*
X197184285Y-73486247D01*
X197184285Y-73486247D02*
X197089047Y-73438628D01*
X197089047Y-73438628D02*
X196898571Y-73391009D01*
X196898571Y-73391009D02*
X196803333Y-73343390D01*
X196803333Y-73343390D02*
X196755714Y-73295771D01*
X196755714Y-73295771D02*
X196708095Y-73200533D01*
X196708095Y-73200533D02*
X196708095Y-73105295D01*
X196708095Y-73105295D02*
X196755714Y-73010057D01*
X196755714Y-73010057D02*
X196803333Y-72962438D01*
X196803333Y-72962438D02*
X196898571Y-72914819D01*
X196898571Y-72914819D02*
X197136666Y-72914819D01*
X197136666Y-72914819D02*
X197279523Y-72962438D01*
X198136666Y-73248152D02*
X198136666Y-73914819D01*
X197898571Y-72867200D02*
X197660476Y-73581485D01*
X197660476Y-73581485D02*
X198279523Y-73581485D01*
X228716666Y-65197200D02*
X228859523Y-65244819D01*
X228859523Y-65244819D02*
X229097618Y-65244819D01*
X229097618Y-65244819D02*
X229192856Y-65197200D01*
X229192856Y-65197200D02*
X229240475Y-65149580D01*
X229240475Y-65149580D02*
X229288094Y-65054342D01*
X229288094Y-65054342D02*
X229288094Y-64959104D01*
X229288094Y-64959104D02*
X229240475Y-64863866D01*
X229240475Y-64863866D02*
X229192856Y-64816247D01*
X229192856Y-64816247D02*
X229097618Y-64768628D01*
X229097618Y-64768628D02*
X228907142Y-64721009D01*
X228907142Y-64721009D02*
X228811904Y-64673390D01*
X228811904Y-64673390D02*
X228764285Y-64625771D01*
X228764285Y-64625771D02*
X228716666Y-64530533D01*
X228716666Y-64530533D02*
X228716666Y-64435295D01*
X228716666Y-64435295D02*
X228764285Y-64340057D01*
X228764285Y-64340057D02*
X228811904Y-64292438D01*
X228811904Y-64292438D02*
X228907142Y-64244819D01*
X228907142Y-64244819D02*
X229145237Y-64244819D01*
X229145237Y-64244819D02*
X229288094Y-64292438D01*
X229859523Y-65244819D02*
X229764285Y-65197200D01*
X229764285Y-65197200D02*
X229716666Y-65149580D01*
X229716666Y-65149580D02*
X229669047Y-65054342D01*
X229669047Y-65054342D02*
X229669047Y-64768628D01*
X229669047Y-64768628D02*
X229716666Y-64673390D01*
X229716666Y-64673390D02*
X229764285Y-64625771D01*
X229764285Y-64625771D02*
X229859523Y-64578152D01*
X229859523Y-64578152D02*
X230002380Y-64578152D01*
X230002380Y-64578152D02*
X230097618Y-64625771D01*
X230097618Y-64625771D02*
X230145237Y-64673390D01*
X230145237Y-64673390D02*
X230192856Y-64768628D01*
X230192856Y-64768628D02*
X230192856Y-65054342D01*
X230192856Y-65054342D02*
X230145237Y-65149580D01*
X230145237Y-65149580D02*
X230097618Y-65197200D01*
X230097618Y-65197200D02*
X230002380Y-65244819D01*
X230002380Y-65244819D02*
X229859523Y-65244819D01*
X231049999Y-64578152D02*
X231049999Y-65244819D01*
X230621428Y-64578152D02*
X230621428Y-65101961D01*
X230621428Y-65101961D02*
X230669047Y-65197200D01*
X230669047Y-65197200D02*
X230764285Y-65244819D01*
X230764285Y-65244819D02*
X230907142Y-65244819D01*
X230907142Y-65244819D02*
X231002380Y-65197200D01*
X231002380Y-65197200D02*
X231049999Y-65149580D01*
X231526190Y-65244819D02*
X231526190Y-64578152D01*
X231526190Y-64768628D02*
X231573809Y-64673390D01*
X231573809Y-64673390D02*
X231621428Y-64625771D01*
X231621428Y-64625771D02*
X231716666Y-64578152D01*
X231716666Y-64578152D02*
X231811904Y-64578152D01*
X232573809Y-65197200D02*
X232478571Y-65244819D01*
X232478571Y-65244819D02*
X232288095Y-65244819D01*
X232288095Y-65244819D02*
X232192857Y-65197200D01*
X232192857Y-65197200D02*
X232145238Y-65149580D01*
X232145238Y-65149580D02*
X232097619Y-65054342D01*
X232097619Y-65054342D02*
X232097619Y-64768628D01*
X232097619Y-64768628D02*
X232145238Y-64673390D01*
X232145238Y-64673390D02*
X232192857Y-64625771D01*
X232192857Y-64625771D02*
X232288095Y-64578152D01*
X232288095Y-64578152D02*
X232478571Y-64578152D01*
X232478571Y-64578152D02*
X232573809Y-64625771D01*
X233383333Y-65197200D02*
X233288095Y-65244819D01*
X233288095Y-65244819D02*
X233097619Y-65244819D01*
X233097619Y-65244819D02*
X233002381Y-65197200D01*
X233002381Y-65197200D02*
X232954762Y-65101961D01*
X232954762Y-65101961D02*
X232954762Y-64721009D01*
X232954762Y-64721009D02*
X233002381Y-64625771D01*
X233002381Y-64625771D02*
X233097619Y-64578152D01*
X233097619Y-64578152D02*
X233288095Y-64578152D01*
X233288095Y-64578152D02*
X233383333Y-64625771D01*
X233383333Y-64625771D02*
X233430952Y-64721009D01*
X233430952Y-64721009D02*
X233430952Y-64816247D01*
X233430952Y-64816247D02*
X232954762Y-64911485D01*
X234383333Y-65244819D02*
X233811905Y-65244819D01*
X234097619Y-65244819D02*
X234097619Y-64244819D01*
X234097619Y-64244819D02*
X234002381Y-64387676D01*
X234002381Y-64387676D02*
X233907143Y-64482914D01*
X233907143Y-64482914D02*
X233811905Y-64530533D01*
X196638095Y-82417200D02*
X196780952Y-82464819D01*
X196780952Y-82464819D02*
X197019047Y-82464819D01*
X197019047Y-82464819D02*
X197114285Y-82417200D01*
X197114285Y-82417200D02*
X197161904Y-82369580D01*
X197161904Y-82369580D02*
X197209523Y-82274342D01*
X197209523Y-82274342D02*
X197209523Y-82179104D01*
X197209523Y-82179104D02*
X197161904Y-82083866D01*
X197161904Y-82083866D02*
X197114285Y-82036247D01*
X197114285Y-82036247D02*
X197019047Y-81988628D01*
X197019047Y-81988628D02*
X196828571Y-81941009D01*
X196828571Y-81941009D02*
X196733333Y-81893390D01*
X196733333Y-81893390D02*
X196685714Y-81845771D01*
X196685714Y-81845771D02*
X196638095Y-81750533D01*
X196638095Y-81750533D02*
X196638095Y-81655295D01*
X196638095Y-81655295D02*
X196685714Y-81560057D01*
X196685714Y-81560057D02*
X196733333Y-81512438D01*
X196733333Y-81512438D02*
X196828571Y-81464819D01*
X196828571Y-81464819D02*
X197066666Y-81464819D01*
X197066666Y-81464819D02*
X197209523Y-81512438D01*
X198161904Y-82464819D02*
X197590476Y-82464819D01*
X197876190Y-82464819D02*
X197876190Y-81464819D01*
X197876190Y-81464819D02*
X197780952Y-81607676D01*
X197780952Y-81607676D02*
X197685714Y-81702914D01*
X197685714Y-81702914D02*
X197590476Y-81750533D01*
X206946666Y-59424819D02*
X206946666Y-60139104D01*
X206946666Y-60139104D02*
X206899047Y-60281961D01*
X206899047Y-60281961D02*
X206803809Y-60377200D01*
X206803809Y-60377200D02*
X206660952Y-60424819D01*
X206660952Y-60424819D02*
X206565714Y-60424819D01*
X207327619Y-59424819D02*
X207946666Y-59424819D01*
X207946666Y-59424819D02*
X207613333Y-59805771D01*
X207613333Y-59805771D02*
X207756190Y-59805771D01*
X207756190Y-59805771D02*
X207851428Y-59853390D01*
X207851428Y-59853390D02*
X207899047Y-59901009D01*
X207899047Y-59901009D02*
X207946666Y-59996247D01*
X207946666Y-59996247D02*
X207946666Y-60234342D01*
X207946666Y-60234342D02*
X207899047Y-60329580D01*
X207899047Y-60329580D02*
X207851428Y-60377200D01*
X207851428Y-60377200D02*
X207756190Y-60424819D01*
X207756190Y-60424819D02*
X207470476Y-60424819D01*
X207470476Y-60424819D02*
X207375238Y-60377200D01*
X207375238Y-60377200D02*
X207327619Y-60329580D01*
X196638095Y-98017200D02*
X196780952Y-98064819D01*
X196780952Y-98064819D02*
X197019047Y-98064819D01*
X197019047Y-98064819D02*
X197114285Y-98017200D01*
X197114285Y-98017200D02*
X197161904Y-97969580D01*
X197161904Y-97969580D02*
X197209523Y-97874342D01*
X197209523Y-97874342D02*
X197209523Y-97779104D01*
X197209523Y-97779104D02*
X197161904Y-97683866D01*
X197161904Y-97683866D02*
X197114285Y-97636247D01*
X197114285Y-97636247D02*
X197019047Y-97588628D01*
X197019047Y-97588628D02*
X196828571Y-97541009D01*
X196828571Y-97541009D02*
X196733333Y-97493390D01*
X196733333Y-97493390D02*
X196685714Y-97445771D01*
X196685714Y-97445771D02*
X196638095Y-97350533D01*
X196638095Y-97350533D02*
X196638095Y-97255295D01*
X196638095Y-97255295D02*
X196685714Y-97160057D01*
X196685714Y-97160057D02*
X196733333Y-97112438D01*
X196733333Y-97112438D02*
X196828571Y-97064819D01*
X196828571Y-97064819D02*
X197066666Y-97064819D01*
X197066666Y-97064819D02*
X197209523Y-97112438D01*
X197542857Y-97064819D02*
X198161904Y-97064819D01*
X198161904Y-97064819D02*
X197828571Y-97445771D01*
X197828571Y-97445771D02*
X197971428Y-97445771D01*
X197971428Y-97445771D02*
X198066666Y-97493390D01*
X198066666Y-97493390D02*
X198114285Y-97541009D01*
X198114285Y-97541009D02*
X198161904Y-97636247D01*
X198161904Y-97636247D02*
X198161904Y-97874342D01*
X198161904Y-97874342D02*
X198114285Y-97969580D01*
X198114285Y-97969580D02*
X198066666Y-98017200D01*
X198066666Y-98017200D02*
X197971428Y-98064819D01*
X197971428Y-98064819D02*
X197685714Y-98064819D01*
X197685714Y-98064819D02*
X197590476Y-98017200D01*
X197590476Y-98017200D02*
X197542857Y-97969580D01*
X231577200Y-79013332D02*
X231624819Y-78870475D01*
X231624819Y-78870475D02*
X231624819Y-78632380D01*
X231624819Y-78632380D02*
X231577200Y-78537142D01*
X231577200Y-78537142D02*
X231529580Y-78489523D01*
X231529580Y-78489523D02*
X231434342Y-78441904D01*
X231434342Y-78441904D02*
X231339104Y-78441904D01*
X231339104Y-78441904D02*
X231243866Y-78489523D01*
X231243866Y-78489523D02*
X231196247Y-78537142D01*
X231196247Y-78537142D02*
X231148628Y-78632380D01*
X231148628Y-78632380D02*
X231101009Y-78822856D01*
X231101009Y-78822856D02*
X231053390Y-78918094D01*
X231053390Y-78918094D02*
X231005771Y-78965713D01*
X231005771Y-78965713D02*
X230910533Y-79013332D01*
X230910533Y-79013332D02*
X230815295Y-79013332D01*
X230815295Y-79013332D02*
X230720057Y-78965713D01*
X230720057Y-78965713D02*
X230672438Y-78918094D01*
X230672438Y-78918094D02*
X230624819Y-78822856D01*
X230624819Y-78822856D02*
X230624819Y-78584761D01*
X230624819Y-78584761D02*
X230672438Y-78441904D01*
X230624819Y-78108570D02*
X231624819Y-77870475D01*
X231624819Y-77870475D02*
X230910533Y-77679999D01*
X230910533Y-77679999D02*
X231624819Y-77489523D01*
X231624819Y-77489523D02*
X230624819Y-77251428D01*
X231624819Y-76346666D02*
X231624819Y-76918094D01*
X231624819Y-76632380D02*
X230624819Y-76632380D01*
X230624819Y-76632380D02*
X230767676Y-76727618D01*
X230767676Y-76727618D02*
X230862914Y-76822856D01*
X230862914Y-76822856D02*
X230910533Y-76918094D01*
X233464819Y-72001904D02*
X234274342Y-72001904D01*
X234274342Y-72001904D02*
X234369580Y-71954285D01*
X234369580Y-71954285D02*
X234417200Y-71906666D01*
X234417200Y-71906666D02*
X234464819Y-71811428D01*
X234464819Y-71811428D02*
X234464819Y-71620952D01*
X234464819Y-71620952D02*
X234417200Y-71525714D01*
X234417200Y-71525714D02*
X234369580Y-71478095D01*
X234369580Y-71478095D02*
X234274342Y-71430476D01*
X234274342Y-71430476D02*
X233464819Y-71430476D01*
X233560057Y-71001904D02*
X233512438Y-70954285D01*
X233512438Y-70954285D02*
X233464819Y-70859047D01*
X233464819Y-70859047D02*
X233464819Y-70620952D01*
X233464819Y-70620952D02*
X233512438Y-70525714D01*
X233512438Y-70525714D02*
X233560057Y-70478095D01*
X233560057Y-70478095D02*
X233655295Y-70430476D01*
X233655295Y-70430476D02*
X233750533Y-70430476D01*
X233750533Y-70430476D02*
X233893390Y-70478095D01*
X233893390Y-70478095D02*
X234464819Y-71049523D01*
X234464819Y-71049523D02*
X234464819Y-70430476D01*
X230624819Y-94763094D02*
X229624819Y-94763094D01*
X229624819Y-94763094D02*
X229624819Y-94524999D01*
X229624819Y-94524999D02*
X229672438Y-94382142D01*
X229672438Y-94382142D02*
X229767676Y-94286904D01*
X229767676Y-94286904D02*
X229862914Y-94239285D01*
X229862914Y-94239285D02*
X230053390Y-94191666D01*
X230053390Y-94191666D02*
X230196247Y-94191666D01*
X230196247Y-94191666D02*
X230386723Y-94239285D01*
X230386723Y-94239285D02*
X230481961Y-94286904D01*
X230481961Y-94286904D02*
X230577200Y-94382142D01*
X230577200Y-94382142D02*
X230624819Y-94524999D01*
X230624819Y-94524999D02*
X230624819Y-94763094D01*
X230624819Y-93239285D02*
X230624819Y-93810713D01*
X230624819Y-93524999D02*
X229624819Y-93524999D01*
X229624819Y-93524999D02*
X229767676Y-93620237D01*
X229767676Y-93620237D02*
X229862914Y-93715475D01*
X229862914Y-93715475D02*
X229910533Y-93810713D01*
X227924819Y-93421904D02*
X226924819Y-93421904D01*
X227924819Y-92850476D02*
X227353390Y-93279047D01*
X226924819Y-92850476D02*
X227496247Y-93421904D01*
X223186666Y-83414819D02*
X223186666Y-84129104D01*
X223186666Y-84129104D02*
X223139047Y-84271961D01*
X223139047Y-84271961D02*
X223043809Y-84367200D01*
X223043809Y-84367200D02*
X222900952Y-84414819D01*
X222900952Y-84414819D02*
X222805714Y-84414819D01*
X223615238Y-83510057D02*
X223662857Y-83462438D01*
X223662857Y-83462438D02*
X223758095Y-83414819D01*
X223758095Y-83414819D02*
X223996190Y-83414819D01*
X223996190Y-83414819D02*
X224091428Y-83462438D01*
X224091428Y-83462438D02*
X224139047Y-83510057D01*
X224139047Y-83510057D02*
X224186666Y-83605295D01*
X224186666Y-83605295D02*
X224186666Y-83700533D01*
X224186666Y-83700533D02*
X224139047Y-83843390D01*
X224139047Y-83843390D02*
X223567619Y-84414819D01*
X223567619Y-84414819D02*
X224186666Y-84414819D01*
X203238095Y-60627200D02*
X203380952Y-60674819D01*
X203380952Y-60674819D02*
X203619047Y-60674819D01*
X203619047Y-60674819D02*
X203714285Y-60627200D01*
X203714285Y-60627200D02*
X203761904Y-60579580D01*
X203761904Y-60579580D02*
X203809523Y-60484342D01*
X203809523Y-60484342D02*
X203809523Y-60389104D01*
X203809523Y-60389104D02*
X203761904Y-60293866D01*
X203761904Y-60293866D02*
X203714285Y-60246247D01*
X203714285Y-60246247D02*
X203619047Y-60198628D01*
X203619047Y-60198628D02*
X203428571Y-60151009D01*
X203428571Y-60151009D02*
X203333333Y-60103390D01*
X203333333Y-60103390D02*
X203285714Y-60055771D01*
X203285714Y-60055771D02*
X203238095Y-59960533D01*
X203238095Y-59960533D02*
X203238095Y-59865295D01*
X203238095Y-59865295D02*
X203285714Y-59770057D01*
X203285714Y-59770057D02*
X203333333Y-59722438D01*
X203333333Y-59722438D02*
X203428571Y-59674819D01*
X203428571Y-59674819D02*
X203666666Y-59674819D01*
X203666666Y-59674819D02*
X203809523Y-59722438D01*
X204666666Y-59674819D02*
X204476190Y-59674819D01*
X204476190Y-59674819D02*
X204380952Y-59722438D01*
X204380952Y-59722438D02*
X204333333Y-59770057D01*
X204333333Y-59770057D02*
X204238095Y-59912914D01*
X204238095Y-59912914D02*
X204190476Y-60103390D01*
X204190476Y-60103390D02*
X204190476Y-60484342D01*
X204190476Y-60484342D02*
X204238095Y-60579580D01*
X204238095Y-60579580D02*
X204285714Y-60627200D01*
X204285714Y-60627200D02*
X204380952Y-60674819D01*
X204380952Y-60674819D02*
X204571428Y-60674819D01*
X204571428Y-60674819D02*
X204666666Y-60627200D01*
X204666666Y-60627200D02*
X204714285Y-60579580D01*
X204714285Y-60579580D02*
X204761904Y-60484342D01*
X204761904Y-60484342D02*
X204761904Y-60246247D01*
X204761904Y-60246247D02*
X204714285Y-60151009D01*
X204714285Y-60151009D02*
X204666666Y-60103390D01*
X204666666Y-60103390D02*
X204571428Y-60055771D01*
X204571428Y-60055771D02*
X204380952Y-60055771D01*
X204380952Y-60055771D02*
X204285714Y-60103390D01*
X204285714Y-60103390D02*
X204238095Y-60151009D01*
X204238095Y-60151009D02*
X204190476Y-60246247D01*
X196638095Y-90217200D02*
X196780952Y-90264819D01*
X196780952Y-90264819D02*
X197019047Y-90264819D01*
X197019047Y-90264819D02*
X197114285Y-90217200D01*
X197114285Y-90217200D02*
X197161904Y-90169580D01*
X197161904Y-90169580D02*
X197209523Y-90074342D01*
X197209523Y-90074342D02*
X197209523Y-89979104D01*
X197209523Y-89979104D02*
X197161904Y-89883866D01*
X197161904Y-89883866D02*
X197114285Y-89836247D01*
X197114285Y-89836247D02*
X197019047Y-89788628D01*
X197019047Y-89788628D02*
X196828571Y-89741009D01*
X196828571Y-89741009D02*
X196733333Y-89693390D01*
X196733333Y-89693390D02*
X196685714Y-89645771D01*
X196685714Y-89645771D02*
X196638095Y-89550533D01*
X196638095Y-89550533D02*
X196638095Y-89455295D01*
X196638095Y-89455295D02*
X196685714Y-89360057D01*
X196685714Y-89360057D02*
X196733333Y-89312438D01*
X196733333Y-89312438D02*
X196828571Y-89264819D01*
X196828571Y-89264819D02*
X197066666Y-89264819D01*
X197066666Y-89264819D02*
X197209523Y-89312438D01*
X197590476Y-89360057D02*
X197638095Y-89312438D01*
X197638095Y-89312438D02*
X197733333Y-89264819D01*
X197733333Y-89264819D02*
X197971428Y-89264819D01*
X197971428Y-89264819D02*
X198066666Y-89312438D01*
X198066666Y-89312438D02*
X198114285Y-89360057D01*
X198114285Y-89360057D02*
X198161904Y-89455295D01*
X198161904Y-89455295D02*
X198161904Y-89550533D01*
X198161904Y-89550533D02*
X198114285Y-89693390D01*
X198114285Y-89693390D02*
X197542857Y-90264819D01*
X197542857Y-90264819D02*
X198161904Y-90264819D01*
X235104819Y-94823094D02*
X234104819Y-94823094D01*
X234104819Y-94823094D02*
X234104819Y-94584999D01*
X234104819Y-94584999D02*
X234152438Y-94442142D01*
X234152438Y-94442142D02*
X234247676Y-94346904D01*
X234247676Y-94346904D02*
X234342914Y-94299285D01*
X234342914Y-94299285D02*
X234533390Y-94251666D01*
X234533390Y-94251666D02*
X234676247Y-94251666D01*
X234676247Y-94251666D02*
X234866723Y-94299285D01*
X234866723Y-94299285D02*
X234961961Y-94346904D01*
X234961961Y-94346904D02*
X235057200Y-94442142D01*
X235057200Y-94442142D02*
X235104819Y-94584999D01*
X235104819Y-94584999D02*
X235104819Y-94823094D01*
X234200057Y-93870713D02*
X234152438Y-93823094D01*
X234152438Y-93823094D02*
X234104819Y-93727856D01*
X234104819Y-93727856D02*
X234104819Y-93489761D01*
X234104819Y-93489761D02*
X234152438Y-93394523D01*
X234152438Y-93394523D02*
X234200057Y-93346904D01*
X234200057Y-93346904D02*
X234295295Y-93299285D01*
X234295295Y-93299285D02*
X234390533Y-93299285D01*
X234390533Y-93299285D02*
X234533390Y-93346904D01*
X234533390Y-93346904D02*
X235104819Y-93918332D01*
X235104819Y-93918332D02*
X235104819Y-93299285D01*
X232404819Y-93481904D02*
X231404819Y-93481904D01*
X232404819Y-92910476D02*
X231833390Y-93339047D01*
X231404819Y-92910476D02*
X231976247Y-93481904D01*
X207946666Y-83414819D02*
X207946666Y-84129104D01*
X207946666Y-84129104D02*
X207899047Y-84271961D01*
X207899047Y-84271961D02*
X207803809Y-84367200D01*
X207803809Y-84367200D02*
X207660952Y-84414819D01*
X207660952Y-84414819D02*
X207565714Y-84414819D01*
X208946666Y-84414819D02*
X208375238Y-84414819D01*
X208660952Y-84414819D02*
X208660952Y-83414819D01*
X208660952Y-83414819D02*
X208565714Y-83557676D01*
X208565714Y-83557676D02*
X208470476Y-83652914D01*
X208470476Y-83652914D02*
X208375238Y-83700533D01*
X196708095Y-65517200D02*
X196850952Y-65564819D01*
X196850952Y-65564819D02*
X197089047Y-65564819D01*
X197089047Y-65564819D02*
X197184285Y-65517200D01*
X197184285Y-65517200D02*
X197231904Y-65469580D01*
X197231904Y-65469580D02*
X197279523Y-65374342D01*
X197279523Y-65374342D02*
X197279523Y-65279104D01*
X197279523Y-65279104D02*
X197231904Y-65183866D01*
X197231904Y-65183866D02*
X197184285Y-65136247D01*
X197184285Y-65136247D02*
X197089047Y-65088628D01*
X197089047Y-65088628D02*
X196898571Y-65041009D01*
X196898571Y-65041009D02*
X196803333Y-64993390D01*
X196803333Y-64993390D02*
X196755714Y-64945771D01*
X196755714Y-64945771D02*
X196708095Y-64850533D01*
X196708095Y-64850533D02*
X196708095Y-64755295D01*
X196708095Y-64755295D02*
X196755714Y-64660057D01*
X196755714Y-64660057D02*
X196803333Y-64612438D01*
X196803333Y-64612438D02*
X196898571Y-64564819D01*
X196898571Y-64564819D02*
X197136666Y-64564819D01*
X197136666Y-64564819D02*
X197279523Y-64612438D01*
X198184285Y-64564819D02*
X197708095Y-64564819D01*
X197708095Y-64564819D02*
X197660476Y-65041009D01*
X197660476Y-65041009D02*
X197708095Y-64993390D01*
X197708095Y-64993390D02*
X197803333Y-64945771D01*
X197803333Y-64945771D02*
X198041428Y-64945771D01*
X198041428Y-64945771D02*
X198136666Y-64993390D01*
X198136666Y-64993390D02*
X198184285Y-65041009D01*
X198184285Y-65041009D02*
X198231904Y-65136247D01*
X198231904Y-65136247D02*
X198231904Y-65374342D01*
X198231904Y-65374342D02*
X198184285Y-65469580D01*
X198184285Y-65469580D02*
X198136666Y-65517200D01*
X198136666Y-65517200D02*
X198041428Y-65564819D01*
X198041428Y-65564819D02*
X197803333Y-65564819D01*
X197803333Y-65564819D02*
X197708095Y-65517200D01*
X197708095Y-65517200D02*
X197660476Y-65469580D01*
D12*
%TO.C,S7*%
X231000000Y-83420000D02*
X231000000Y-86180000D01*
X236190000Y-83420000D02*
X231000000Y-83420000D01*
X236190000Y-83420000D02*
X236190000Y-86180000D01*
X236190000Y-86180000D02*
X231000000Y-86180000D01*
X237460000Y-83420000D02*
X238840000Y-83420000D01*
X238840000Y-83420000D02*
X238840000Y-84800000D01*
%TO.C,D3*%
X237580000Y-94749365D02*
X237580000Y-92820000D01*
X239330635Y-96500000D02*
G75*
G02*
X235829365Y-96500000I-1750635J0D01*
G01*
X235829365Y-96500000D02*
G75*
G02*
X239330635Y-96500000I1750635J0D01*
G01*
%TO.C,S4*%
X192120000Y-74260000D02*
X192120000Y-75510000D01*
X192410000Y-74550000D02*
X192410000Y-80520000D01*
X192410000Y-80520000D02*
X202530000Y-80520000D01*
X192420000Y-74560000D02*
X192420000Y-75310000D01*
X192420000Y-75310000D02*
X194220000Y-75310000D01*
X192420000Y-76810000D02*
X193170000Y-76810000D01*
X193170000Y-76810000D02*
X193170000Y-79760000D01*
X193170000Y-79760000D02*
X197470000Y-79760000D01*
X193370000Y-74260000D02*
X192120000Y-74260000D01*
X194220000Y-74560000D02*
X192420000Y-74560000D01*
X194220000Y-75310000D02*
X194220000Y-74560000D01*
X195720000Y-74560000D02*
X195720000Y-75310000D01*
X195720000Y-75310000D02*
X199220000Y-75310000D01*
X199220000Y-74560000D02*
X195720000Y-74560000D01*
X199220000Y-75310000D02*
X199220000Y-74560000D01*
X200720000Y-74560000D02*
X200720000Y-75310000D01*
X200720000Y-75310000D02*
X202520000Y-75310000D01*
X201770000Y-76810000D02*
X201770000Y-79760000D01*
X201770000Y-79760000D02*
X197470000Y-79760000D01*
X202520000Y-74560000D02*
X200720000Y-74560000D01*
X202520000Y-75310000D02*
X202520000Y-74560000D01*
X202520000Y-76810000D02*
X201770000Y-76810000D01*
X202530000Y-74550000D02*
X192410000Y-74550000D01*
X202530000Y-80520000D02*
X202530000Y-74550000D01*
%TO.C,Source1*%
X228960000Y-57470000D02*
X228960000Y-58720000D01*
X229250000Y-57760000D02*
X229250000Y-63730000D01*
X229250000Y-63730000D02*
X236870000Y-63730000D01*
X229260000Y-57770000D02*
X229260000Y-58520000D01*
X229260000Y-58520000D02*
X231060000Y-58520000D01*
X229260000Y-60020000D02*
X230010000Y-60020000D01*
X230010000Y-60020000D02*
X230010000Y-62970000D01*
X230010000Y-62970000D02*
X233060000Y-62970000D01*
X230210000Y-57470000D02*
X228960000Y-57470000D01*
X231060000Y-57770000D02*
X229260000Y-57770000D01*
X231060000Y-58520000D02*
X231060000Y-57770000D01*
X232560000Y-57770000D02*
X232560000Y-58520000D01*
X232560000Y-58520000D02*
X233560000Y-58520000D01*
X233560000Y-57770000D02*
X232560000Y-57770000D01*
X233560000Y-58520000D02*
X233560000Y-57770000D01*
X235060000Y-57770000D02*
X235060000Y-58520000D01*
X235060000Y-58520000D02*
X236860000Y-58520000D01*
X236110000Y-60020000D02*
X236110000Y-62970000D01*
X236110000Y-62970000D02*
X233060000Y-62970000D01*
X236860000Y-57770000D02*
X235060000Y-57770000D01*
X236860000Y-58520000D02*
X236860000Y-57770000D01*
X236860000Y-60020000D02*
X236110000Y-60020000D01*
X236870000Y-57760000D02*
X229250000Y-57760000D01*
X236870000Y-63730000D02*
X236870000Y-57760000D01*
%TO.C,S1*%
X192050000Y-82810000D02*
X192050000Y-84060000D01*
X192340000Y-83100000D02*
X192340000Y-89070000D01*
X192340000Y-89070000D02*
X202460000Y-89070000D01*
X192350000Y-83110000D02*
X192350000Y-83860000D01*
X192350000Y-83860000D02*
X194150000Y-83860000D01*
X192350000Y-85360000D02*
X193100000Y-85360000D01*
X193100000Y-85360000D02*
X193100000Y-88310000D01*
X193100000Y-88310000D02*
X197400000Y-88310000D01*
X193300000Y-82810000D02*
X192050000Y-82810000D01*
X194150000Y-83110000D02*
X192350000Y-83110000D01*
X194150000Y-83860000D02*
X194150000Y-83110000D01*
X195650000Y-83110000D02*
X195650000Y-83860000D01*
X195650000Y-83860000D02*
X199150000Y-83860000D01*
X199150000Y-83110000D02*
X195650000Y-83110000D01*
X199150000Y-83860000D02*
X199150000Y-83110000D01*
X200650000Y-83110000D02*
X200650000Y-83860000D01*
X200650000Y-83860000D02*
X202450000Y-83860000D01*
X201700000Y-85360000D02*
X201700000Y-88310000D01*
X201700000Y-88310000D02*
X197400000Y-88310000D01*
X202450000Y-83110000D02*
X200650000Y-83110000D01*
X202450000Y-83860000D02*
X202450000Y-83110000D01*
X202450000Y-85360000D02*
X201700000Y-85360000D01*
X202460000Y-83100000D02*
X192340000Y-83100000D01*
X202460000Y-89070000D02*
X202460000Y-83100000D01*
%TO.C,J3*%
X205950000Y-64010000D02*
X205950000Y-81850000D01*
X205950000Y-64010000D02*
X208610000Y-64010000D01*
X205950000Y-81850000D02*
X208610000Y-81850000D01*
X207280000Y-61410000D02*
X208610000Y-61410000D01*
X208610000Y-61410000D02*
X208610000Y-62740000D01*
X208610000Y-64010000D02*
X208610000Y-81850000D01*
%TO.C,S3*%
X192050000Y-98410000D02*
X192050000Y-99660000D01*
X192340000Y-98700000D02*
X192340000Y-104670000D01*
X192340000Y-104670000D02*
X202460000Y-104670000D01*
X192350000Y-98710000D02*
X192350000Y-99460000D01*
X192350000Y-99460000D02*
X194150000Y-99460000D01*
X192350000Y-100960000D02*
X193100000Y-100960000D01*
X193100000Y-100960000D02*
X193100000Y-103910000D01*
X193100000Y-103910000D02*
X197400000Y-103910000D01*
X193300000Y-98410000D02*
X192050000Y-98410000D01*
X194150000Y-98710000D02*
X192350000Y-98710000D01*
X194150000Y-99460000D02*
X194150000Y-98710000D01*
X195650000Y-98710000D02*
X195650000Y-99460000D01*
X195650000Y-99460000D02*
X199150000Y-99460000D01*
X199150000Y-98710000D02*
X195650000Y-98710000D01*
X199150000Y-99460000D02*
X199150000Y-98710000D01*
X200650000Y-98710000D02*
X200650000Y-99460000D01*
X200650000Y-99460000D02*
X202450000Y-99460000D01*
X201700000Y-100960000D02*
X201700000Y-103910000D01*
X201700000Y-103910000D02*
X197400000Y-103910000D01*
X202450000Y-98710000D02*
X200650000Y-98710000D01*
X202450000Y-99460000D02*
X202450000Y-98710000D01*
X202450000Y-100960000D02*
X201700000Y-100960000D01*
X202460000Y-98700000D02*
X192340000Y-98700000D01*
X202460000Y-104670000D02*
X202460000Y-98700000D01*
%TO.C,J4*%
X221190000Y-64020000D02*
X221190000Y-81860000D01*
X221190000Y-64020000D02*
X223850000Y-64020000D01*
X221190000Y-81860000D02*
X223850000Y-81860000D01*
X222520000Y-61420000D02*
X223850000Y-61420000D01*
X223850000Y-61420000D02*
X223850000Y-62750000D01*
X223850000Y-64020000D02*
X223850000Y-81860000D01*
%TO.C,SW1*%
X226620000Y-74410000D02*
X226620000Y-80610000D01*
X227080000Y-74410000D02*
X226620000Y-74410000D01*
X227080000Y-80610000D02*
X226620000Y-80610000D01*
X229860000Y-74410000D02*
X229860000Y-73410000D01*
X230320000Y-74410000D02*
X229860000Y-74410000D01*
X230320000Y-80610000D02*
X229860000Y-80610000D01*
X230320000Y-80610000D02*
X230320000Y-74410000D01*
X229020000Y-76010000D02*
X227970000Y-76010000D01*
X227970000Y-78860000D01*
X229020000Y-78860000D01*
X229020000Y-76010000D01*
%TO.C,U2*%
X235100000Y-66130000D02*
X239720000Y-66130000D01*
X235100000Y-76350000D02*
X235100000Y-66130000D01*
X238340000Y-66130000D02*
X238340000Y-76350000D01*
X239720000Y-66130000D02*
X239720000Y-76350000D01*
X239720000Y-69390000D02*
X238340000Y-69390000D01*
X239720000Y-73090000D02*
X238340000Y-73090000D01*
X239720000Y-76350000D02*
X235100000Y-76350000D01*
%TO.C,D1*%
X228570000Y-94689365D02*
X228570000Y-92760000D01*
X230320635Y-96440000D02*
G75*
G02*
X226819365Y-96440000I-1750635J0D01*
G01*
X226819365Y-96440000D02*
G75*
G02*
X230320635Y-96440000I1750635J0D01*
G01*
%TO.C,J2*%
X222190000Y-88000000D02*
X222190000Y-103300000D01*
X222190000Y-88000000D02*
X224850000Y-88000000D01*
X222190000Y-103300000D02*
X224850000Y-103300000D01*
X223520000Y-85400000D02*
X224850000Y-85400000D01*
X224850000Y-85400000D02*
X224850000Y-86730000D01*
X224850000Y-88000000D02*
X224850000Y-103300000D01*
%TO.C,S6*%
X192120000Y-57600000D02*
X192120000Y-58850000D01*
X192410000Y-57890000D02*
X192410000Y-63860000D01*
X192410000Y-63860000D02*
X202530000Y-63860000D01*
X192420000Y-57900000D02*
X192420000Y-58650000D01*
X192420000Y-58650000D02*
X194220000Y-58650000D01*
X192420000Y-60150000D02*
X193170000Y-60150000D01*
X193170000Y-60150000D02*
X193170000Y-63100000D01*
X193170000Y-63100000D02*
X197470000Y-63100000D01*
X193370000Y-57600000D02*
X192120000Y-57600000D01*
X194220000Y-57900000D02*
X192420000Y-57900000D01*
X194220000Y-58650000D02*
X194220000Y-57900000D01*
X195720000Y-57900000D02*
X195720000Y-58650000D01*
X195720000Y-58650000D02*
X199220000Y-58650000D01*
X199220000Y-57900000D02*
X195720000Y-57900000D01*
X199220000Y-58650000D02*
X199220000Y-57900000D01*
X200720000Y-57900000D02*
X200720000Y-58650000D01*
X200720000Y-58650000D02*
X202520000Y-58650000D01*
X201770000Y-60150000D02*
X201770000Y-63100000D01*
X201770000Y-63100000D02*
X197470000Y-63100000D01*
X202520000Y-57900000D02*
X200720000Y-57900000D01*
X202520000Y-58650000D02*
X202520000Y-57900000D01*
X202520000Y-60150000D02*
X201770000Y-60150000D01*
X202530000Y-57890000D02*
X192410000Y-57890000D01*
X202530000Y-63860000D02*
X202530000Y-57890000D01*
%TO.C,S2*%
X192050000Y-90610000D02*
X192050000Y-91860000D01*
X192340000Y-90900000D02*
X192340000Y-96870000D01*
X192340000Y-96870000D02*
X202460000Y-96870000D01*
X192350000Y-90910000D02*
X192350000Y-91660000D01*
X192350000Y-91660000D02*
X194150000Y-91660000D01*
X192350000Y-93160000D02*
X193100000Y-93160000D01*
X193100000Y-93160000D02*
X193100000Y-96110000D01*
X193100000Y-96110000D02*
X197400000Y-96110000D01*
X193300000Y-90610000D02*
X192050000Y-90610000D01*
X194150000Y-90910000D02*
X192350000Y-90910000D01*
X194150000Y-91660000D02*
X194150000Y-90910000D01*
X195650000Y-90910000D02*
X195650000Y-91660000D01*
X195650000Y-91660000D02*
X199150000Y-91660000D01*
X199150000Y-90910000D02*
X195650000Y-90910000D01*
X199150000Y-91660000D02*
X199150000Y-90910000D01*
X200650000Y-90910000D02*
X200650000Y-91660000D01*
X200650000Y-91660000D02*
X202450000Y-91660000D01*
X201700000Y-93160000D02*
X201700000Y-96110000D01*
X201700000Y-96110000D02*
X197400000Y-96110000D01*
X202450000Y-90910000D02*
X200650000Y-90910000D01*
X202450000Y-91660000D02*
X202450000Y-90910000D01*
X202450000Y-93160000D02*
X201700000Y-93160000D01*
X202460000Y-90900000D02*
X192340000Y-90900000D01*
X202460000Y-96870000D02*
X202460000Y-90900000D01*
%TO.C,D2*%
X233050000Y-94749365D02*
X233050000Y-92820000D01*
X234800635Y-96500000D02*
G75*
G02*
X231299365Y-96500000I-1750635J0D01*
G01*
X231299365Y-96500000D02*
G75*
G02*
X234800635Y-96500000I1750635J0D01*
G01*
%TO.C,J1*%
X206950000Y-88000000D02*
X206950000Y-103300000D01*
X206950000Y-88000000D02*
X209610000Y-88000000D01*
X206950000Y-103300000D02*
X209610000Y-103300000D01*
X208280000Y-85400000D02*
X209610000Y-85400000D01*
X209610000Y-85400000D02*
X209610000Y-86730000D01*
X209610000Y-88000000D02*
X209610000Y-103300000D01*
%TO.C,S5*%
X192120000Y-65910000D02*
X192120000Y-67160000D01*
X192410000Y-66200000D02*
X192410000Y-72170000D01*
X192410000Y-72170000D02*
X202530000Y-72170000D01*
X192420000Y-66210000D02*
X192420000Y-66960000D01*
X192420000Y-66960000D02*
X194220000Y-66960000D01*
X192420000Y-68460000D02*
X193170000Y-68460000D01*
X193170000Y-68460000D02*
X193170000Y-71410000D01*
X193170000Y-71410000D02*
X197470000Y-71410000D01*
X193370000Y-65910000D02*
X192120000Y-65910000D01*
X194220000Y-66210000D02*
X192420000Y-66210000D01*
X194220000Y-66960000D02*
X194220000Y-66210000D01*
X195720000Y-66210000D02*
X195720000Y-66960000D01*
X195720000Y-66960000D02*
X199220000Y-66960000D01*
X199220000Y-66210000D02*
X195720000Y-66210000D01*
X199220000Y-66960000D02*
X199220000Y-66210000D01*
X200720000Y-66210000D02*
X200720000Y-66960000D01*
X200720000Y-66960000D02*
X202520000Y-66960000D01*
X201770000Y-68460000D02*
X201770000Y-71410000D01*
X201770000Y-71410000D02*
X197470000Y-71410000D01*
X202520000Y-66210000D02*
X200720000Y-66210000D01*
X202520000Y-66960000D02*
X202520000Y-66210000D01*
X202520000Y-68460000D02*
X201770000Y-68460000D01*
X202530000Y-66200000D02*
X192410000Y-66200000D01*
X202530000Y-72170000D02*
X202530000Y-66200000D01*
%TD*%
M02*
