M48
; DRILL file {KiCad 9.0.4} date 2025-09-18T17:41:55-0600
; FORMAT={-:-/ absolute / metric / decimal}
; #@! TF.CreationDate,2025-09-18T17:41:55-06:00
; #@! TF.GenerationSoftware,Kicad,Pcbnew,9.0.4
; #@! TF.FileFunction,Plated,1,2,PTH
FMAT,2
METRIC
; #@! TA.AperFunction,Plated,PTH,ViaDrill
T1C0.300
; #@! TA.AperFunction,Plated,PTH,ComponentDrill
T2C0.950
; #@! TA.AperFunction,Plated,PTH,ComponentDrill
T3C1.000
; #@! TA.AperFunction,Plated,PTH,ComponentDrill
T4C1.100
; #@! TA.AperFunction,Plated,PTH,ComponentDrill
T5C1.300
%
G90
G05
T1
X204.88Y-69.27
X213.69Y-95.51
X215.94Y-86.75
X216.41Y-93.06
X217.16Y-78.17
X218.77Y-81.82
X219.49Y-86.67
X233.8Y-103.63
T2
X194.9Y-85.56
X194.9Y-93.36
X194.9Y-101.16
X194.97Y-60.35
X194.97Y-68.66
X194.97Y-77.01
X197.4Y-85.56
X197.4Y-93.36
X197.4Y-101.16
X197.47Y-60.35
X197.47Y-68.66
X197.47Y-77.01
X199.9Y-85.56
X199.9Y-93.36
X199.9Y-101.16
X199.97Y-60.35
X199.97Y-68.66
X199.97Y-77.01
T3
X207.28Y-62.74
X207.28Y-65.28
X207.28Y-67.82
X207.28Y-70.36
X207.28Y-72.9
X207.28Y-75.44
X207.28Y-77.98
X207.28Y-80.52
X208.28Y-86.73
X208.28Y-89.27
X208.28Y-91.81
X208.28Y-94.35
X208.28Y-96.89
X208.28Y-99.43
X208.28Y-101.97
X213.91Y-102.48
X214.19Y-58.7
X216.41Y-102.48
X216.69Y-58.7
X222.52Y-62.75
X222.52Y-65.29
X222.52Y-67.83
X222.52Y-70.37
X222.52Y-72.91
X222.52Y-75.45
X222.52Y-77.99
X222.52Y-80.53
X223.52Y-86.73
X223.52Y-89.27
X223.52Y-91.81
X223.52Y-94.35
X223.52Y-96.89
X223.52Y-99.43
X223.52Y-101.97
X231.81Y-60.22
X232.38Y-84.8
X234.31Y-60.22
X234.92Y-84.8
X237.46Y-84.8
T4
X228.57Y-91.36
X228.57Y-96.44
X233.05Y-91.42
X233.05Y-96.5
X236.46Y-68.7
X236.46Y-71.24
X236.46Y-73.78
X237.58Y-91.42
X237.58Y-96.5
T5
X228.47Y-74.26
X228.47Y-80.76
M30
