%TF.GenerationSoftware,KiCad,Pcbnew,9.0.4*%
%TF.CreationDate,2025-09-18T17:41:51-06:00*%
%TF.ProjectId,sumo_bueno,73756d6f-5f62-4756-956e-6f2e6b696361,rev?*%
%TF.SameCoordinates,Original*%
%TF.FileFunction,Copper,L2,Bot*%
%TF.FilePolarity,Positive*%
%FSLAX46Y46*%
G04 Gerber Fmt 4.6, Leading zero omitted, Abs format (unit mm)*
G04 Created by KiCad (PCBNEW 9.0.4) date 2025-09-18 17:41:51*
%MOMM*%
%LPD*%
G01*
G04 APERTURE LIST*
G04 Aperture macros list*
%AMRoundRect*
0 Rectangle with rounded corners*
0 $1 Rounding radius*
0 $2 $3 $4 $5 $6 $7 $8 $9 X,Y pos of 4 corners*
0 Add a 4 corners polygon primitive as box body*
4,1,4,$2,$3,$4,$5,$6,$7,$8,$9,$2,$3,0*
0 Add four circle primitives for the rounded corners*
1,1,$1+$1,$2,$3*
1,1,$1+$1,$4,$5*
1,1,$1+$1,$6,$7*
1,1,$1+$1,$8,$9*
0 Add four rect primitives between the rounded corners*
20,1,$1+$1,$2,$3,$4,$5,0*
20,1,$1+$1,$4,$5,$6,$7,0*
20,1,$1+$1,$6,$7,$8,$9,0*
20,1,$1+$1,$8,$9,$2,$3,0*%
G04 Aperture macros list end*
%TA.AperFunction,ComponentPad*%
%ADD10R,1.700000X1.700000*%
%TD*%
%TA.AperFunction,ComponentPad*%
%ADD11C,1.700000*%
%TD*%
%TA.AperFunction,ComponentPad*%
%ADD12RoundRect,0.249999X-0.850001X0.850001X-0.850001X-0.850001X0.850001X-0.850001X0.850001X0.850001X0*%
%TD*%
%TA.AperFunction,ComponentPad*%
%ADD13C,2.200000*%
%TD*%
%TA.AperFunction,ComponentPad*%
%ADD14RoundRect,0.250000X-0.600000X-0.725000X0.600000X-0.725000X0.600000X0.725000X-0.600000X0.725000X0*%
%TD*%
%TA.AperFunction,ComponentPad*%
%ADD15O,1.700000X1.950000*%
%TD*%
%TA.AperFunction,ComponentPad*%
%ADD16RoundRect,0.250000X-0.600000X-0.750000X0.600000X-0.750000X0.600000X0.750000X-0.600000X0.750000X0*%
%TD*%
%TA.AperFunction,ComponentPad*%
%ADD17O,1.700000X2.000000*%
%TD*%
%TA.AperFunction,ComponentPad*%
%ADD18R,2.250000X2.250000*%
%TD*%
%TA.AperFunction,ComponentPad*%
%ADD19C,2.250000*%
%TD*%
%TA.AperFunction,ComponentPad*%
%ADD20R,2.000000X1.905000*%
%TD*%
%TA.AperFunction,ComponentPad*%
%ADD21O,2.000000X1.905000*%
%TD*%
%TA.AperFunction,SMDPad,CuDef*%
%ADD22RoundRect,0.250000X0.450000X-0.350000X0.450000X0.350000X-0.450000X0.350000X-0.450000X-0.350000X0*%
%TD*%
%TA.AperFunction,ComponentPad*%
%ADD23RoundRect,0.250000X0.600000X0.750000X-0.600000X0.750000X-0.600000X-0.750000X0.600000X-0.750000X0*%
%TD*%
%TA.AperFunction,ViaPad*%
%ADD24C,0.600000*%
%TD*%
%TA.AperFunction,Conductor*%
%ADD25C,0.200000*%
%TD*%
%TA.AperFunction,Conductor*%
%ADD26C,0.250000*%
%TD*%
%TA.AperFunction,Conductor*%
%ADD27C,0.500000*%
%TD*%
%TA.AperFunction,Conductor*%
%ADD28C,1.000000*%
%TD*%
G04 APERTURE END LIST*
D10*
%TO.P,S7,1,Pin_1*%
%TO.N,+5V*%
X237460000Y-84800000D03*
D11*
%TO.P,S7,2,Pin_2*%
%TO.N,/S7*%
X234920000Y-84800000D03*
%TO.P,S7,3,Pin_3*%
%TO.N,GND*%
X232380000Y-84800000D03*
%TD*%
D12*
%TO.P,D3,1,K*%
%TO.N,Net-(D1-K)*%
X237580000Y-91420000D03*
D13*
%TO.P,D3,2,A*%
%TO.N,/S1*%
X237580000Y-96500000D03*
%TD*%
D14*
%TO.P,S4,1,Pin_1*%
%TO.N,+5V*%
X194970000Y-77010000D03*
D15*
%TO.P,S4,2,Pin_2*%
%TO.N,GND*%
X197470000Y-77010000D03*
%TO.P,S4,3,Pin_3*%
%TO.N,/S4*%
X199970000Y-77010000D03*
%TD*%
D16*
%TO.P,Source1,1,Pin_1*%
%TO.N,+10V*%
X231810000Y-60220000D03*
D17*
%TO.P,Source1,2,Pin_2*%
%TO.N,GND*%
X234310000Y-60220000D03*
%TD*%
D14*
%TO.P,S1,1,Pin_1*%
%TO.N,+5V*%
X194900000Y-85560000D03*
D15*
%TO.P,S1,2,Pin_2*%
%TO.N,/S1*%
X197400000Y-85560000D03*
%TO.P,S1,3,Pin_3*%
%TO.N,Net-(S1-Pin_3)*%
X199900000Y-85560000D03*
%TD*%
D10*
%TO.P,J3,1,Pin_1*%
%TO.N,+10V*%
X207280000Y-62740000D03*
D11*
%TO.P,J3,2,Pin_2*%
%TO.N,+5V*%
X207280000Y-65280000D03*
%TO.P,J3,3,Pin_3*%
%TO.N,GND*%
X207280000Y-67820000D03*
%TO.P,J3,4,Pin_4*%
%TO.N,Net-(J3-Pin_4)*%
X207280000Y-70360000D03*
%TO.P,J3,5,Pin_5*%
%TO.N,Net-(J3-Pin_5)*%
X207280000Y-72900000D03*
%TO.P,J3,6,Pin_6*%
%TO.N,Net-(J3-Pin_6)*%
X207280000Y-75440000D03*
%TO.P,J3,7,Pin_7*%
%TO.N,Net-(J3-Pin_7)*%
X207280000Y-77980000D03*
%TO.P,J3,8,Pin_8*%
%TO.N,GND*%
X207280000Y-80520000D03*
%TD*%
D14*
%TO.P,S3,1,Pin_1*%
%TO.N,+5V*%
X194900000Y-101160000D03*
D15*
%TO.P,S3,2,Pin_2*%
%TO.N,/S3*%
X197400000Y-101160000D03*
%TO.P,S3,3,Pin_3*%
%TO.N,Net-(S3-Pin_3)*%
X199900000Y-101160000D03*
%TD*%
D10*
%TO.P,J4,1,Pin_1*%
%TO.N,/PWMA*%
X222520000Y-62750000D03*
D11*
%TO.P,J4,2,Pin_2*%
%TO.N,/MA1*%
X222520000Y-65290000D03*
%TO.P,J4,3,Pin_3*%
%TO.N,/MA2*%
X222520000Y-67830000D03*
%TO.P,J4,4,Pin_4*%
%TO.N,/Stby*%
X222520000Y-70370000D03*
%TO.P,J4,5,Pin_5*%
%TO.N,/MB1*%
X222520000Y-72910000D03*
%TO.P,J4,6,Pin_6*%
%TO.N,/MB2*%
X222520000Y-75450000D03*
%TO.P,J4,7,Pin_7*%
%TO.N,/PWMB*%
X222520000Y-77990000D03*
%TO.P,J4,8,Pin_8*%
%TO.N,GND*%
X222520000Y-80530000D03*
%TD*%
D18*
%TO.P,SW1,1,1*%
%TO.N,+5V*%
X228470000Y-74260000D03*
D19*
%TO.P,SW1,2,2*%
%TO.N,/S7*%
X228470000Y-80760000D03*
%TD*%
D20*
%TO.P,U2,1,VI*%
%TO.N,+10V*%
X236460000Y-68700000D03*
D21*
%TO.P,U2,2,GND*%
%TO.N,GND*%
X236460000Y-71240000D03*
%TO.P,U2,3,VO*%
%TO.N,+5V*%
X236460000Y-73780000D03*
%TD*%
D12*
%TO.P,D1,1,K*%
%TO.N,Net-(D1-K)*%
X228570000Y-91360000D03*
D13*
%TO.P,D1,2,A*%
%TO.N,/S3*%
X228570000Y-96440000D03*
%TD*%
D10*
%TO.P,J2,1,Pin_1*%
%TO.N,/PWMA*%
X223520000Y-86730000D03*
D11*
%TO.P,J2,2,Pin_2*%
%TO.N,/S7*%
X223520000Y-89270000D03*
%TO.P,J2,3,Pin_3*%
%TO.N,/Stby*%
X223520000Y-91810000D03*
%TO.P,J2,4,Pin_4*%
%TO.N,/MA2*%
X223520000Y-94350000D03*
%TO.P,J2,5,Pin_5*%
%TO.N,/MA1*%
X223520000Y-96890000D03*
%TO.P,J2,6,Pin_6*%
%TO.N,GND*%
X223520000Y-99430000D03*
%TO.P,J2,7,Pin_7*%
%TO.N,+5V*%
X223520000Y-101970000D03*
%TD*%
D14*
%TO.P,S6,1,Pin_1*%
%TO.N,+5V*%
X194970000Y-60350000D03*
D15*
%TO.P,S6,2,Pin_2*%
%TO.N,GND*%
X197470000Y-60350000D03*
%TO.P,S6,3,Pin_3*%
%TO.N,/S6*%
X199970000Y-60350000D03*
%TD*%
D14*
%TO.P,S2,1,Pin_1*%
%TO.N,+5V*%
X194900000Y-93360000D03*
D15*
%TO.P,S2,2,Pin_2*%
%TO.N,/S2*%
X197400000Y-93360000D03*
%TO.P,S2,3,Pin_3*%
%TO.N,Net-(S2-Pin_3)*%
X199900000Y-93360000D03*
%TD*%
D12*
%TO.P,D2,1,K*%
%TO.N,Net-(D1-K)*%
X233050000Y-91420000D03*
D13*
%TO.P,D2,2,A*%
%TO.N,/S2*%
X233050000Y-96500000D03*
%TD*%
D10*
%TO.P,J1,1,Pin_1*%
%TO.N,/S6*%
X208280000Y-86730000D03*
D11*
%TO.P,J1,2,Pin_2*%
%TO.N,/S5*%
X208280000Y-89270000D03*
%TO.P,J1,3,Pin_3*%
%TO.N,/S4*%
X208280000Y-91810000D03*
%TO.P,J1,4,Pin_4*%
%TO.N,/PWMB*%
X208280000Y-94350000D03*
%TO.P,J1,5,Pin_5*%
%TO.N,/MB1*%
X208280000Y-96890000D03*
%TO.P,J1,6,Pin_6*%
%TO.N,/MB2*%
X208280000Y-99430000D03*
%TO.P,J1,7,Pin_7*%
%TO.N,Net-(D1-K)*%
X208280000Y-101970000D03*
%TD*%
D14*
%TO.P,S5,1,Pin_1*%
%TO.N,+5V*%
X194970000Y-68660000D03*
D15*
%TO.P,S5,2,Pin_2*%
%TO.N,GND*%
X197470000Y-68660000D03*
%TO.P,S5,3,Pin_3*%
%TO.N,/S5*%
X199970000Y-68660000D03*
%TD*%
D16*
%TO.P,MotoA1,1,Pin_1*%
%TO.N,Net-(J3-Pin_4)*%
X214190000Y-58700000D03*
D17*
%TO.P,MotoA1,2,Pin_2*%
%TO.N,Net-(J3-Pin_5)*%
X216690000Y-58700000D03*
%TD*%
D22*
%TO.P,R4,1*%
%TO.N,GND*%
X228460000Y-101590000D03*
%TO.P,R4,2*%
%TO.N,/S3*%
X228460000Y-99590000D03*
%TD*%
%TO.P,R5,1*%
%TO.N,GND*%
X204020000Y-103130000D03*
%TO.P,R5,2*%
%TO.N,Net-(S3-Pin_3)*%
X204020000Y-101130000D03*
%TD*%
%TO.P,R1,1*%
%TO.N,GND*%
X204270000Y-87760000D03*
%TO.P,R1,2*%
%TO.N,Net-(S1-Pin_3)*%
X204270000Y-85760000D03*
%TD*%
%TO.P,R6,1*%
%TO.N,GND*%
X237570000Y-101760000D03*
%TO.P,R6,2*%
%TO.N,/S1*%
X237570000Y-99760000D03*
%TD*%
%TO.P,R3,1*%
%TO.N,GND*%
X203920000Y-94980000D03*
%TO.P,R3,2*%
%TO.N,Net-(S2-Pin_3)*%
X203920000Y-92980000D03*
%TD*%
D23*
%TO.P,MotorB1,1,Pin_1*%
%TO.N,Net-(J3-Pin_6)*%
X216410000Y-102480000D03*
D17*
%TO.P,MotorB1,2,Pin_2*%
%TO.N,Net-(J3-Pin_7)*%
X213910000Y-102480000D03*
%TD*%
D22*
%TO.P,R2,1*%
%TO.N,GND*%
X233070000Y-101810000D03*
%TO.P,R2,2*%
%TO.N,/S2*%
X233070000Y-99810000D03*
%TD*%
D24*
%TO.N,/S1*%
X233800000Y-103630000D03*
%TO.N,/S6*%
X204880000Y-69270000D03*
%TO.N,/MB1*%
X218770000Y-81820000D03*
%TO.N,/MB2*%
X219490000Y-86670000D03*
%TO.N,/PWMB*%
X217160000Y-78170000D03*
X215940000Y-86750000D03*
%TO.N,Net-(J3-Pin_7)*%
X213690000Y-95510000D03*
%TO.N,Net-(J3-Pin_6)*%
X216410000Y-93060000D03*
%TD*%
D25*
%TO.N,/S1*%
X237570000Y-99860000D02*
X233800000Y-103630000D01*
X237570000Y-99760000D02*
X237570000Y-99860000D01*
X237570000Y-96510000D02*
X237580000Y-96500000D01*
X237570000Y-99760000D02*
X237570000Y-96510000D01*
%TO.N,/S7*%
X233660000Y-83540000D02*
X228470000Y-83540000D01*
X234920000Y-84800000D02*
X233660000Y-83540000D01*
D26*
X228470000Y-83540000D02*
X228470000Y-80760000D01*
%TO.N,/S3*%
X200296000Y-104056000D02*
X223994000Y-104056000D01*
X228460000Y-99590000D02*
X228460000Y-96550000D01*
X228460000Y-96550000D02*
X228570000Y-96440000D01*
X223994000Y-104056000D02*
X228460000Y-99590000D01*
X197400000Y-101160000D02*
X200296000Y-104056000D01*
%TO.N,/S2*%
X196224000Y-94536000D02*
X196224000Y-101772115D01*
X233070000Y-96520000D02*
X233050000Y-96500000D01*
X198958885Y-104507000D02*
X228373000Y-104507000D01*
X228373000Y-104507000D02*
X233070000Y-99810000D01*
X197400000Y-93360000D02*
X196224000Y-94536000D01*
X196224000Y-101772115D02*
X198958885Y-104507000D01*
X233070000Y-99810000D02*
X233070000Y-96520000D01*
%TO.N,/S1*%
X238230000Y-96510000D02*
X238240000Y-96500000D01*
%TO.N,/S6*%
X199970000Y-64360000D02*
X199970000Y-60350000D01*
X204880000Y-69270000D02*
X199970000Y-64360000D01*
%TO.N,/MB1*%
X218770000Y-76660000D02*
X218770000Y-81820000D01*
X222520000Y-72910000D02*
X218770000Y-76660000D01*
%TO.N,/MB2*%
X219490000Y-78480000D02*
X219490000Y-86670000D01*
X222520000Y-75450000D02*
X219490000Y-78480000D01*
%TO.N,/PWMB*%
X217160000Y-85470000D02*
X217160000Y-78170000D01*
X215940000Y-86750000D02*
X215940000Y-86690000D01*
X215940000Y-86690000D02*
X217160000Y-85470000D01*
D27*
%TO.N,+5V*%
X194900000Y-85560000D02*
X194900000Y-93360000D01*
X194900000Y-93360000D02*
X194900000Y-101160000D01*
X194970000Y-60350000D02*
X194970000Y-68660000D01*
X194970000Y-77120000D02*
X194900000Y-77190000D01*
X194970000Y-77010000D02*
X194970000Y-77120000D01*
X194900000Y-77190000D02*
X194900000Y-85560000D01*
X194970000Y-68660000D02*
X194970000Y-77010000D01*
D26*
%TO.N,/Stby*%
X218020000Y-70370000D02*
X218020000Y-86310000D01*
X222520000Y-70370000D02*
X218020000Y-70370000D01*
X218020000Y-86310000D02*
X223520000Y-91810000D01*
%TO.N,/S7*%
X228470000Y-84320000D02*
X228470000Y-83540000D01*
X223520000Y-89270000D02*
X228470000Y-84320000D01*
D28*
%TO.N,Net-(J3-Pin_4)*%
X214190000Y-63450000D02*
X214190000Y-58700000D01*
X207280000Y-70360000D02*
X214190000Y-63450000D01*
%TO.N,Net-(J3-Pin_7)*%
X212260000Y-94080000D02*
X212260000Y-78120000D01*
X212260000Y-78120000D02*
X212120000Y-77980000D01*
X212120000Y-77980000D02*
X207280000Y-77980000D01*
X213690000Y-95510000D02*
X212260000Y-94080000D01*
%TO.N,Net-(J3-Pin_6)*%
X214860000Y-75790000D02*
X214280000Y-75790000D01*
X216410000Y-93060000D02*
X214860000Y-91510000D01*
X214280000Y-75790000D02*
X213930000Y-75440000D01*
X213930000Y-75440000D02*
X207280000Y-75440000D01*
X214860000Y-91510000D02*
X214860000Y-75790000D01*
%TO.N,Net-(J3-Pin_5)*%
X216690000Y-63490000D02*
X207280000Y-72900000D01*
X216690000Y-58700000D02*
X216690000Y-63490000D01*
D26*
%TO.N,Net-(S1-Pin_3)*%
X200100000Y-85760000D02*
X199900000Y-85560000D01*
X204270000Y-85760000D02*
X200100000Y-85760000D01*
%TO.N,Net-(S2-Pin_3)*%
X200444000Y-92816000D02*
X199900000Y-93360000D01*
X203920000Y-92980000D02*
X200280000Y-92980000D01*
X200280000Y-92980000D02*
X199900000Y-93360000D01*
%TO.N,Net-(S3-Pin_3)*%
X199930000Y-101130000D02*
X199900000Y-101160000D01*
X204020000Y-101130000D02*
X199930000Y-101130000D01*
%TO.N,Net-(D1-K)*%
X208280000Y-101970000D02*
X211500000Y-101970000D01*
X226820000Y-93110000D02*
X228570000Y-91360000D01*
X232990000Y-91360000D02*
X233050000Y-91420000D01*
X211500000Y-101970000D02*
X220360000Y-93110000D01*
X220360000Y-93110000D02*
X226820000Y-93110000D01*
%TD*%
%TA.AperFunction,Conductor*%
%TO.N,GND*%
G36*
X212922858Y-57370185D02*
G01*
X212968613Y-57422989D01*
X212978557Y-57492147D01*
X212961358Y-57539594D01*
X212947428Y-57562181D01*
X212905187Y-57630663D01*
X212905186Y-57630666D01*
X212850001Y-57797203D01*
X212850001Y-57797204D01*
X212850000Y-57797204D01*
X212839500Y-57899983D01*
X212839500Y-59500001D01*
X212839501Y-59500018D01*
X212850000Y-59602796D01*
X212850001Y-59602799D01*
X212905185Y-59769331D01*
X212905187Y-59769336D01*
X212930392Y-59810199D01*
X212997288Y-59918656D01*
X213121344Y-60042712D01*
X213130591Y-60048416D01*
X213177318Y-60100360D01*
X213189500Y-60153957D01*
X213189500Y-62984217D01*
X213169815Y-63051256D01*
X213153181Y-63071898D01*
X207251503Y-68973576D01*
X207190180Y-69007061D01*
X207174643Y-69009352D01*
X206963760Y-69042753D01*
X206761585Y-69108444D01*
X206572179Y-69204951D01*
X206400213Y-69329890D01*
X206249890Y-69480213D01*
X206124951Y-69652179D01*
X206028444Y-69841585D01*
X205962753Y-70043760D01*
X205939978Y-70187555D01*
X205929500Y-70253713D01*
X205929500Y-70466287D01*
X205962754Y-70676243D01*
X205966003Y-70686243D01*
X206028444Y-70878414D01*
X206124951Y-71067820D01*
X206249890Y-71239786D01*
X206400213Y-71390109D01*
X206572182Y-71515050D01*
X206580946Y-71519516D01*
X206631742Y-71567491D01*
X206648536Y-71635312D01*
X206625998Y-71701447D01*
X206580946Y-71740484D01*
X206572182Y-71744949D01*
X206400213Y-71869890D01*
X206249890Y-72020213D01*
X206124951Y-72192179D01*
X206028444Y-72381585D01*
X205962753Y-72583760D01*
X205932075Y-72777454D01*
X205929500Y-72793713D01*
X205929500Y-73006287D01*
X205962754Y-73216243D01*
X205966003Y-73226243D01*
X206028444Y-73418414D01*
X206124951Y-73607820D01*
X206249890Y-73779786D01*
X206400213Y-73930109D01*
X206572182Y-74055050D01*
X206580946Y-74059516D01*
X206631742Y-74107491D01*
X206648536Y-74175312D01*
X206625998Y-74241447D01*
X206580946Y-74280484D01*
X206572182Y-74284949D01*
X206400213Y-74409890D01*
X206249890Y-74560213D01*
X206124951Y-74732179D01*
X206028444Y-74921585D01*
X205962753Y-75123760D01*
X205929500Y-75333713D01*
X205929500Y-75546286D01*
X205960584Y-75742547D01*
X205962754Y-75756243D01*
X206009434Y-75899910D01*
X206028444Y-75958414D01*
X206124951Y-76147820D01*
X206249890Y-76319786D01*
X206400213Y-76470109D01*
X206572182Y-76595050D01*
X206580946Y-76599516D01*
X206631742Y-76647491D01*
X206648536Y-76715312D01*
X206625998Y-76781447D01*
X206580946Y-76820484D01*
X206572182Y-76824949D01*
X206400213Y-76949890D01*
X206249890Y-77100213D01*
X206124951Y-77272179D01*
X206028444Y-77461585D01*
X205962753Y-77663760D01*
X205943549Y-77785009D01*
X205929500Y-77873713D01*
X205929500Y-78086287D01*
X205931084Y-78096286D01*
X205961772Y-78290048D01*
X205962754Y-78296243D01*
X206023235Y-78482384D01*
X206028444Y-78498414D01*
X206124951Y-78687820D01*
X206249890Y-78859786D01*
X206400213Y-79010109D01*
X206572179Y-79135048D01*
X206572181Y-79135049D01*
X206572184Y-79135051D01*
X206761588Y-79231557D01*
X206963757Y-79297246D01*
X207173713Y-79330500D01*
X207173714Y-79330500D01*
X207386286Y-79330500D01*
X207386287Y-79330500D01*
X207596243Y-79297246D01*
X207798412Y-79231557D01*
X207987816Y-79135051D01*
X208029866Y-79104500D01*
X208163734Y-79007241D01*
X208164364Y-79008108D01*
X208223419Y-78981641D01*
X208240200Y-78980500D01*
X211135500Y-78980500D01*
X211202539Y-79000185D01*
X211248294Y-79052989D01*
X211259500Y-79104500D01*
X211259500Y-94178544D01*
X211278724Y-94275188D01*
X211294310Y-94353546D01*
X211297948Y-94371832D01*
X211297950Y-94371840D01*
X211373364Y-94553907D01*
X211373371Y-94553920D01*
X211482859Y-94717780D01*
X211482860Y-94717781D01*
X211482861Y-94717782D01*
X211622218Y-94857139D01*
X211622219Y-94857139D01*
X211629286Y-94864206D01*
X211629285Y-94864206D01*
X211629289Y-94864209D01*
X213052214Y-96287136D01*
X213052218Y-96287139D01*
X213216078Y-96396627D01*
X213216084Y-96396630D01*
X213216085Y-96396631D01*
X213398164Y-96472051D01*
X213591454Y-96510499D01*
X213591457Y-96510500D01*
X213591459Y-96510500D01*
X213788542Y-96510500D01*
X213788543Y-96510499D01*
X213981835Y-96472051D01*
X214163914Y-96396631D01*
X214327781Y-96287139D01*
X214467139Y-96147781D01*
X214576631Y-95983914D01*
X214652051Y-95801835D01*
X214690500Y-95608540D01*
X214690500Y-95411459D01*
X214690500Y-95411456D01*
X214690499Y-95411454D01*
X214652051Y-95218164D01*
X214576631Y-95036085D01*
X214576630Y-95036084D01*
X214576627Y-95036078D01*
X214467139Y-94872218D01*
X214467136Y-94872214D01*
X213296819Y-93701897D01*
X213263334Y-93640574D01*
X213260500Y-93614216D01*
X213260500Y-78021458D01*
X213260499Y-78021455D01*
X213259174Y-78014792D01*
X213227406Y-77855084D01*
X213222051Y-77828164D01*
X213191882Y-77755331D01*
X213153953Y-77663760D01*
X213146635Y-77646092D01*
X213146633Y-77646088D01*
X213146632Y-77646086D01*
X213143424Y-77641285D01*
X213037139Y-77482217D01*
X212757785Y-77202863D01*
X212757781Y-77202860D01*
X212593920Y-77093371D01*
X212593911Y-77093366D01*
X212521315Y-77063296D01*
X212465165Y-77040038D01*
X212411836Y-77017949D01*
X212411832Y-77017948D01*
X212411828Y-77017946D01*
X212315188Y-76998724D01*
X212218544Y-76979500D01*
X212218541Y-76979500D01*
X208240200Y-76979500D01*
X208173161Y-76959815D01*
X208160634Y-76950506D01*
X207987820Y-76824951D01*
X207987115Y-76824591D01*
X207979054Y-76820485D01*
X207928259Y-76772512D01*
X207911463Y-76704692D01*
X207933999Y-76638556D01*
X207979054Y-76599515D01*
X207987816Y-76595051D01*
X208024007Y-76568757D01*
X208163734Y-76467241D01*
X208164364Y-76468108D01*
X208223419Y-76441641D01*
X208240200Y-76440500D01*
X213464217Y-76440500D01*
X213490239Y-76448141D01*
X213517042Y-76452315D01*
X213526071Y-76458662D01*
X213531256Y-76460185D01*
X213546509Y-76471742D01*
X213549274Y-76474195D01*
X213642219Y-76567140D01*
X213683046Y-76594419D01*
X213804391Y-76675499D01*
X213849196Y-76729111D01*
X213859500Y-76778601D01*
X213859500Y-91608541D01*
X213859500Y-91608543D01*
X213859499Y-91608543D01*
X213897947Y-91801829D01*
X213897950Y-91801839D01*
X213973364Y-91983907D01*
X213973371Y-91983920D01*
X214082860Y-92147781D01*
X214082863Y-92147785D01*
X214226537Y-92291459D01*
X214226559Y-92291479D01*
X215772215Y-93837136D01*
X215772219Y-93837139D01*
X215936079Y-93946627D01*
X215936083Y-93946629D01*
X215936086Y-93946631D01*
X216118164Y-94022051D01*
X216311455Y-94060499D01*
X216311458Y-94060500D01*
X216311460Y-94060500D01*
X216508542Y-94060500D01*
X216508543Y-94060499D01*
X216701836Y-94022051D01*
X216883914Y-93946631D01*
X217047781Y-93837139D01*
X217187139Y-93697781D01*
X217296631Y-93533914D01*
X217372051Y-93351836D01*
X217410500Y-93158540D01*
X217410500Y-92961460D01*
X217410500Y-92961457D01*
X217410499Y-92961455D01*
X217378923Y-92802712D01*
X217372051Y-92768164D01*
X217296631Y-92586086D01*
X217296629Y-92586083D01*
X217296627Y-92586079D01*
X217187139Y-92422219D01*
X217187136Y-92422215D01*
X215896819Y-91131898D01*
X215863334Y-91070575D01*
X215860500Y-91044217D01*
X215860500Y-87674500D01*
X215880185Y-87607461D01*
X215932989Y-87561706D01*
X215984500Y-87550500D01*
X216018844Y-87550500D01*
X216018845Y-87550499D01*
X216173497Y-87519737D01*
X216319179Y-87459394D01*
X216450289Y-87371789D01*
X216561789Y-87260289D01*
X216649394Y-87129179D01*
X216709737Y-86983497D01*
X216740500Y-86828842D01*
X216740500Y-86825452D01*
X216741002Y-86823740D01*
X216741097Y-86822782D01*
X216741278Y-86822799D01*
X216760185Y-86758413D01*
X216776819Y-86737771D01*
X216973659Y-86540931D01*
X217188732Y-86325857D01*
X217197638Y-86320994D01*
X217203863Y-86312978D01*
X217227786Y-86304532D01*
X217250053Y-86292374D01*
X217260176Y-86293097D01*
X217269748Y-86289719D01*
X217294439Y-86295548D01*
X217319744Y-86297358D01*
X217327869Y-86303440D01*
X217337748Y-86305773D01*
X217355366Y-86324024D01*
X217375678Y-86339229D01*
X217380517Y-86350079D01*
X217386274Y-86356042D01*
X217398023Y-86389323D01*
X217398713Y-86392788D01*
X217398715Y-86392815D01*
X217398718Y-86392815D01*
X217418535Y-86492446D01*
X217418539Y-86492459D01*
X217426404Y-86511446D01*
X217428499Y-86516503D01*
X217465688Y-86606286D01*
X217480460Y-86628393D01*
X217485465Y-86635883D01*
X217534140Y-86708731D01*
X217534141Y-86708732D01*
X217534142Y-86708733D01*
X217621267Y-86795858D01*
X217621268Y-86795858D01*
X217628335Y-86802925D01*
X217628334Y-86802925D01*
X217628338Y-86802928D01*
X222177571Y-91352162D01*
X222211056Y-91413485D01*
X222207821Y-91478160D01*
X222202754Y-91493753D01*
X222169500Y-91703713D01*
X222169500Y-91916287D01*
X222170469Y-91922405D01*
X222195421Y-92079949D01*
X222202754Y-92126243D01*
X222266074Y-92321120D01*
X222266419Y-92322182D01*
X222268414Y-92392023D01*
X222232334Y-92451856D01*
X222169633Y-92482684D01*
X222148488Y-92484500D01*
X220421607Y-92484500D01*
X220298393Y-92484500D01*
X220249919Y-92494142D01*
X220249918Y-92494141D01*
X220177555Y-92508535D01*
X220177545Y-92508538D01*
X220063716Y-92555687D01*
X220063707Y-92555692D01*
X219961268Y-92624140D01*
X219917705Y-92667703D01*
X219874142Y-92711267D01*
X219874139Y-92711270D01*
X211277229Y-101308181D01*
X211215906Y-101341666D01*
X211189548Y-101344500D01*
X209552981Y-101344500D01*
X209485942Y-101324815D01*
X209442497Y-101276797D01*
X209435049Y-101262180D01*
X209310109Y-101090213D01*
X209159786Y-100939890D01*
X208987820Y-100814951D01*
X208987115Y-100814591D01*
X208979054Y-100810485D01*
X208928259Y-100762512D01*
X208911463Y-100694692D01*
X208933999Y-100628556D01*
X208979054Y-100589515D01*
X208987816Y-100585051D01*
X209059858Y-100532710D01*
X209159786Y-100460109D01*
X209159788Y-100460106D01*
X209159792Y-100460104D01*
X209310104Y-100309792D01*
X209310106Y-100309788D01*
X209310109Y-100309786D01*
X209435048Y-100137820D01*
X209435047Y-100137820D01*
X209435051Y-100137816D01*
X209531557Y-99948412D01*
X209597246Y-99746243D01*
X209630500Y-99536287D01*
X209630500Y-99323713D01*
X209597246Y-99113757D01*
X209531557Y-98911588D01*
X209435051Y-98722184D01*
X209435049Y-98722181D01*
X209435048Y-98722179D01*
X209310109Y-98550213D01*
X209159786Y-98399890D01*
X208987820Y-98274951D01*
X208987115Y-98274591D01*
X208979054Y-98270485D01*
X208928259Y-98222512D01*
X208911463Y-98154692D01*
X208933999Y-98088556D01*
X208979054Y-98049515D01*
X208987816Y-98045051D01*
X209062213Y-97990999D01*
X209159786Y-97920109D01*
X209159788Y-97920106D01*
X209159792Y-97920104D01*
X209310104Y-97769792D01*
X209310106Y-97769788D01*
X209310109Y-97769786D01*
X209435048Y-97597820D01*
X209435047Y-97597820D01*
X209435051Y-97597816D01*
X209531557Y-97408412D01*
X209597246Y-97206243D01*
X209630500Y-96996287D01*
X209630500Y-96783713D01*
X209597246Y-96573757D01*
X209531557Y-96371588D01*
X209435051Y-96182184D01*
X209435049Y-96182181D01*
X209435048Y-96182179D01*
X209310109Y-96010213D01*
X209159786Y-95859890D01*
X208987820Y-95734951D01*
X208987115Y-95734591D01*
X208979054Y-95730485D01*
X208928259Y-95682512D01*
X208911463Y-95614692D01*
X208933999Y-95548556D01*
X208979054Y-95509515D01*
X208987816Y-95505051D01*
X209009789Y-95489086D01*
X209159786Y-95380109D01*
X209159788Y-95380106D01*
X209159792Y-95380104D01*
X209310104Y-95229792D01*
X209310106Y-95229788D01*
X209310109Y-95229786D01*
X209435048Y-95057820D01*
X209435047Y-95057820D01*
X209435051Y-95057816D01*
X209531557Y-94868412D01*
X209597246Y-94666243D01*
X209630500Y-94456287D01*
X209630500Y-94243713D01*
X209597246Y-94033757D01*
X209531557Y-93831588D01*
X209435051Y-93642184D01*
X209435049Y-93642181D01*
X209435048Y-93642179D01*
X209310109Y-93470213D01*
X209159786Y-93319890D01*
X208987820Y-93194951D01*
X208987115Y-93194591D01*
X208979054Y-93190485D01*
X208928259Y-93142512D01*
X208911463Y-93074692D01*
X208933999Y-93008556D01*
X208979054Y-92969515D01*
X208987816Y-92965051D01*
X209084490Y-92894814D01*
X209159786Y-92840109D01*
X209159788Y-92840106D01*
X209159792Y-92840104D01*
X209310104Y-92689792D01*
X209310106Y-92689788D01*
X209310109Y-92689786D01*
X209435048Y-92517820D01*
X209435047Y-92517820D01*
X209435051Y-92517816D01*
X209531557Y-92328412D01*
X209597246Y-92126243D01*
X209630500Y-91916287D01*
X209630500Y-91703713D01*
X209597246Y-91493757D01*
X209531557Y-91291588D01*
X209435051Y-91102184D01*
X209435049Y-91102181D01*
X209435048Y-91102179D01*
X209310109Y-90930213D01*
X209159786Y-90779890D01*
X208987820Y-90654951D01*
X208987115Y-90654591D01*
X208979054Y-90650485D01*
X208928259Y-90602512D01*
X208911463Y-90534692D01*
X208933999Y-90468556D01*
X208979054Y-90429515D01*
X208987816Y-90425051D01*
X209009789Y-90409086D01*
X209159786Y-90300109D01*
X209159788Y-90300106D01*
X209159792Y-90300104D01*
X209310104Y-90149792D01*
X209310106Y-90149788D01*
X209310109Y-90149786D01*
X209435048Y-89977820D01*
X209435047Y-89977820D01*
X209435051Y-89977816D01*
X209531557Y-89788412D01*
X209597246Y-89586243D01*
X209630500Y-89376287D01*
X209630500Y-89163713D01*
X209597246Y-88953757D01*
X209531557Y-88751588D01*
X209435051Y-88562184D01*
X209435049Y-88562181D01*
X209435048Y-88562179D01*
X209310109Y-88390213D01*
X209196569Y-88276673D01*
X209163084Y-88215350D01*
X209168068Y-88145658D01*
X209209940Y-88089725D01*
X209240915Y-88072810D01*
X209372331Y-88023796D01*
X209487546Y-87937546D01*
X209573796Y-87822331D01*
X209624091Y-87687483D01*
X209630500Y-87627873D01*
X209630499Y-85832128D01*
X209624091Y-85772517D01*
X209619764Y-85760917D01*
X209573797Y-85637671D01*
X209573793Y-85637664D01*
X209487547Y-85522455D01*
X209487544Y-85522452D01*
X209372335Y-85436206D01*
X209372328Y-85436202D01*
X209237482Y-85385908D01*
X209237483Y-85385908D01*
X209177883Y-85379501D01*
X209177881Y-85379500D01*
X209177873Y-85379500D01*
X209177864Y-85379500D01*
X207382129Y-85379500D01*
X207382123Y-85379501D01*
X207322516Y-85385908D01*
X207187671Y-85436202D01*
X207187664Y-85436206D01*
X207072455Y-85522452D01*
X207072452Y-85522455D01*
X206986206Y-85637664D01*
X206986202Y-85637671D01*
X206935908Y-85772517D01*
X206929717Y-85830109D01*
X206929501Y-85832123D01*
X206929500Y-85832135D01*
X206929500Y-87627870D01*
X206929501Y-87627876D01*
X206935908Y-87687483D01*
X206986202Y-87822328D01*
X206986206Y-87822335D01*
X207072452Y-87937544D01*
X207072455Y-87937547D01*
X207187664Y-88023793D01*
X207187671Y-88023797D01*
X207319082Y-88072810D01*
X207375016Y-88114681D01*
X207399433Y-88180145D01*
X207384582Y-88248418D01*
X207363431Y-88276673D01*
X207249889Y-88390215D01*
X207124951Y-88562179D01*
X207028444Y-88751585D01*
X206962753Y-88953760D01*
X206929500Y-89163713D01*
X206929500Y-89376287D01*
X206962754Y-89586243D01*
X206973304Y-89618713D01*
X207028444Y-89788414D01*
X207124951Y-89977820D01*
X207249890Y-90149786D01*
X207400213Y-90300109D01*
X207572182Y-90425050D01*
X207580946Y-90429516D01*
X207631742Y-90477491D01*
X207648536Y-90545312D01*
X207625998Y-90611447D01*
X207580946Y-90650484D01*
X207572182Y-90654949D01*
X207400213Y-90779890D01*
X207249890Y-90930213D01*
X207124951Y-91102179D01*
X207028444Y-91291585D01*
X206962753Y-91493760D01*
X206929500Y-91703713D01*
X206929500Y-91916287D01*
X206930469Y-91922405D01*
X206955421Y-92079949D01*
X206962754Y-92126243D01*
X207025715Y-92320017D01*
X207028444Y-92328414D01*
X207124951Y-92517820D01*
X207249890Y-92689786D01*
X207400213Y-92840109D01*
X207572182Y-92965050D01*
X207580946Y-92969516D01*
X207631742Y-93017491D01*
X207648536Y-93085312D01*
X207625998Y-93151447D01*
X207580946Y-93190484D01*
X207572182Y-93194949D01*
X207400213Y-93319890D01*
X207249890Y-93470213D01*
X207124951Y-93642179D01*
X207028444Y-93831585D01*
X206962753Y-94033760D01*
X206929500Y-94243713D01*
X206929500Y-94456286D01*
X206958605Y-94640051D01*
X206962754Y-94666243D01*
X207027077Y-94864209D01*
X207028444Y-94868414D01*
X207124951Y-95057820D01*
X207249890Y-95229786D01*
X207400213Y-95380109D01*
X207572182Y-95505050D01*
X207580946Y-95509516D01*
X207631742Y-95557491D01*
X207648536Y-95625312D01*
X207625998Y-95691447D01*
X207580946Y-95730484D01*
X207572182Y-95734949D01*
X207400213Y-95859890D01*
X207249890Y-96010213D01*
X207124951Y-96182179D01*
X207028444Y-96371585D01*
X206962753Y-96573760D01*
X206954485Y-96625962D01*
X206929500Y-96783713D01*
X206929500Y-96996287D01*
X206962754Y-97206243D01*
X207005840Y-97338848D01*
X207028444Y-97408414D01*
X207124951Y-97597820D01*
X207249890Y-97769786D01*
X207400213Y-97920109D01*
X207572182Y-98045050D01*
X207580946Y-98049516D01*
X207631742Y-98097491D01*
X207648536Y-98165312D01*
X207625998Y-98231447D01*
X207580946Y-98270484D01*
X207572182Y-98274949D01*
X207400213Y-98399890D01*
X207249890Y-98550213D01*
X207124951Y-98722179D01*
X207028444Y-98911585D01*
X206962753Y-99113760D01*
X206929500Y-99323713D01*
X206929500Y-99536286D01*
X206962259Y-99743123D01*
X206962754Y-99746243D01*
X206997944Y-99854547D01*
X207028444Y-99948414D01*
X207124951Y-100137820D01*
X207249890Y-100309786D01*
X207400213Y-100460109D01*
X207572182Y-100585050D01*
X207580946Y-100589516D01*
X207631742Y-100637491D01*
X207648536Y-100705312D01*
X207625998Y-100771447D01*
X207580946Y-100810484D01*
X207572182Y-100814949D01*
X207400213Y-100939890D01*
X207249890Y-101090213D01*
X207124951Y-101262179D01*
X207028444Y-101451585D01*
X206962753Y-101653760D01*
X206939697Y-101799331D01*
X206929500Y-101863713D01*
X206929500Y-102076287D01*
X206962754Y-102286243D01*
X207024966Y-102477712D01*
X207028444Y-102488414D01*
X207124951Y-102677820D01*
X207249890Y-102849786D01*
X207400213Y-103000109D01*
X207572179Y-103125048D01*
X207572181Y-103125049D01*
X207572184Y-103125051D01*
X207618033Y-103148412D01*
X207711459Y-103196015D01*
X207762255Y-103243990D01*
X207779050Y-103311811D01*
X207756513Y-103377945D01*
X207701798Y-103421397D01*
X207655164Y-103430500D01*
X200606453Y-103430500D01*
X200539414Y-103410815D01*
X200518772Y-103394181D01*
X199965836Y-102841245D01*
X199932351Y-102779922D01*
X199937335Y-102710230D01*
X199979207Y-102654297D01*
X200034117Y-102631092D01*
X200172308Y-102609204D01*
X200216238Y-102602247D01*
X200216238Y-102602246D01*
X200216243Y-102602246D01*
X200418412Y-102536557D01*
X200607816Y-102440051D01*
X200629789Y-102424086D01*
X200779786Y-102315109D01*
X200779788Y-102315106D01*
X200779792Y-102315104D01*
X200930104Y-102164792D01*
X200930106Y-102164788D01*
X200930109Y-102164786D01*
X201055048Y-101992820D01*
X201055047Y-101992820D01*
X201055051Y-101992816D01*
X201141472Y-101823205D01*
X201189447Y-101772409D01*
X201251957Y-101755500D01*
X202788942Y-101755500D01*
X202855981Y-101775185D01*
X202894479Y-101814401D01*
X202977288Y-101948656D01*
X203101344Y-102072712D01*
X203250666Y-102164814D01*
X203417203Y-102219999D01*
X203519991Y-102230500D01*
X204520008Y-102230499D01*
X204520016Y-102230498D01*
X204520019Y-102230498D01*
X204586449Y-102223712D01*
X204622797Y-102219999D01*
X204789334Y-102164814D01*
X204938656Y-102072712D01*
X205062712Y-101948656D01*
X205154814Y-101799334D01*
X205209999Y-101632797D01*
X205220500Y-101530009D01*
X205220499Y-100729992D01*
X205219319Y-100718444D01*
X205209999Y-100627203D01*
X205209998Y-100627200D01*
X205193912Y-100578656D01*
X205154814Y-100460666D01*
X205062712Y-100311344D01*
X204938656Y-100187288D01*
X204789334Y-100095186D01*
X204622797Y-100040001D01*
X204622795Y-100040000D01*
X204520010Y-100029500D01*
X203519998Y-100029500D01*
X203519980Y-100029501D01*
X203417203Y-100040000D01*
X203417200Y-100040001D01*
X203250668Y-100095185D01*
X203250663Y-100095187D01*
X203101342Y-100187289D01*
X202977289Y-100311342D01*
X202967520Y-100327180D01*
X202904511Y-100429336D01*
X202894481Y-100445597D01*
X202842533Y-100492321D01*
X202788942Y-100504500D01*
X201221386Y-100504500D01*
X201154347Y-100484815D01*
X201110901Y-100436795D01*
X201076071Y-100368438D01*
X201055051Y-100327184D01*
X201042411Y-100309786D01*
X200930109Y-100155213D01*
X200779786Y-100004890D01*
X200607820Y-99879951D01*
X200418414Y-99783444D01*
X200418413Y-99783443D01*
X200418412Y-99783443D01*
X200216243Y-99717754D01*
X200216241Y-99717753D01*
X200216240Y-99717753D01*
X200054957Y-99692208D01*
X200006287Y-99684500D01*
X199793713Y-99684500D01*
X199745042Y-99692208D01*
X199583760Y-99717753D01*
X199381585Y-99783444D01*
X199192179Y-99879951D01*
X199020213Y-100004890D01*
X198869894Y-100155209D01*
X198869890Y-100155214D01*
X198750318Y-100319793D01*
X198694989Y-100362459D01*
X198625375Y-100368438D01*
X198563580Y-100335833D01*
X198549682Y-100319793D01*
X198430109Y-100155214D01*
X198430105Y-100155209D01*
X198279786Y-100004890D01*
X198107820Y-99879951D01*
X197918414Y-99783444D01*
X197918413Y-99783443D01*
X197918412Y-99783443D01*
X197716243Y-99717754D01*
X197716241Y-99717753D01*
X197716240Y-99717753D01*
X197554957Y-99692208D01*
X197506287Y-99684500D01*
X197293713Y-99684500D01*
X197254202Y-99690757D01*
X197083759Y-99717753D01*
X197083755Y-99717754D01*
X197011817Y-99741128D01*
X196941976Y-99743123D01*
X196882143Y-99707042D01*
X196851316Y-99644341D01*
X196849500Y-99623197D01*
X196849500Y-94896802D01*
X196869185Y-94829763D01*
X196921989Y-94784008D01*
X196991147Y-94774064D01*
X197011813Y-94778869D01*
X197083757Y-94802246D01*
X197293713Y-94835500D01*
X197293714Y-94835500D01*
X197506286Y-94835500D01*
X197506287Y-94835500D01*
X197716243Y-94802246D01*
X197918412Y-94736557D01*
X198107816Y-94640051D01*
X198129789Y-94624086D01*
X198279786Y-94515109D01*
X198279788Y-94515106D01*
X198279792Y-94515104D01*
X198430104Y-94364792D01*
X198549683Y-94200204D01*
X198605011Y-94157540D01*
X198674624Y-94151561D01*
X198736420Y-94184166D01*
X198750313Y-94200199D01*
X198861725Y-94353546D01*
X198869896Y-94364792D01*
X199020213Y-94515109D01*
X199192179Y-94640048D01*
X199192181Y-94640049D01*
X199192184Y-94640051D01*
X199381588Y-94736557D01*
X199583757Y-94802246D01*
X199793713Y-94835500D01*
X199793714Y-94835500D01*
X200006286Y-94835500D01*
X200006287Y-94835500D01*
X200216243Y-94802246D01*
X200418412Y-94736557D01*
X200607816Y-94640051D01*
X200629789Y-94624086D01*
X200779786Y-94515109D01*
X200779788Y-94515106D01*
X200779792Y-94515104D01*
X200930104Y-94364792D01*
X200930106Y-94364788D01*
X200930109Y-94364786D01*
X201055048Y-94192820D01*
X201055047Y-94192820D01*
X201055051Y-94192816D01*
X201151557Y-94003412D01*
X201217246Y-93801243D01*
X201229414Y-93724419D01*
X201231682Y-93710101D01*
X201261612Y-93646967D01*
X201320923Y-93610036D01*
X201354155Y-93605500D01*
X202688942Y-93605500D01*
X202755981Y-93625185D01*
X202794479Y-93664401D01*
X202877288Y-93798656D01*
X203001344Y-93922712D01*
X203150666Y-94014814D01*
X203317203Y-94069999D01*
X203419991Y-94080500D01*
X204420008Y-94080499D01*
X204420016Y-94080498D01*
X204420019Y-94080498D01*
X204476302Y-94074748D01*
X204522797Y-94069999D01*
X204689334Y-94014814D01*
X204838656Y-93922712D01*
X204962712Y-93798656D01*
X205054814Y-93649334D01*
X205109999Y-93482797D01*
X205120500Y-93380009D01*
X205120499Y-92579992D01*
X205118016Y-92555689D01*
X205109999Y-92477203D01*
X205109998Y-92477200D01*
X205075206Y-92372206D01*
X205054814Y-92310666D01*
X204962712Y-92161344D01*
X204838656Y-92037288D01*
X204697442Y-91950187D01*
X204689336Y-91945187D01*
X204689331Y-91945185D01*
X204687862Y-91944698D01*
X204522797Y-91890001D01*
X204522795Y-91890000D01*
X204420010Y-91879500D01*
X203419998Y-91879500D01*
X203419980Y-91879501D01*
X203317203Y-91890000D01*
X203317200Y-91890001D01*
X203150668Y-91945185D01*
X203150663Y-91945187D01*
X203001342Y-92037289D01*
X202877289Y-92161342D01*
X202877288Y-92161344D01*
X202799697Y-92287141D01*
X202794481Y-92295597D01*
X202742533Y-92342321D01*
X202688942Y-92354500D01*
X200980758Y-92354500D01*
X200913719Y-92334815D01*
X200893077Y-92318181D01*
X200779786Y-92204890D01*
X200607820Y-92079951D01*
X200418414Y-91983444D01*
X200418413Y-91983443D01*
X200418412Y-91983443D01*
X200216243Y-91917754D01*
X200216241Y-91917753D01*
X200216240Y-91917753D01*
X200054957Y-91892208D01*
X200006287Y-91884500D01*
X199793713Y-91884500D01*
X199745042Y-91892208D01*
X199583760Y-91917753D01*
X199381585Y-91983444D01*
X199192179Y-92079951D01*
X199020213Y-92204890D01*
X198869894Y-92355209D01*
X198869890Y-92355214D01*
X198750318Y-92519793D01*
X198694989Y-92562459D01*
X198625375Y-92568438D01*
X198563580Y-92535833D01*
X198549682Y-92519793D01*
X198430109Y-92355214D01*
X198430105Y-92355209D01*
X198279786Y-92204890D01*
X198107820Y-92079951D01*
X197918414Y-91983444D01*
X197918413Y-91983443D01*
X197918412Y-91983443D01*
X197716243Y-91917754D01*
X197716241Y-91917753D01*
X197716240Y-91917753D01*
X197554957Y-91892208D01*
X197506287Y-91884500D01*
X197293713Y-91884500D01*
X197245042Y-91892208D01*
X197083760Y-91917753D01*
X196881585Y-91983444D01*
X196692179Y-92079951D01*
X196520215Y-92204889D01*
X196381398Y-92343706D01*
X196320075Y-92377190D01*
X196250383Y-92372206D01*
X196194450Y-92330334D01*
X196188178Y-92321120D01*
X196167218Y-92287139D01*
X196092712Y-92166344D01*
X195968656Y-92042288D01*
X195819334Y-91950186D01*
X195735495Y-91922404D01*
X195678051Y-91882632D01*
X195651228Y-91818116D01*
X195650500Y-91804699D01*
X195650500Y-87115300D01*
X195670185Y-87048261D01*
X195722989Y-87002506D01*
X195735482Y-86997599D01*
X195819334Y-86969814D01*
X195968656Y-86877712D01*
X196092712Y-86753656D01*
X196184814Y-86604334D01*
X196184814Y-86604331D01*
X196188178Y-86598879D01*
X196240126Y-86552154D01*
X196309088Y-86540931D01*
X196373170Y-86568774D01*
X196381398Y-86576294D01*
X196520213Y-86715109D01*
X196692179Y-86840048D01*
X196692181Y-86840049D01*
X196692184Y-86840051D01*
X196881588Y-86936557D01*
X197083757Y-87002246D01*
X197293713Y-87035500D01*
X197293714Y-87035500D01*
X197506286Y-87035500D01*
X197506287Y-87035500D01*
X197716243Y-87002246D01*
X197918412Y-86936557D01*
X198107816Y-86840051D01*
X198131585Y-86822782D01*
X198279786Y-86715109D01*
X198279788Y-86715106D01*
X198279792Y-86715104D01*
X198430104Y-86564792D01*
X198549683Y-86400204D01*
X198605011Y-86357540D01*
X198674624Y-86351561D01*
X198736420Y-86384166D01*
X198750313Y-86400199D01*
X198832679Y-86513567D01*
X198869896Y-86564792D01*
X199020213Y-86715109D01*
X199192179Y-86840048D01*
X199192181Y-86840049D01*
X199192184Y-86840051D01*
X199381588Y-86936557D01*
X199583757Y-87002246D01*
X199793713Y-87035500D01*
X199793714Y-87035500D01*
X200006286Y-87035500D01*
X200006287Y-87035500D01*
X200216243Y-87002246D01*
X200418412Y-86936557D01*
X200607816Y-86840051D01*
X200631585Y-86822782D01*
X200779786Y-86715109D01*
X200779788Y-86715106D01*
X200779792Y-86715104D01*
X200930104Y-86564792D01*
X201023229Y-86436614D01*
X201078558Y-86393949D01*
X201123547Y-86385500D01*
X203038942Y-86385500D01*
X203105981Y-86405185D01*
X203144479Y-86444401D01*
X203227288Y-86578656D01*
X203351344Y-86702712D01*
X203500666Y-86794814D01*
X203667203Y-86849999D01*
X203769991Y-86860500D01*
X204770008Y-86860499D01*
X204770016Y-86860498D01*
X204770019Y-86860498D01*
X204855851Y-86851730D01*
X204872797Y-86849999D01*
X205039334Y-86794814D01*
X205188656Y-86702712D01*
X205312712Y-86578656D01*
X205404814Y-86429334D01*
X205459999Y-86262797D01*
X205470500Y-86160009D01*
X205470499Y-85359992D01*
X205459999Y-85257203D01*
X205404814Y-85090666D01*
X205312712Y-84941344D01*
X205188656Y-84817288D01*
X205043514Y-84727764D01*
X205039336Y-84725187D01*
X205039331Y-84725185D01*
X205019860Y-84718733D01*
X204872797Y-84670001D01*
X204872795Y-84670000D01*
X204770010Y-84659500D01*
X203769998Y-84659500D01*
X203769980Y-84659501D01*
X203667203Y-84670000D01*
X203667200Y-84670001D01*
X203500668Y-84725185D01*
X203500663Y-84725187D01*
X203351342Y-84817289D01*
X203227289Y-84941342D01*
X203227288Y-84941344D01*
X203152861Y-85062011D01*
X203144481Y-85075597D01*
X203092533Y-85122321D01*
X203038942Y-85134500D01*
X201312452Y-85134500D01*
X201245413Y-85114815D01*
X201199658Y-85062011D01*
X201194521Y-85048818D01*
X201151557Y-84916588D01*
X201055051Y-84727184D01*
X201055049Y-84727181D01*
X201055048Y-84727179D01*
X200930109Y-84555213D01*
X200779786Y-84404890D01*
X200607820Y-84279951D01*
X200418414Y-84183444D01*
X200418413Y-84183443D01*
X200418412Y-84183443D01*
X200216243Y-84117754D01*
X200216241Y-84117753D01*
X200216240Y-84117753D01*
X200054802Y-84092184D01*
X200006287Y-84084500D01*
X199793713Y-84084500D01*
X199745198Y-84092184D01*
X199583760Y-84117753D01*
X199583757Y-84117754D01*
X199401975Y-84176819D01*
X199381585Y-84183444D01*
X199192179Y-84279951D01*
X199020213Y-84404890D01*
X198869894Y-84555209D01*
X198869890Y-84555214D01*
X198750318Y-84719793D01*
X198694989Y-84762459D01*
X198625375Y-84768438D01*
X198563580Y-84735833D01*
X198549682Y-84719793D01*
X198430109Y-84555214D01*
X198430105Y-84555209D01*
X198279786Y-84404890D01*
X198107820Y-84279951D01*
X197918414Y-84183444D01*
X197918413Y-84183443D01*
X197918412Y-84183443D01*
X197716243Y-84117754D01*
X197716241Y-84117753D01*
X197716240Y-84117753D01*
X197554802Y-84092184D01*
X197506287Y-84084500D01*
X197293713Y-84084500D01*
X197245198Y-84092184D01*
X197083760Y-84117753D01*
X197083757Y-84117754D01*
X196901975Y-84176819D01*
X196881585Y-84183444D01*
X196692179Y-84279951D01*
X196520215Y-84404889D01*
X196381398Y-84543706D01*
X196320075Y-84577190D01*
X196250383Y-84572206D01*
X196194450Y-84530334D01*
X196188178Y-84521120D01*
X196092712Y-84366344D01*
X195968657Y-84242289D01*
X195968656Y-84242288D01*
X195828222Y-84155668D01*
X195819336Y-84150187D01*
X195819331Y-84150185D01*
X195816189Y-84149144D01*
X195735495Y-84122404D01*
X195678051Y-84082632D01*
X195651228Y-84018116D01*
X195650500Y-84004699D01*
X195650500Y-78588497D01*
X195670185Y-78521458D01*
X195722989Y-78475703D01*
X195735496Y-78470791D01*
X195741409Y-78468831D01*
X195889334Y-78419814D01*
X196038656Y-78327712D01*
X196162712Y-78203656D01*
X196254814Y-78054334D01*
X196309999Y-77887797D01*
X196320500Y-77785009D01*
X196320499Y-76778713D01*
X198619500Y-76778713D01*
X198619500Y-77241287D01*
X198629534Y-77304644D01*
X198644679Y-77400264D01*
X198652754Y-77451243D01*
X198662818Y-77482218D01*
X198718444Y-77653414D01*
X198814951Y-77842820D01*
X198939890Y-78014786D01*
X199090213Y-78165109D01*
X199262179Y-78290048D01*
X199262181Y-78290049D01*
X199262184Y-78290051D01*
X199451588Y-78386557D01*
X199653757Y-78452246D01*
X199863713Y-78485500D01*
X199863714Y-78485500D01*
X200076286Y-78485500D01*
X200076287Y-78485500D01*
X200286243Y-78452246D01*
X200488412Y-78386557D01*
X200677816Y-78290051D01*
X200734536Y-78248842D01*
X200849786Y-78165109D01*
X200849788Y-78165106D01*
X200849792Y-78165104D01*
X201000104Y-78014792D01*
X201000106Y-78014788D01*
X201000109Y-78014786D01*
X201110077Y-77863426D01*
X201125051Y-77842816D01*
X201221557Y-77653412D01*
X201287246Y-77451243D01*
X201320500Y-77241287D01*
X201320500Y-76778713D01*
X201287246Y-76568757D01*
X201221557Y-76366588D01*
X201125051Y-76177184D01*
X201125049Y-76177181D01*
X201125048Y-76177179D01*
X201000109Y-76005213D01*
X200849786Y-75854890D01*
X200677820Y-75729951D01*
X200488414Y-75633444D01*
X200488413Y-75633443D01*
X200488412Y-75633443D01*
X200286243Y-75567754D01*
X200286241Y-75567753D01*
X200286240Y-75567753D01*
X200124957Y-75542208D01*
X200076287Y-75534500D01*
X199863713Y-75534500D01*
X199815042Y-75542208D01*
X199653760Y-75567753D01*
X199451585Y-75633444D01*
X199262179Y-75729951D01*
X199090213Y-75854890D01*
X198939890Y-76005213D01*
X198814951Y-76177179D01*
X198718444Y-76366585D01*
X198652753Y-76568760D01*
X198635668Y-76676632D01*
X198619500Y-76778713D01*
X196320499Y-76778713D01*
X196320499Y-76234992D01*
X196309999Y-76132203D01*
X196254814Y-75965666D01*
X196162712Y-75816344D01*
X196038656Y-75692288D01*
X195933343Y-75627331D01*
X195889336Y-75600187D01*
X195889331Y-75600185D01*
X195887082Y-75599439D01*
X195805495Y-75572404D01*
X195748051Y-75532632D01*
X195721228Y-75468116D01*
X195720500Y-75454699D01*
X195720500Y-70215300D01*
X195740185Y-70148261D01*
X195792989Y-70102506D01*
X195805482Y-70097599D01*
X195889334Y-70069814D01*
X196038656Y-69977712D01*
X196162712Y-69853656D01*
X196254814Y-69704334D01*
X196309999Y-69537797D01*
X196320500Y-69435009D01*
X196320499Y-68428713D01*
X198619500Y-68428713D01*
X198619500Y-68891286D01*
X198642656Y-69037491D01*
X198652754Y-69101243D01*
X198689699Y-69214949D01*
X198718444Y-69303414D01*
X198814951Y-69492820D01*
X198939890Y-69664786D01*
X199090213Y-69815109D01*
X199262179Y-69940048D01*
X199262181Y-69940049D01*
X199262184Y-69940051D01*
X199451588Y-70036557D01*
X199653757Y-70102246D01*
X199863713Y-70135500D01*
X199863714Y-70135500D01*
X200076286Y-70135500D01*
X200076287Y-70135500D01*
X200286243Y-70102246D01*
X200488412Y-70036557D01*
X200677816Y-69940051D01*
X200740051Y-69894835D01*
X200849786Y-69815109D01*
X200849788Y-69815106D01*
X200849792Y-69815104D01*
X201000104Y-69664792D01*
X201000106Y-69664788D01*
X201000109Y-69664786D01*
X201125048Y-69492820D01*
X201125047Y-69492820D01*
X201125051Y-69492816D01*
X201221557Y-69303412D01*
X201287246Y-69101243D01*
X201320500Y-68891287D01*
X201320500Y-68428713D01*
X201287246Y-68218757D01*
X201221557Y-68016588D01*
X201125051Y-67827184D01*
X201125049Y-67827181D01*
X201125048Y-67827179D01*
X201000109Y-67655213D01*
X200849786Y-67504890D01*
X200677820Y-67379951D01*
X200488414Y-67283444D01*
X200488413Y-67283443D01*
X200488412Y-67283443D01*
X200286243Y-67217754D01*
X200286241Y-67217753D01*
X200286240Y-67217753D01*
X200124957Y-67192208D01*
X200076287Y-67184500D01*
X199863713Y-67184500D01*
X199815042Y-67192208D01*
X199653760Y-67217753D01*
X199451585Y-67283444D01*
X199262179Y-67379951D01*
X199090213Y-67504890D01*
X198939890Y-67655213D01*
X198814951Y-67827179D01*
X198718444Y-68016585D01*
X198652753Y-68218760D01*
X198619500Y-68428713D01*
X196320499Y-68428713D01*
X196320499Y-67884992D01*
X196309999Y-67782203D01*
X196254814Y-67615666D01*
X196162712Y-67466344D01*
X196038656Y-67342288D01*
X195943253Y-67283443D01*
X195889336Y-67250187D01*
X195889331Y-67250185D01*
X195879719Y-67247000D01*
X195805495Y-67222404D01*
X195748051Y-67182632D01*
X195721228Y-67118116D01*
X195720500Y-67104699D01*
X195720500Y-61905300D01*
X195740185Y-61838261D01*
X195792989Y-61792506D01*
X195805482Y-61787599D01*
X195889334Y-61759814D01*
X196038656Y-61667712D01*
X196162712Y-61543656D01*
X196254814Y-61394334D01*
X196309999Y-61227797D01*
X196320500Y-61125009D01*
X196320499Y-60118713D01*
X198619500Y-60118713D01*
X198619500Y-60581286D01*
X198652753Y-60791239D01*
X198718444Y-60993414D01*
X198814951Y-61182820D01*
X198939890Y-61354786D01*
X199090213Y-61505109D01*
X199262181Y-61630050D01*
X199276792Y-61637494D01*
X199327589Y-61685467D01*
X199344500Y-61747980D01*
X199344500Y-64421611D01*
X199368535Y-64542444D01*
X199368540Y-64542461D01*
X199415685Y-64656280D01*
X199415687Y-64656283D01*
X199415688Y-64656286D01*
X199449915Y-64707509D01*
X199484142Y-64758733D01*
X199571267Y-64845858D01*
X199571269Y-64845859D01*
X199581232Y-64855822D01*
X204054205Y-69328796D01*
X204087690Y-69390119D01*
X204088141Y-69392286D01*
X204110261Y-69503489D01*
X204110264Y-69503501D01*
X204170602Y-69649172D01*
X204170609Y-69649185D01*
X204258210Y-69780288D01*
X204258213Y-69780292D01*
X204369707Y-69891786D01*
X204369711Y-69891789D01*
X204500814Y-69979390D01*
X204500827Y-69979397D01*
X204574824Y-70010047D01*
X204646503Y-70039737D01*
X204797699Y-70069812D01*
X204801153Y-70070499D01*
X204801156Y-70070500D01*
X204801158Y-70070500D01*
X204958844Y-70070500D01*
X204958845Y-70070499D01*
X205113497Y-70039737D01*
X205259179Y-69979394D01*
X205390289Y-69891789D01*
X205501789Y-69780289D01*
X205589394Y-69649179D01*
X205649737Y-69503497D01*
X205680500Y-69348842D01*
X205680500Y-69191158D01*
X205680500Y-69191155D01*
X205680499Y-69191153D01*
X205663424Y-69105312D01*
X205649737Y-69036503D01*
X205637542Y-69007061D01*
X205589397Y-68890827D01*
X205589390Y-68890814D01*
X205501789Y-68759711D01*
X205501786Y-68759707D01*
X205390292Y-68648213D01*
X205390288Y-68648210D01*
X205259185Y-68560609D01*
X205259172Y-68560602D01*
X205113501Y-68500264D01*
X205113489Y-68500261D01*
X205002286Y-68478141D01*
X204940375Y-68445756D01*
X204938796Y-68444205D01*
X200631819Y-64137228D01*
X200598334Y-64075905D01*
X200595500Y-64049547D01*
X200595500Y-61842135D01*
X205929500Y-61842135D01*
X205929500Y-63637870D01*
X205929501Y-63637876D01*
X205935908Y-63697483D01*
X205986202Y-63832328D01*
X205986206Y-63832335D01*
X206072452Y-63947544D01*
X206072455Y-63947547D01*
X206187664Y-64033793D01*
X206187671Y-64033797D01*
X206319082Y-64082810D01*
X206375016Y-64124681D01*
X206399433Y-64190145D01*
X206384582Y-64258418D01*
X206363431Y-64286673D01*
X206249889Y-64400215D01*
X206124951Y-64572179D01*
X206028444Y-64761585D01*
X205962753Y-64963760D01*
X205929500Y-65173713D01*
X205929500Y-65386287D01*
X205962754Y-65596243D01*
X205966003Y-65606243D01*
X206028444Y-65798414D01*
X206124951Y-65987820D01*
X206249890Y-66159786D01*
X206400213Y-66310109D01*
X206572179Y-66435048D01*
X206572181Y-66435049D01*
X206572184Y-66435051D01*
X206761588Y-66531557D01*
X206963757Y-66597246D01*
X207173713Y-66630500D01*
X207173714Y-66630500D01*
X207386286Y-66630500D01*
X207386287Y-66630500D01*
X207596243Y-66597246D01*
X207798412Y-66531557D01*
X207987816Y-66435051D01*
X208009789Y-66419086D01*
X208159786Y-66310109D01*
X208159788Y-66310106D01*
X208159792Y-66310104D01*
X208310104Y-66159792D01*
X208310106Y-66159788D01*
X208310109Y-66159786D01*
X208435048Y-65987820D01*
X208435047Y-65987820D01*
X208435051Y-65987816D01*
X208531557Y-65798412D01*
X208597246Y-65596243D01*
X208630500Y-65386287D01*
X208630500Y-65173713D01*
X208597246Y-64963757D01*
X208531557Y-64761588D01*
X208435051Y-64572184D01*
X208435049Y-64572181D01*
X208435048Y-64572179D01*
X208310109Y-64400213D01*
X208196569Y-64286673D01*
X208163084Y-64225350D01*
X208168068Y-64155658D01*
X208209940Y-64099725D01*
X208240915Y-64082810D01*
X208372331Y-64033796D01*
X208487546Y-63947546D01*
X208573796Y-63832331D01*
X208624091Y-63697483D01*
X208630500Y-63637873D01*
X208630499Y-61842128D01*
X208624091Y-61782517D01*
X208615623Y-61759814D01*
X208573797Y-61647671D01*
X208573793Y-61647664D01*
X208487547Y-61532455D01*
X208487544Y-61532452D01*
X208372335Y-61446206D01*
X208372328Y-61446202D01*
X208237482Y-61395908D01*
X208237483Y-61395908D01*
X208177883Y-61389501D01*
X208177881Y-61389500D01*
X208177873Y-61389500D01*
X208177864Y-61389500D01*
X206382129Y-61389500D01*
X206382123Y-61389501D01*
X206322516Y-61395908D01*
X206187671Y-61446202D01*
X206187664Y-61446206D01*
X206072455Y-61532452D01*
X206072452Y-61532455D01*
X205986206Y-61647664D01*
X205986202Y-61647671D01*
X205935908Y-61782517D01*
X205929501Y-61842116D01*
X205929501Y-61842123D01*
X205929500Y-61842135D01*
X200595500Y-61842135D01*
X200595500Y-61747980D01*
X200615185Y-61680941D01*
X200663208Y-61637494D01*
X200677818Y-61630050D01*
X200849786Y-61505109D01*
X200849788Y-61505106D01*
X200849792Y-61505104D01*
X201000104Y-61354792D01*
X201000106Y-61354788D01*
X201000109Y-61354786D01*
X201125048Y-61182820D01*
X201125047Y-61182820D01*
X201125051Y-61182816D01*
X201221557Y-60993412D01*
X201287246Y-60791243D01*
X201320500Y-60581287D01*
X201320500Y-60118713D01*
X201287246Y-59908757D01*
X201221557Y-59706588D01*
X201125051Y-59517184D01*
X201125049Y-59517181D01*
X201125048Y-59517179D01*
X201000109Y-59345213D01*
X200849786Y-59194890D01*
X200677820Y-59069951D01*
X200488414Y-58973444D01*
X200488413Y-58973443D01*
X200488412Y-58973443D01*
X200286243Y-58907754D01*
X200286241Y-58907753D01*
X200286240Y-58907753D01*
X200124957Y-58882208D01*
X200076287Y-58874500D01*
X199863713Y-58874500D01*
X199815042Y-58882208D01*
X199653760Y-58907753D01*
X199653757Y-58907754D01*
X199504389Y-58956287D01*
X199451585Y-58973444D01*
X199262179Y-59069951D01*
X199090213Y-59194890D01*
X198939890Y-59345213D01*
X198814951Y-59517179D01*
X198718444Y-59706585D01*
X198718443Y-59706587D01*
X198718443Y-59706588D01*
X198698055Y-59769336D01*
X198652753Y-59908760D01*
X198619500Y-60118713D01*
X196320499Y-60118713D01*
X196320499Y-59574992D01*
X196318744Y-59557816D01*
X196309999Y-59472203D01*
X196309998Y-59472200D01*
X196292698Y-59419992D01*
X196254814Y-59305666D01*
X196162712Y-59156344D01*
X196038656Y-59032288D01*
X195915438Y-58956287D01*
X195889336Y-58940187D01*
X195889331Y-58940185D01*
X195887862Y-58939698D01*
X195722797Y-58885001D01*
X195722795Y-58885000D01*
X195620010Y-58874500D01*
X194319998Y-58874500D01*
X194319981Y-58874501D01*
X194217203Y-58885000D01*
X194217200Y-58885001D01*
X194050668Y-58940185D01*
X194050663Y-58940187D01*
X193901342Y-59032289D01*
X193777289Y-59156342D01*
X193685187Y-59305663D01*
X193685185Y-59305668D01*
X193672083Y-59345208D01*
X193630001Y-59472203D01*
X193630001Y-59472204D01*
X193630000Y-59472204D01*
X193619500Y-59574983D01*
X193619500Y-61125001D01*
X193619501Y-61125018D01*
X193630000Y-61227796D01*
X193630001Y-61227799D01*
X193650391Y-61289331D01*
X193685186Y-61394334D01*
X193777288Y-61543656D01*
X193901344Y-61667712D01*
X194050666Y-61759814D01*
X194134505Y-61787595D01*
X194191948Y-61827366D01*
X194218772Y-61891882D01*
X194219500Y-61905300D01*
X194219500Y-67104699D01*
X194199815Y-67171738D01*
X194147011Y-67217493D01*
X194134507Y-67222403D01*
X194101962Y-67233188D01*
X194050668Y-67250185D01*
X194050663Y-67250187D01*
X193901342Y-67342289D01*
X193777289Y-67466342D01*
X193685187Y-67615663D01*
X193685186Y-67615666D01*
X193630001Y-67782203D01*
X193630001Y-67782204D01*
X193630000Y-67782204D01*
X193619500Y-67884983D01*
X193619500Y-69435001D01*
X193619501Y-69435018D01*
X193630000Y-69537796D01*
X193630001Y-69537799D01*
X193685185Y-69704331D01*
X193685187Y-69704336D01*
X193709960Y-69744500D01*
X193777288Y-69853656D01*
X193901344Y-69977712D01*
X194050666Y-70069814D01*
X194134505Y-70097595D01*
X194191948Y-70137366D01*
X194218772Y-70201882D01*
X194219500Y-70215300D01*
X194219500Y-75454699D01*
X194199815Y-75521738D01*
X194147011Y-75567493D01*
X194134507Y-75572403D01*
X194101962Y-75583188D01*
X194050668Y-75600185D01*
X194050663Y-75600187D01*
X193901342Y-75692289D01*
X193777289Y-75816342D01*
X193685187Y-75965663D01*
X193685186Y-75965666D01*
X193630001Y-76132203D01*
X193630001Y-76132204D01*
X193630000Y-76132204D01*
X193619500Y-76234983D01*
X193619500Y-77785001D01*
X193619501Y-77785018D01*
X193630000Y-77887796D01*
X193630001Y-77887799D01*
X193662029Y-77984451D01*
X193685186Y-78054334D01*
X193777288Y-78203656D01*
X193901344Y-78327712D01*
X194050666Y-78419814D01*
X194064505Y-78424399D01*
X194121949Y-78464172D01*
X194148772Y-78528687D01*
X194149500Y-78542105D01*
X194149500Y-84004699D01*
X194129815Y-84071738D01*
X194077011Y-84117493D01*
X194064507Y-84122403D01*
X194031962Y-84133188D01*
X193980668Y-84150185D01*
X193980663Y-84150187D01*
X193831342Y-84242289D01*
X193707289Y-84366342D01*
X193615187Y-84515663D01*
X193615185Y-84515668D01*
X193610325Y-84530334D01*
X193560001Y-84682203D01*
X193560001Y-84682204D01*
X193560000Y-84682204D01*
X193549500Y-84784983D01*
X193549500Y-86335001D01*
X193549501Y-86335018D01*
X193560000Y-86437796D01*
X193560001Y-86437799D01*
X193615185Y-86604331D01*
X193615187Y-86604336D01*
X193634645Y-86635883D01*
X193707288Y-86753656D01*
X193831344Y-86877712D01*
X193980666Y-86969814D01*
X194064505Y-86997595D01*
X194121948Y-87037366D01*
X194148772Y-87101882D01*
X194149500Y-87115300D01*
X194149500Y-91804699D01*
X194129815Y-91871738D01*
X194077011Y-91917493D01*
X194064507Y-91922403D01*
X194031962Y-91933188D01*
X193980668Y-91950185D01*
X193980663Y-91950187D01*
X193831342Y-92042289D01*
X193707289Y-92166342D01*
X193615187Y-92315663D01*
X193615185Y-92315668D01*
X193599568Y-92362798D01*
X193560001Y-92482203D01*
X193560001Y-92482204D01*
X193560000Y-92482204D01*
X193549500Y-92584983D01*
X193549500Y-94135001D01*
X193549501Y-94135018D01*
X193560000Y-94237796D01*
X193560001Y-94237799D01*
X193615185Y-94404331D01*
X193615186Y-94404334D01*
X193707288Y-94553656D01*
X193831344Y-94677712D01*
X193980666Y-94769814D01*
X194064505Y-94797595D01*
X194121948Y-94837366D01*
X194148772Y-94901882D01*
X194149500Y-94915300D01*
X194149500Y-99604699D01*
X194129815Y-99671738D01*
X194077011Y-99717493D01*
X194064507Y-99722403D01*
X194031962Y-99733188D01*
X193980668Y-99750185D01*
X193980663Y-99750187D01*
X193831342Y-99842289D01*
X193707289Y-99966342D01*
X193615187Y-100115663D01*
X193615186Y-100115666D01*
X193560001Y-100282203D01*
X193560001Y-100282204D01*
X193560000Y-100282204D01*
X193549500Y-100384983D01*
X193549500Y-101935001D01*
X193549501Y-101935018D01*
X193560000Y-102037796D01*
X193560001Y-102037799D01*
X193615185Y-102204331D01*
X193615187Y-102204336D01*
X193631325Y-102230500D01*
X193707288Y-102353656D01*
X193831344Y-102477712D01*
X193980666Y-102569814D01*
X194147203Y-102624999D01*
X194249991Y-102635500D01*
X195550008Y-102635499D01*
X195652797Y-102624999D01*
X195819334Y-102569814D01*
X195932433Y-102500054D01*
X195999822Y-102481615D01*
X196066486Y-102502537D01*
X196085208Y-102517913D01*
X198560147Y-104992854D01*
X198560150Y-104992857D01*
X198611375Y-105027084D01*
X198662599Y-105061311D01*
X198776433Y-105108463D01*
X198897273Y-105132499D01*
X198897277Y-105132500D01*
X198897278Y-105132500D01*
X228434607Y-105132500D01*
X228495029Y-105120481D01*
X228555452Y-105108463D01*
X228588792Y-105094652D01*
X228669286Y-105061312D01*
X228720509Y-105027084D01*
X228771733Y-104992858D01*
X228858858Y-104905733D01*
X228858859Y-104905731D01*
X228865925Y-104898665D01*
X228865928Y-104898661D01*
X230213436Y-103551153D01*
X232999500Y-103551153D01*
X232999500Y-103708846D01*
X233030261Y-103863489D01*
X233030264Y-103863501D01*
X233090602Y-104009172D01*
X233090609Y-104009185D01*
X233178210Y-104140288D01*
X233178213Y-104140292D01*
X233289707Y-104251786D01*
X233289711Y-104251789D01*
X233420814Y-104339390D01*
X233420827Y-104339397D01*
X233566498Y-104399735D01*
X233566503Y-104399737D01*
X233721153Y-104430499D01*
X233721156Y-104430500D01*
X233721158Y-104430500D01*
X233878844Y-104430500D01*
X233878845Y-104430499D01*
X234033497Y-104399737D01*
X234179179Y-104339394D01*
X234310289Y-104251789D01*
X234421789Y-104140289D01*
X234509394Y-104009179D01*
X234569737Y-103863497D01*
X234589113Y-103766085D01*
X234600638Y-103708150D01*
X234633023Y-103646239D01*
X234634519Y-103644715D01*
X237382416Y-100896817D01*
X237443739Y-100863333D01*
X237470097Y-100860499D01*
X238070002Y-100860499D01*
X238070008Y-100860499D01*
X238172797Y-100849999D01*
X238339334Y-100794814D01*
X238488656Y-100702712D01*
X238612712Y-100578656D01*
X238704814Y-100429334D01*
X238759999Y-100262797D01*
X238770500Y-100160009D01*
X238770499Y-99359992D01*
X238759999Y-99257203D01*
X238704814Y-99090666D01*
X238612712Y-98941344D01*
X238488656Y-98817288D01*
X238339334Y-98725186D01*
X238255495Y-98697404D01*
X238198051Y-98657632D01*
X238171228Y-98593116D01*
X238170500Y-98579699D01*
X238170500Y-98071395D01*
X238190185Y-98004356D01*
X238238203Y-97960911D01*
X238418845Y-97868870D01*
X238622656Y-97720793D01*
X238800793Y-97542656D01*
X238948870Y-97338845D01*
X239063241Y-97114379D01*
X239141090Y-96874785D01*
X239180500Y-96625962D01*
X239180500Y-96374038D01*
X239141090Y-96125215D01*
X239063241Y-95885621D01*
X239063239Y-95885618D01*
X239063239Y-95885616D01*
X239020546Y-95801827D01*
X238948870Y-95661155D01*
X238873554Y-95557491D01*
X238800798Y-95457350D01*
X238800794Y-95457345D01*
X238622654Y-95279205D01*
X238622649Y-95279201D01*
X238418848Y-95131132D01*
X238418847Y-95131131D01*
X238418845Y-95131130D01*
X238348747Y-95095413D01*
X238194383Y-95016760D01*
X237954785Y-94938910D01*
X237805718Y-94915300D01*
X237705962Y-94899500D01*
X237454038Y-94899500D01*
X237354282Y-94915300D01*
X237205214Y-94938910D01*
X236965616Y-95016760D01*
X236741151Y-95131132D01*
X236537350Y-95279201D01*
X236537345Y-95279205D01*
X236359205Y-95457345D01*
X236359201Y-95457350D01*
X236211132Y-95661151D01*
X236096760Y-95885616D01*
X236038405Y-96065215D01*
X236018910Y-96125215D01*
X235979500Y-96374038D01*
X235979500Y-96625962D01*
X236009407Y-96814785D01*
X236018910Y-96874785D01*
X236096760Y-97114383D01*
X236211132Y-97338848D01*
X236359201Y-97542649D01*
X236359205Y-97542654D01*
X236537345Y-97720794D01*
X236537350Y-97720798D01*
X236741153Y-97868869D01*
X236741155Y-97868870D01*
X236901795Y-97950720D01*
X236952591Y-97998693D01*
X236969500Y-98061204D01*
X236969500Y-98579699D01*
X236949815Y-98646738D01*
X236897011Y-98692493D01*
X236884507Y-98697403D01*
X236861517Y-98705022D01*
X236800668Y-98725185D01*
X236800663Y-98725187D01*
X236651342Y-98817289D01*
X236527289Y-98941342D01*
X236435187Y-99090663D01*
X236435185Y-99090668D01*
X236418617Y-99140668D01*
X236380001Y-99257203D01*
X236380001Y-99257204D01*
X236380000Y-99257204D01*
X236369500Y-99359983D01*
X236369500Y-100159901D01*
X236349815Y-100226940D01*
X236333181Y-100247582D01*
X233785339Y-102795425D01*
X233724016Y-102828910D01*
X233721850Y-102829361D01*
X233566508Y-102860261D01*
X233566498Y-102860264D01*
X233420827Y-102920602D01*
X233420814Y-102920609D01*
X233289711Y-103008210D01*
X233289707Y-103008213D01*
X233178213Y-103119707D01*
X233178210Y-103119711D01*
X233090609Y-103250814D01*
X233090602Y-103250827D01*
X233030264Y-103396498D01*
X233030261Y-103396510D01*
X232999500Y-103551153D01*
X230213436Y-103551153D01*
X232817771Y-100946818D01*
X232879094Y-100913333D01*
X232905452Y-100910499D01*
X233570002Y-100910499D01*
X233570008Y-100910499D01*
X233672797Y-100899999D01*
X233839334Y-100844814D01*
X233988656Y-100752712D01*
X234112712Y-100628656D01*
X234204814Y-100479334D01*
X234259999Y-100312797D01*
X234270500Y-100210009D01*
X234270499Y-99409992D01*
X234265391Y-99359992D01*
X234259999Y-99307203D01*
X234259998Y-99307200D01*
X234243431Y-99257204D01*
X234204814Y-99140666D01*
X234112712Y-98991344D01*
X233988656Y-98867288D01*
X233839334Y-98775186D01*
X233780493Y-98755688D01*
X233723051Y-98715916D01*
X233696228Y-98651400D01*
X233695500Y-98637983D01*
X233695500Y-98043371D01*
X233715185Y-97976332D01*
X233763206Y-97932886D01*
X233773722Y-97927528D01*
X233888845Y-97868870D01*
X234092656Y-97720793D01*
X234270793Y-97542656D01*
X234418870Y-97338845D01*
X234533241Y-97114379D01*
X234611090Y-96874785D01*
X234650500Y-96625962D01*
X234650500Y-96374038D01*
X234611090Y-96125215D01*
X234533241Y-95885621D01*
X234533239Y-95885618D01*
X234533239Y-95885616D01*
X234490546Y-95801827D01*
X234418870Y-95661155D01*
X234343554Y-95557491D01*
X234270798Y-95457350D01*
X234270794Y-95457345D01*
X234092654Y-95279205D01*
X234092649Y-95279201D01*
X233888848Y-95131132D01*
X233888847Y-95131131D01*
X233888845Y-95131130D01*
X233818747Y-95095413D01*
X233664383Y-95016760D01*
X233424785Y-94938910D01*
X233275718Y-94915300D01*
X233175962Y-94899500D01*
X232924038Y-94899500D01*
X232824282Y-94915300D01*
X232675214Y-94938910D01*
X232435616Y-95016760D01*
X232211151Y-95131132D01*
X232007350Y-95279201D01*
X232007345Y-95279205D01*
X231829205Y-95457345D01*
X231829201Y-95457350D01*
X231681132Y-95661151D01*
X231566760Y-95885616D01*
X231508405Y-96065215D01*
X231488910Y-96125215D01*
X231449500Y-96374038D01*
X231449500Y-96625962D01*
X231479407Y-96814785D01*
X231488910Y-96874785D01*
X231566760Y-97114383D01*
X231681132Y-97338848D01*
X231829201Y-97542649D01*
X231829205Y-97542654D01*
X232007345Y-97720794D01*
X232007350Y-97720798D01*
X232211153Y-97868869D01*
X232211155Y-97868870D01*
X232311717Y-97920109D01*
X232376794Y-97953267D01*
X232427591Y-98001241D01*
X232444500Y-98063752D01*
X232444500Y-98637983D01*
X232424815Y-98705022D01*
X232372011Y-98750777D01*
X232359510Y-98755686D01*
X232300666Y-98775186D01*
X232300663Y-98775187D01*
X232151342Y-98867289D01*
X232027289Y-98991342D01*
X231935187Y-99140663D01*
X231935186Y-99140666D01*
X231880001Y-99307203D01*
X231880001Y-99307204D01*
X231880000Y-99307204D01*
X231869500Y-99409983D01*
X231869500Y-100074547D01*
X231849815Y-100141586D01*
X231833181Y-100162228D01*
X228150229Y-103845181D01*
X228088906Y-103878666D01*
X228062548Y-103881500D01*
X225352452Y-103881500D01*
X225285413Y-103861815D01*
X225239658Y-103809011D01*
X225229714Y-103739853D01*
X225258739Y-103676297D01*
X225264771Y-103669819D01*
X228207771Y-100726818D01*
X228269094Y-100693333D01*
X228295452Y-100690499D01*
X228960002Y-100690499D01*
X228960008Y-100690499D01*
X229062797Y-100679999D01*
X229229334Y-100624814D01*
X229378656Y-100532712D01*
X229502712Y-100408656D01*
X229594814Y-100259334D01*
X229649999Y-100092797D01*
X229660500Y-99990009D01*
X229660499Y-99189992D01*
X229649999Y-99087203D01*
X229594814Y-98920666D01*
X229502712Y-98771344D01*
X229378656Y-98647288D01*
X229229334Y-98555186D01*
X229170493Y-98535688D01*
X229113051Y-98495916D01*
X229086228Y-98431400D01*
X229085500Y-98417983D01*
X229085500Y-98045460D01*
X229105185Y-97978421D01*
X229157989Y-97932666D01*
X229171180Y-97927529D01*
X229184379Y-97923241D01*
X229408845Y-97808870D01*
X229612656Y-97660793D01*
X229790793Y-97482656D01*
X229938870Y-97278845D01*
X230053241Y-97054379D01*
X230131090Y-96814785D01*
X230170500Y-96565962D01*
X230170500Y-96314038D01*
X230131090Y-96065215D01*
X230053241Y-95825621D01*
X230053239Y-95825618D01*
X230053239Y-95825616D01*
X229969439Y-95661151D01*
X229938870Y-95601155D01*
X229869046Y-95505050D01*
X229790798Y-95397350D01*
X229790794Y-95397345D01*
X229612654Y-95219205D01*
X229612649Y-95219201D01*
X229408848Y-95071132D01*
X229408847Y-95071131D01*
X229408845Y-95071130D01*
X229302136Y-95016759D01*
X229184383Y-94956760D01*
X228944785Y-94878910D01*
X228878516Y-94868414D01*
X228695962Y-94839500D01*
X228444038Y-94839500D01*
X228332671Y-94857139D01*
X228195214Y-94878910D01*
X227955616Y-94956760D01*
X227731151Y-95071132D01*
X227527350Y-95219201D01*
X227527345Y-95219205D01*
X227349205Y-95397345D01*
X227349201Y-95397350D01*
X227201132Y-95601151D01*
X227086760Y-95825616D01*
X227008910Y-96065214D01*
X226969500Y-96314038D01*
X226969500Y-96565961D01*
X227008910Y-96814785D01*
X227086760Y-97054383D01*
X227201132Y-97278848D01*
X227349201Y-97482649D01*
X227349205Y-97482654D01*
X227527345Y-97660794D01*
X227527350Y-97660798D01*
X227728614Y-97807024D01*
X227731155Y-97808870D01*
X227766795Y-97827029D01*
X227817590Y-97875001D01*
X227834500Y-97937513D01*
X227834500Y-98417983D01*
X227814815Y-98485022D01*
X227762011Y-98530777D01*
X227749510Y-98535686D01*
X227690666Y-98555186D01*
X227690663Y-98555187D01*
X227541342Y-98647289D01*
X227417289Y-98771342D01*
X227325187Y-98920663D01*
X227325185Y-98920668D01*
X227318334Y-98941344D01*
X227270001Y-99087203D01*
X227270001Y-99087204D01*
X227270000Y-99087204D01*
X227259500Y-99189983D01*
X227259500Y-99854547D01*
X227239815Y-99921586D01*
X227223181Y-99942228D01*
X225082181Y-102083228D01*
X225020858Y-102116713D01*
X224951166Y-102111729D01*
X224895233Y-102069857D01*
X224870816Y-102004393D01*
X224870500Y-101995547D01*
X224870500Y-101863713D01*
X224860949Y-101803412D01*
X224837246Y-101653757D01*
X224771557Y-101451588D01*
X224675051Y-101262184D01*
X224675049Y-101262181D01*
X224675048Y-101262179D01*
X224550109Y-101090213D01*
X224399786Y-100939890D01*
X224227820Y-100814951D01*
X224038414Y-100718444D01*
X224038413Y-100718443D01*
X224038412Y-100718443D01*
X223836243Y-100652754D01*
X223836241Y-100652753D01*
X223836240Y-100652753D01*
X223659825Y-100624812D01*
X223626287Y-100619500D01*
X223413713Y-100619500D01*
X223380175Y-100624812D01*
X223203760Y-100652753D01*
X223001585Y-100718444D01*
X222812179Y-100814951D01*
X222640213Y-100939890D01*
X222489890Y-101090213D01*
X222364951Y-101262179D01*
X222268444Y-101451585D01*
X222202753Y-101653760D01*
X222179697Y-101799331D01*
X222169500Y-101863713D01*
X222169500Y-102076287D01*
X222202754Y-102286243D01*
X222264966Y-102477712D01*
X222268444Y-102488414D01*
X222364951Y-102677820D01*
X222489890Y-102849786D01*
X222640213Y-103000109D01*
X222812179Y-103125048D01*
X222812181Y-103125049D01*
X222812184Y-103125051D01*
X222858033Y-103148412D01*
X222951459Y-103196015D01*
X223002255Y-103243990D01*
X223019050Y-103311811D01*
X222996513Y-103377945D01*
X222941798Y-103421397D01*
X222895164Y-103430500D01*
X217882439Y-103430500D01*
X217815400Y-103410815D01*
X217769645Y-103358011D01*
X217759081Y-103293895D01*
X217759596Y-103288853D01*
X217760500Y-103280009D01*
X217760499Y-101679992D01*
X217749999Y-101577203D01*
X217694814Y-101410666D01*
X217602712Y-101261344D01*
X217478656Y-101137288D01*
X217329334Y-101045186D01*
X217162797Y-100990001D01*
X217162795Y-100990000D01*
X217060010Y-100979500D01*
X215759998Y-100979500D01*
X215759981Y-100979501D01*
X215657203Y-100990000D01*
X215657200Y-100990001D01*
X215490668Y-101045185D01*
X215490663Y-101045187D01*
X215341342Y-101137289D01*
X215217289Y-101261342D01*
X215121821Y-101416121D01*
X215069873Y-101462845D01*
X215000910Y-101474068D01*
X214936828Y-101446224D01*
X214928601Y-101438705D01*
X214789786Y-101299890D01*
X214617820Y-101174951D01*
X214428414Y-101078444D01*
X214428413Y-101078443D01*
X214428412Y-101078443D01*
X214226243Y-101012754D01*
X214226241Y-101012753D01*
X214226240Y-101012753D01*
X214064957Y-100987208D01*
X214016287Y-100979500D01*
X213803713Y-100979500D01*
X213671358Y-101000462D01*
X213602065Y-100991507D01*
X213548613Y-100946510D01*
X213527974Y-100879759D01*
X213546699Y-100812445D01*
X213564275Y-100790313D01*
X220582771Y-93771819D01*
X220644094Y-93738334D01*
X220670452Y-93735500D01*
X222128993Y-93735500D01*
X222196032Y-93755185D01*
X222241787Y-93807989D01*
X222251731Y-93877147D01*
X222246925Y-93897812D01*
X222231063Y-93946631D01*
X222202753Y-94033760D01*
X222169500Y-94243713D01*
X222169500Y-94456286D01*
X222198605Y-94640051D01*
X222202754Y-94666243D01*
X222267077Y-94864209D01*
X222268444Y-94868414D01*
X222364951Y-95057820D01*
X222489890Y-95229786D01*
X222640213Y-95380109D01*
X222812182Y-95505050D01*
X222820946Y-95509516D01*
X222871742Y-95557491D01*
X222888536Y-95625312D01*
X222865998Y-95691447D01*
X222820946Y-95730484D01*
X222812182Y-95734949D01*
X222640213Y-95859890D01*
X222489890Y-96010213D01*
X222364951Y-96182179D01*
X222268444Y-96371585D01*
X222202753Y-96573760D01*
X222194485Y-96625962D01*
X222169500Y-96783713D01*
X222169500Y-96996287D01*
X222202754Y-97206243D01*
X222245840Y-97338848D01*
X222268444Y-97408414D01*
X222364951Y-97597820D01*
X222489890Y-97769786D01*
X222640213Y-97920109D01*
X222812179Y-98045048D01*
X222812181Y-98045049D01*
X222812184Y-98045051D01*
X223001588Y-98141557D01*
X223203757Y-98207246D01*
X223413713Y-98240500D01*
X223413714Y-98240500D01*
X223626286Y-98240500D01*
X223626287Y-98240500D01*
X223836243Y-98207246D01*
X224038412Y-98141557D01*
X224227816Y-98045051D01*
X224302213Y-97990999D01*
X224399786Y-97920109D01*
X224399788Y-97920106D01*
X224399792Y-97920104D01*
X224550104Y-97769792D01*
X224550106Y-97769788D01*
X224550109Y-97769786D01*
X224675048Y-97597820D01*
X224675047Y-97597820D01*
X224675051Y-97597816D01*
X224771557Y-97408412D01*
X224837246Y-97206243D01*
X224870500Y-96996287D01*
X224870500Y-96783713D01*
X224837246Y-96573757D01*
X224771557Y-96371588D01*
X224675051Y-96182184D01*
X224675049Y-96182181D01*
X224675048Y-96182179D01*
X224550109Y-96010213D01*
X224399786Y-95859890D01*
X224227820Y-95734951D01*
X224227115Y-95734591D01*
X224219054Y-95730485D01*
X224168259Y-95682512D01*
X224151463Y-95614692D01*
X224173999Y-95548556D01*
X224219054Y-95509515D01*
X224227816Y-95505051D01*
X224249789Y-95489086D01*
X224399786Y-95380109D01*
X224399788Y-95380106D01*
X224399792Y-95380104D01*
X224550104Y-95229792D01*
X224550106Y-95229788D01*
X224550109Y-95229786D01*
X224675048Y-95057820D01*
X224675047Y-95057820D01*
X224675051Y-95057816D01*
X224771557Y-94868412D01*
X224837246Y-94666243D01*
X224870500Y-94456287D01*
X224870500Y-94243713D01*
X224837246Y-94033757D01*
X224793075Y-93897816D01*
X224791081Y-93827977D01*
X224827161Y-93768144D01*
X224889862Y-93737316D01*
X224911007Y-93735500D01*
X226881607Y-93735500D01*
X226942029Y-93723481D01*
X227002452Y-93711463D01*
X227035792Y-93697652D01*
X227116286Y-93664312D01*
X227167509Y-93630084D01*
X227218733Y-93595858D01*
X227305858Y-93508733D01*
X227305859Y-93508731D01*
X227312925Y-93501665D01*
X227312927Y-93501661D01*
X227817771Y-92996819D01*
X227879094Y-92963334D01*
X227905452Y-92960500D01*
X229470005Y-92960500D01*
X229470010Y-92960500D01*
X229572798Y-92949999D01*
X229739335Y-92894814D01*
X229888656Y-92802712D01*
X230012712Y-92678656D01*
X230104814Y-92529335D01*
X230159999Y-92362798D01*
X230170500Y-92260010D01*
X230170500Y-90519982D01*
X231449500Y-90519982D01*
X231449500Y-92320017D01*
X231460000Y-92422796D01*
X231497457Y-92535833D01*
X231515186Y-92589335D01*
X231607288Y-92738656D01*
X231731344Y-92862712D01*
X231880665Y-92954814D01*
X232047202Y-93009999D01*
X232149990Y-93020500D01*
X232149995Y-93020500D01*
X233950005Y-93020500D01*
X233950010Y-93020500D01*
X234052798Y-93009999D01*
X234219335Y-92954814D01*
X234368656Y-92862712D01*
X234492712Y-92738656D01*
X234584814Y-92589335D01*
X234639999Y-92422798D01*
X234650500Y-92320010D01*
X234650500Y-90519990D01*
X234650499Y-90519982D01*
X235979500Y-90519982D01*
X235979500Y-92320017D01*
X235990000Y-92422796D01*
X236027457Y-92535833D01*
X236045186Y-92589335D01*
X236137288Y-92738656D01*
X236261344Y-92862712D01*
X236410665Y-92954814D01*
X236577202Y-93009999D01*
X236679990Y-93020500D01*
X236679995Y-93020500D01*
X238480005Y-93020500D01*
X238480010Y-93020500D01*
X238582798Y-93009999D01*
X238749335Y-92954814D01*
X238898656Y-92862712D01*
X239022712Y-92738656D01*
X239114814Y-92589335D01*
X239169999Y-92422798D01*
X239180500Y-92320010D01*
X239180500Y-90519990D01*
X239169999Y-90417202D01*
X239114814Y-90250665D01*
X239022712Y-90101344D01*
X238898656Y-89977288D01*
X238749335Y-89885186D01*
X238582798Y-89830001D01*
X238582796Y-89830000D01*
X238480017Y-89819500D01*
X238480010Y-89819500D01*
X236679990Y-89819500D01*
X236679982Y-89819500D01*
X236577203Y-89830000D01*
X236577202Y-89830001D01*
X236494669Y-89857349D01*
X236410667Y-89885185D01*
X236410662Y-89885187D01*
X236261342Y-89977289D01*
X236137289Y-90101342D01*
X236045187Y-90250662D01*
X236045185Y-90250667D01*
X236028802Y-90300109D01*
X235990001Y-90417202D01*
X235990001Y-90417203D01*
X235990000Y-90417203D01*
X235979500Y-90519982D01*
X234650499Y-90519982D01*
X234639999Y-90417202D01*
X234584814Y-90250665D01*
X234492712Y-90101344D01*
X234368656Y-89977288D01*
X234219335Y-89885186D01*
X234052798Y-89830001D01*
X234052796Y-89830000D01*
X233950017Y-89819500D01*
X233950010Y-89819500D01*
X232149990Y-89819500D01*
X232149982Y-89819500D01*
X232047203Y-89830000D01*
X232047202Y-89830001D01*
X231964669Y-89857349D01*
X231880667Y-89885185D01*
X231880662Y-89885187D01*
X231731342Y-89977289D01*
X231607289Y-90101342D01*
X231515187Y-90250662D01*
X231515185Y-90250667D01*
X231498802Y-90300109D01*
X231460001Y-90417202D01*
X231460001Y-90417203D01*
X231460000Y-90417203D01*
X231449500Y-90519982D01*
X230170500Y-90519982D01*
X230170500Y-90459990D01*
X230159999Y-90357202D01*
X230104814Y-90190665D01*
X230012712Y-90041344D01*
X229888656Y-89917288D01*
X229795890Y-89860070D01*
X229739337Y-89825187D01*
X229739332Y-89825185D01*
X229722176Y-89819500D01*
X229572798Y-89770001D01*
X229572796Y-89770000D01*
X229470017Y-89759500D01*
X229470010Y-89759500D01*
X227669990Y-89759500D01*
X227669982Y-89759500D01*
X227567203Y-89770000D01*
X227567202Y-89770001D01*
X227484669Y-89797349D01*
X227400667Y-89825185D01*
X227400662Y-89825187D01*
X227251342Y-89917289D01*
X227127289Y-90041342D01*
X227035187Y-90190662D01*
X227035186Y-90190665D01*
X226980001Y-90357202D01*
X226980001Y-90357203D01*
X226980000Y-90357203D01*
X226969500Y-90459982D01*
X226969500Y-92024548D01*
X226949815Y-92091587D01*
X226933181Y-92112229D01*
X226597229Y-92448181D01*
X226535906Y-92481666D01*
X226509548Y-92484500D01*
X224891512Y-92484500D01*
X224824473Y-92464815D01*
X224778718Y-92412011D01*
X224768774Y-92342853D01*
X224773581Y-92322182D01*
X224773926Y-92321120D01*
X224837246Y-92126243D01*
X224870500Y-91916287D01*
X224870500Y-91703713D01*
X224837246Y-91493757D01*
X224771557Y-91291588D01*
X224675051Y-91102184D01*
X224675049Y-91102181D01*
X224675048Y-91102179D01*
X224550109Y-90930213D01*
X224399786Y-90779890D01*
X224227820Y-90654951D01*
X224227115Y-90654591D01*
X224219054Y-90650485D01*
X224168259Y-90602512D01*
X224151463Y-90534692D01*
X224173999Y-90468556D01*
X224219054Y-90429515D01*
X224227816Y-90425051D01*
X224249789Y-90409086D01*
X224399786Y-90300109D01*
X224399788Y-90300106D01*
X224399792Y-90300104D01*
X224550104Y-90149792D01*
X224550106Y-90149788D01*
X224550109Y-90149786D01*
X224675048Y-89977820D01*
X224675047Y-89977820D01*
X224675051Y-89977816D01*
X224771557Y-89788412D01*
X224837246Y-89586243D01*
X224870500Y-89376287D01*
X224870500Y-89163713D01*
X224837246Y-88953757D01*
X224832179Y-88938162D01*
X224830182Y-88868321D01*
X224862426Y-88812162D01*
X228868729Y-84805860D01*
X228868733Y-84805858D01*
X228955858Y-84718733D01*
X228995436Y-84659500D01*
X229024312Y-84616286D01*
X229057652Y-84535792D01*
X229071463Y-84502452D01*
X229085619Y-84431284D01*
X229095500Y-84381607D01*
X229095500Y-84264500D01*
X229115185Y-84197461D01*
X229167989Y-84151706D01*
X229219500Y-84140500D01*
X233359903Y-84140500D01*
X233389343Y-84149144D01*
X233419330Y-84155668D01*
X233424345Y-84159422D01*
X233426942Y-84160185D01*
X233447584Y-84176819D01*
X233586241Y-84315476D01*
X233619726Y-84376799D01*
X233616492Y-84441473D01*
X233602753Y-84483757D01*
X233569500Y-84693713D01*
X233569500Y-84906286D01*
X233602527Y-85114815D01*
X233602754Y-85116243D01*
X233616824Y-85159547D01*
X233668444Y-85318414D01*
X233764951Y-85507820D01*
X233889890Y-85679786D01*
X234040213Y-85830109D01*
X234212179Y-85955048D01*
X234212181Y-85955049D01*
X234212184Y-85955051D01*
X234401588Y-86051557D01*
X234603757Y-86117246D01*
X234813713Y-86150500D01*
X234813714Y-86150500D01*
X235026286Y-86150500D01*
X235026287Y-86150500D01*
X235236243Y-86117246D01*
X235438412Y-86051557D01*
X235627816Y-85955051D01*
X235799792Y-85830104D01*
X235913329Y-85716566D01*
X235974648Y-85683084D01*
X236044340Y-85688068D01*
X236100274Y-85729939D01*
X236117189Y-85760917D01*
X236166202Y-85892328D01*
X236166206Y-85892335D01*
X236252452Y-86007544D01*
X236252455Y-86007547D01*
X236367664Y-86093793D01*
X236367671Y-86093797D01*
X236502517Y-86144091D01*
X236502516Y-86144091D01*
X236509444Y-86144835D01*
X236562127Y-86150500D01*
X238357872Y-86150499D01*
X238417483Y-86144091D01*
X238552331Y-86093796D01*
X238667546Y-86007546D01*
X238753796Y-85892331D01*
X238804091Y-85757483D01*
X238810500Y-85697873D01*
X238810499Y-83902128D01*
X238804091Y-83842517D01*
X238802810Y-83839083D01*
X238753797Y-83707671D01*
X238753793Y-83707664D01*
X238667547Y-83592455D01*
X238667544Y-83592452D01*
X238552335Y-83506206D01*
X238552328Y-83506202D01*
X238417482Y-83455908D01*
X238417483Y-83455908D01*
X238357883Y-83449501D01*
X238357881Y-83449500D01*
X238357873Y-83449500D01*
X238357864Y-83449500D01*
X236562129Y-83449500D01*
X236562123Y-83449501D01*
X236502516Y-83455908D01*
X236367671Y-83506202D01*
X236367664Y-83506206D01*
X236252455Y-83592452D01*
X236252452Y-83592455D01*
X236166206Y-83707664D01*
X236166203Y-83707669D01*
X236117189Y-83839083D01*
X236075317Y-83895016D01*
X236009853Y-83919433D01*
X235941580Y-83904581D01*
X235913326Y-83883430D01*
X235799786Y-83769890D01*
X235627820Y-83644951D01*
X235438414Y-83548444D01*
X235438413Y-83548443D01*
X235438412Y-83548443D01*
X235236243Y-83482754D01*
X235236241Y-83482753D01*
X235236240Y-83482753D01*
X235074957Y-83457208D01*
X235026287Y-83449500D01*
X234813713Y-83449500D01*
X234785006Y-83454046D01*
X234603757Y-83482753D01*
X234561473Y-83496492D01*
X234491632Y-83498486D01*
X234435476Y-83466241D01*
X234147590Y-83178355D01*
X234147588Y-83178352D01*
X234028717Y-83059481D01*
X234028716Y-83059480D01*
X233941904Y-83009360D01*
X233941904Y-83009359D01*
X233941900Y-83009358D01*
X233891785Y-82980423D01*
X233739057Y-82939499D01*
X233580943Y-82939499D01*
X233573347Y-82939499D01*
X233573331Y-82939500D01*
X229219500Y-82939500D01*
X229152461Y-82919815D01*
X229106706Y-82867011D01*
X229095500Y-82815500D01*
X229095500Y-82341619D01*
X229115185Y-82274580D01*
X229163206Y-82231134D01*
X229321947Y-82150252D01*
X229528942Y-81999862D01*
X229709862Y-81818942D01*
X229860252Y-81611947D01*
X229976410Y-81383975D01*
X230055474Y-81140639D01*
X230095500Y-80887930D01*
X230095500Y-80632070D01*
X230055474Y-80379361D01*
X229976410Y-80136025D01*
X229976410Y-80136024D01*
X229936185Y-80057080D01*
X229860252Y-79908053D01*
X229841038Y-79881607D01*
X229709867Y-79701064D01*
X229709863Y-79701059D01*
X229528940Y-79520136D01*
X229528935Y-79520132D01*
X229321950Y-79369750D01*
X229321949Y-79369749D01*
X229321947Y-79369748D01*
X229244919Y-79330500D01*
X229093975Y-79253589D01*
X229093972Y-79253588D01*
X228850640Y-79174526D01*
X228664526Y-79145048D01*
X228597930Y-79134500D01*
X228342070Y-79134500D01*
X228275474Y-79145048D01*
X228089359Y-79174526D01*
X227846027Y-79253588D01*
X227846024Y-79253589D01*
X227618049Y-79369750D01*
X227411064Y-79520132D01*
X227411059Y-79520136D01*
X227230136Y-79701059D01*
X227230132Y-79701064D01*
X227079750Y-79908049D01*
X226963589Y-80136024D01*
X226963588Y-80136027D01*
X226884526Y-80379359D01*
X226844500Y-80632070D01*
X226844500Y-80887929D01*
X226884526Y-81140640D01*
X226963588Y-81383972D01*
X226963589Y-81383975D01*
X227079750Y-81611950D01*
X227230132Y-81818935D01*
X227230136Y-81818940D01*
X227411059Y-81999863D01*
X227411064Y-81999867D01*
X227618051Y-82150251D01*
X227776794Y-82231134D01*
X227827591Y-82279108D01*
X227844500Y-82341619D01*
X227844500Y-84009547D01*
X227824815Y-84076586D01*
X227808181Y-84097228D01*
X225082180Y-86823229D01*
X225020857Y-86856714D01*
X224951165Y-86851730D01*
X224895232Y-86809858D01*
X224870815Y-86744394D01*
X224870499Y-86735548D01*
X224870499Y-85832129D01*
X224870498Y-85832123D01*
X224870497Y-85832116D01*
X224864091Y-85772517D01*
X224859764Y-85760917D01*
X224813797Y-85637671D01*
X224813793Y-85637664D01*
X224727547Y-85522455D01*
X224727544Y-85522452D01*
X224612335Y-85436206D01*
X224612328Y-85436202D01*
X224477482Y-85385908D01*
X224477483Y-85385908D01*
X224417883Y-85379501D01*
X224417881Y-85379500D01*
X224417873Y-85379500D01*
X224417864Y-85379500D01*
X222622129Y-85379500D01*
X222622123Y-85379501D01*
X222562516Y-85385908D01*
X222427671Y-85436202D01*
X222427664Y-85436206D01*
X222312455Y-85522452D01*
X222312452Y-85522455D01*
X222226206Y-85637664D01*
X222226202Y-85637671D01*
X222175908Y-85772517D01*
X222169717Y-85830109D01*
X222169501Y-85832123D01*
X222169500Y-85832135D01*
X222169500Y-87627870D01*
X222169501Y-87627876D01*
X222175908Y-87687483D01*
X222226202Y-87822328D01*
X222226206Y-87822335D01*
X222312452Y-87937544D01*
X222312455Y-87937547D01*
X222427664Y-88023793D01*
X222427671Y-88023797D01*
X222559082Y-88072810D01*
X222615016Y-88114681D01*
X222639433Y-88180145D01*
X222624582Y-88248418D01*
X222603431Y-88276673D01*
X222489889Y-88390215D01*
X222364951Y-88562179D01*
X222268444Y-88751585D01*
X222202753Y-88953760D01*
X222169500Y-89163713D01*
X222169500Y-89275547D01*
X222149815Y-89342586D01*
X222097011Y-89388341D01*
X222027853Y-89398285D01*
X221964297Y-89369260D01*
X221957819Y-89363228D01*
X220031016Y-87436425D01*
X219997531Y-87375102D01*
X220002515Y-87305410D01*
X220031016Y-87261063D01*
X220111786Y-87180292D01*
X220111789Y-87180289D01*
X220199394Y-87049179D01*
X220259737Y-86903497D01*
X220290500Y-86748842D01*
X220290500Y-86591158D01*
X220290500Y-86591155D01*
X220290499Y-86591153D01*
X220287543Y-86576294D01*
X220259737Y-86436503D01*
X220238611Y-86385500D01*
X220199397Y-86290828D01*
X220199396Y-86290827D01*
X220199394Y-86290821D01*
X220136397Y-86196539D01*
X220115520Y-86129863D01*
X220115500Y-86127650D01*
X220115500Y-78790451D01*
X220135185Y-78723412D01*
X220151814Y-78702774D01*
X220957819Y-77896769D01*
X221019142Y-77863285D01*
X221088834Y-77868269D01*
X221144767Y-77910141D01*
X221169184Y-77975605D01*
X221169500Y-77984451D01*
X221169500Y-78096286D01*
X221201169Y-78296239D01*
X221202754Y-78306243D01*
X221265194Y-78498414D01*
X221268444Y-78508414D01*
X221364951Y-78697820D01*
X221489890Y-78869786D01*
X221640213Y-79020109D01*
X221812179Y-79145048D01*
X221812181Y-79145049D01*
X221812184Y-79145051D01*
X222001588Y-79241557D01*
X222203757Y-79307246D01*
X222413713Y-79340500D01*
X222413714Y-79340500D01*
X222626286Y-79340500D01*
X222626287Y-79340500D01*
X222836243Y-79307246D01*
X223038412Y-79241557D01*
X223227816Y-79145051D01*
X223283630Y-79104500D01*
X223399786Y-79020109D01*
X223399788Y-79020106D01*
X223399792Y-79020104D01*
X223550104Y-78869792D01*
X223550106Y-78869788D01*
X223550109Y-78869786D01*
X223659086Y-78719789D01*
X223675051Y-78697816D01*
X223771557Y-78508412D01*
X223837246Y-78306243D01*
X223870500Y-78096287D01*
X223870500Y-77883713D01*
X223837246Y-77673757D01*
X223771557Y-77471588D01*
X223675051Y-77282184D01*
X223675049Y-77282181D01*
X223675048Y-77282179D01*
X223550109Y-77110213D01*
X223399786Y-76959890D01*
X223227820Y-76834951D01*
X223227115Y-76834591D01*
X223219054Y-76830485D01*
X223168259Y-76782512D01*
X223151463Y-76714692D01*
X223173999Y-76648556D01*
X223219054Y-76609515D01*
X223227816Y-76605051D01*
X223277771Y-76568757D01*
X223399786Y-76480109D01*
X223399788Y-76480106D01*
X223399792Y-76480104D01*
X223550104Y-76329792D01*
X223550106Y-76329788D01*
X223550109Y-76329786D01*
X223675048Y-76157820D01*
X223675047Y-76157820D01*
X223675051Y-76157816D01*
X223771557Y-75968412D01*
X223837246Y-75766243D01*
X223870500Y-75556287D01*
X223870500Y-75343713D01*
X223837246Y-75133757D01*
X223771557Y-74931588D01*
X223675051Y-74742184D01*
X223675049Y-74742181D01*
X223675048Y-74742179D01*
X223550109Y-74570213D01*
X223399786Y-74419890D01*
X223227820Y-74294951D01*
X223227115Y-74294591D01*
X223219054Y-74290485D01*
X223168259Y-74242512D01*
X223151463Y-74174692D01*
X223173999Y-74108556D01*
X223219054Y-74069515D01*
X223227816Y-74065051D01*
X223249789Y-74049086D01*
X223399786Y-73940109D01*
X223399788Y-73940106D01*
X223399792Y-73940104D01*
X223550104Y-73789792D01*
X223550106Y-73789788D01*
X223550109Y-73789786D01*
X223675048Y-73617820D01*
X223675047Y-73617820D01*
X223675051Y-73617816D01*
X223771557Y-73428412D01*
X223837246Y-73226243D01*
X223859279Y-73087135D01*
X226844500Y-73087135D01*
X226844500Y-75432870D01*
X226844501Y-75432876D01*
X226850908Y-75492483D01*
X226901202Y-75627328D01*
X226901206Y-75627335D01*
X226987452Y-75742544D01*
X226987455Y-75742547D01*
X227102664Y-75828793D01*
X227102671Y-75828797D01*
X227237517Y-75879091D01*
X227237516Y-75879091D01*
X227244444Y-75879835D01*
X227297127Y-75885500D01*
X229642872Y-75885499D01*
X229702483Y-75879091D01*
X229837331Y-75828796D01*
X229952546Y-75742546D01*
X230038796Y-75627331D01*
X230089091Y-75492483D01*
X230095500Y-75432873D01*
X230095499Y-73665646D01*
X234959500Y-73665646D01*
X234959500Y-73894353D01*
X234995278Y-74120246D01*
X234995278Y-74120249D01*
X235065950Y-74337755D01*
X235065952Y-74337758D01*
X235169783Y-74541538D01*
X235304214Y-74726566D01*
X235465934Y-74888286D01*
X235650962Y-75022717D01*
X235805161Y-75101285D01*
X235854744Y-75126549D01*
X236072251Y-75197221D01*
X236072252Y-75197221D01*
X236072255Y-75197222D01*
X236298146Y-75233000D01*
X236298147Y-75233000D01*
X236621853Y-75233000D01*
X236621854Y-75233000D01*
X236847745Y-75197222D01*
X236847748Y-75197221D01*
X236847749Y-75197221D01*
X237065255Y-75126549D01*
X237065255Y-75126548D01*
X237065258Y-75126548D01*
X237269038Y-75022717D01*
X237454066Y-74888286D01*
X237615786Y-74726566D01*
X237750217Y-74541538D01*
X237854048Y-74337758D01*
X237867957Y-74294951D01*
X237924721Y-74120249D01*
X237924721Y-74120248D01*
X237924722Y-74120245D01*
X237960500Y-73894354D01*
X237960500Y-73665646D01*
X237924722Y-73439755D01*
X237924721Y-73439751D01*
X237924721Y-73439750D01*
X237854049Y-73222244D01*
X237850989Y-73216239D01*
X237750217Y-73018462D01*
X237615786Y-72833434D01*
X237454066Y-72671714D01*
X237269038Y-72537283D01*
X237065255Y-72433450D01*
X236847748Y-72362778D01*
X236678326Y-72335944D01*
X236621854Y-72327000D01*
X236298146Y-72327000D01*
X236222849Y-72338926D01*
X236072253Y-72362778D01*
X236072250Y-72362778D01*
X235854744Y-72433450D01*
X235650961Y-72537283D01*
X235586996Y-72583757D01*
X235465934Y-72671714D01*
X235465932Y-72671716D01*
X235465931Y-72671716D01*
X235304216Y-72833431D01*
X235304216Y-72833432D01*
X235304214Y-72833434D01*
X235261181Y-72892664D01*
X235169783Y-73018461D01*
X235065950Y-73222244D01*
X234995278Y-73439750D01*
X234995278Y-73439753D01*
X234959500Y-73665646D01*
X230095499Y-73665646D01*
X230095499Y-73087128D01*
X230089091Y-73027517D01*
X230085713Y-73018461D01*
X230038797Y-72892671D01*
X230038793Y-72892664D01*
X229952547Y-72777455D01*
X229952544Y-72777452D01*
X229837335Y-72691206D01*
X229837328Y-72691202D01*
X229702482Y-72640908D01*
X229702483Y-72640908D01*
X229642883Y-72634501D01*
X229642881Y-72634500D01*
X229642873Y-72634500D01*
X229642864Y-72634500D01*
X227297129Y-72634500D01*
X227297123Y-72634501D01*
X227237516Y-72640908D01*
X227102671Y-72691202D01*
X227102664Y-72691206D01*
X226987455Y-72777452D01*
X226987452Y-72777455D01*
X226901206Y-72892664D01*
X226901202Y-72892671D01*
X226850908Y-73027517D01*
X226844501Y-73087116D01*
X226844501Y-73087123D01*
X226844500Y-73087135D01*
X223859279Y-73087135D01*
X223870500Y-73016287D01*
X223870500Y-72803713D01*
X223837246Y-72593757D01*
X223771557Y-72391588D01*
X223675051Y-72202184D01*
X223675049Y-72202181D01*
X223675048Y-72202179D01*
X223550109Y-72030213D01*
X223399786Y-71879890D01*
X223227820Y-71754951D01*
X223227115Y-71754591D01*
X223219054Y-71750485D01*
X223168259Y-71702512D01*
X223151463Y-71634692D01*
X223173999Y-71568556D01*
X223219054Y-71529515D01*
X223227816Y-71525051D01*
X223249789Y-71509086D01*
X223399786Y-71400109D01*
X223399788Y-71400106D01*
X223399792Y-71400104D01*
X223550104Y-71249792D01*
X223550106Y-71249788D01*
X223550109Y-71249786D01*
X223675048Y-71077820D01*
X223675049Y-71077819D01*
X223675051Y-71077816D01*
X223771557Y-70888412D01*
X223837246Y-70686243D01*
X223870500Y-70476287D01*
X223870500Y-70263713D01*
X223837246Y-70053757D01*
X223771557Y-69851588D01*
X223675051Y-69662184D01*
X223675049Y-69662181D01*
X223675048Y-69662179D01*
X223550109Y-69490213D01*
X223399786Y-69339890D01*
X223227820Y-69214951D01*
X223227115Y-69214591D01*
X223219054Y-69210485D01*
X223168259Y-69162512D01*
X223151463Y-69094692D01*
X223173999Y-69028556D01*
X223219054Y-68989515D01*
X223227816Y-68985051D01*
X223249789Y-68969086D01*
X223399786Y-68860109D01*
X223399788Y-68860106D01*
X223399792Y-68860104D01*
X223550104Y-68709792D01*
X223550106Y-68709788D01*
X223550109Y-68709786D01*
X223675048Y-68537820D01*
X223675047Y-68537820D01*
X223675051Y-68537816D01*
X223771557Y-68348412D01*
X223837246Y-68146243D01*
X223870500Y-67936287D01*
X223870500Y-67723713D01*
X223866686Y-67699635D01*
X234959500Y-67699635D01*
X234959500Y-69700370D01*
X234959501Y-69700376D01*
X234965908Y-69759983D01*
X235016202Y-69894828D01*
X235016206Y-69894835D01*
X235102452Y-70010044D01*
X235102455Y-70010047D01*
X235217664Y-70096293D01*
X235217671Y-70096297D01*
X235352517Y-70146591D01*
X235352516Y-70146591D01*
X235359444Y-70147335D01*
X235412127Y-70153000D01*
X237507872Y-70152999D01*
X237567483Y-70146591D01*
X237702331Y-70096296D01*
X237817546Y-70010046D01*
X237903796Y-69894831D01*
X237954091Y-69759983D01*
X237960500Y-69700373D01*
X237960499Y-67699628D01*
X237954091Y-67640017D01*
X237945009Y-67615668D01*
X237903797Y-67505171D01*
X237903793Y-67505164D01*
X237817547Y-67389955D01*
X237817544Y-67389952D01*
X237702335Y-67303706D01*
X237702328Y-67303702D01*
X237567482Y-67253408D01*
X237567483Y-67253408D01*
X237507883Y-67247001D01*
X237507881Y-67247000D01*
X237507873Y-67247000D01*
X237507864Y-67247000D01*
X235412129Y-67247000D01*
X235412123Y-67247001D01*
X235352516Y-67253408D01*
X235217671Y-67303702D01*
X235217664Y-67303706D01*
X235102455Y-67389952D01*
X235102452Y-67389955D01*
X235016206Y-67505164D01*
X235016202Y-67505171D01*
X234965908Y-67640017D01*
X234959501Y-67699616D01*
X234959501Y-67699623D01*
X234959500Y-67699635D01*
X223866686Y-67699635D01*
X223837246Y-67513757D01*
X223771557Y-67311588D01*
X223675051Y-67122184D01*
X223675049Y-67122181D01*
X223675048Y-67122179D01*
X223550109Y-66950213D01*
X223399786Y-66799890D01*
X223227820Y-66674951D01*
X223227115Y-66674591D01*
X223219054Y-66670485D01*
X223168259Y-66622512D01*
X223151463Y-66554692D01*
X223173999Y-66488556D01*
X223219054Y-66449515D01*
X223227816Y-66445051D01*
X223249789Y-66429086D01*
X223399786Y-66320109D01*
X223399788Y-66320106D01*
X223399792Y-66320104D01*
X223550104Y-66169792D01*
X223550106Y-66169788D01*
X223550109Y-66169786D01*
X223675048Y-65997820D01*
X223675047Y-65997820D01*
X223675051Y-65997816D01*
X223771557Y-65808412D01*
X223837246Y-65606243D01*
X223870500Y-65396287D01*
X223870500Y-65183713D01*
X223837246Y-64973757D01*
X223771557Y-64771588D01*
X223675051Y-64582184D01*
X223675049Y-64582181D01*
X223675048Y-64582179D01*
X223550109Y-64410213D01*
X223436569Y-64296673D01*
X223403084Y-64235350D01*
X223408068Y-64165658D01*
X223449940Y-64109725D01*
X223480915Y-64092810D01*
X223612331Y-64043796D01*
X223727546Y-63957546D01*
X223813796Y-63842331D01*
X223864091Y-63707483D01*
X223870500Y-63647873D01*
X223870499Y-61852128D01*
X223864091Y-61792517D01*
X223860361Y-61782517D01*
X223813797Y-61657671D01*
X223813793Y-61657664D01*
X223727547Y-61542455D01*
X223727544Y-61542452D01*
X223612335Y-61456206D01*
X223612328Y-61456202D01*
X223477482Y-61405908D01*
X223477483Y-61405908D01*
X223417883Y-61399501D01*
X223417881Y-61399500D01*
X223417873Y-61399500D01*
X223417864Y-61399500D01*
X221622129Y-61399500D01*
X221622123Y-61399501D01*
X221562516Y-61405908D01*
X221427671Y-61456202D01*
X221427664Y-61456206D01*
X221312455Y-61542452D01*
X221312452Y-61542455D01*
X221226206Y-61657664D01*
X221226202Y-61657671D01*
X221175908Y-61792517D01*
X221170575Y-61842127D01*
X221169501Y-61852123D01*
X221169500Y-61852135D01*
X221169500Y-63647870D01*
X221169501Y-63647876D01*
X221175908Y-63707483D01*
X221226202Y-63842328D01*
X221226206Y-63842335D01*
X221312452Y-63957544D01*
X221312455Y-63957547D01*
X221427664Y-64043793D01*
X221427671Y-64043797D01*
X221559082Y-64092810D01*
X221615016Y-64134681D01*
X221639433Y-64200145D01*
X221624582Y-64268418D01*
X221603431Y-64296673D01*
X221489889Y-64410215D01*
X221364951Y-64582179D01*
X221268444Y-64771585D01*
X221202753Y-64973760D01*
X221169500Y-65183713D01*
X221169500Y-65396286D01*
X221201169Y-65596239D01*
X221202754Y-65606243D01*
X221265194Y-65798414D01*
X221268444Y-65808414D01*
X221364951Y-65997820D01*
X221489890Y-66169786D01*
X221640213Y-66320109D01*
X221812182Y-66445050D01*
X221820946Y-66449516D01*
X221871742Y-66497491D01*
X221888536Y-66565312D01*
X221865998Y-66631447D01*
X221820946Y-66670484D01*
X221812182Y-66674949D01*
X221640213Y-66799890D01*
X221489890Y-66950213D01*
X221364951Y-67122179D01*
X221268444Y-67311585D01*
X221202753Y-67513760D01*
X221169500Y-67723713D01*
X221169500Y-67936286D01*
X221182218Y-68016588D01*
X221202754Y-68146243D01*
X221226316Y-68218760D01*
X221268444Y-68348414D01*
X221364951Y-68537820D01*
X221489890Y-68709786D01*
X221640213Y-68860109D01*
X221812182Y-68985050D01*
X221820946Y-68989516D01*
X221871742Y-69037491D01*
X221888536Y-69105312D01*
X221865998Y-69171447D01*
X221820946Y-69210484D01*
X221812182Y-69214949D01*
X221640213Y-69339890D01*
X221489890Y-69490213D01*
X221364950Y-69662180D01*
X221357503Y-69676797D01*
X221309527Y-69727592D01*
X221247019Y-69744500D01*
X217958389Y-69744500D01*
X217837555Y-69768535D01*
X217837545Y-69768538D01*
X217723716Y-69815687D01*
X217723707Y-69815692D01*
X217621267Y-69884141D01*
X217621263Y-69884144D01*
X217534144Y-69971263D01*
X217534141Y-69971267D01*
X217465692Y-70073707D01*
X217465687Y-70073716D01*
X217418538Y-70187545D01*
X217418535Y-70187555D01*
X217394500Y-70308389D01*
X217394500Y-77249367D01*
X217374815Y-77316406D01*
X217322011Y-77362161D01*
X217252853Y-77372105D01*
X217246314Y-77370985D01*
X217238849Y-77369500D01*
X217238842Y-77369500D01*
X217081158Y-77369500D01*
X217081155Y-77369500D01*
X216926510Y-77400261D01*
X216926498Y-77400264D01*
X216780827Y-77460602D01*
X216780814Y-77460609D01*
X216649711Y-77548210D01*
X216649707Y-77548213D01*
X216538213Y-77659707D01*
X216538210Y-77659711D01*
X216450609Y-77790814D01*
X216450602Y-77790827D01*
X216390264Y-77936498D01*
X216390261Y-77936510D01*
X216359500Y-78091153D01*
X216359500Y-78248846D01*
X216390261Y-78403489D01*
X216390264Y-78403501D01*
X216450602Y-78549172D01*
X216450609Y-78549184D01*
X216513602Y-78643459D01*
X216534480Y-78710136D01*
X216534500Y-78712350D01*
X216534500Y-85159547D01*
X216514815Y-85226586D01*
X216498181Y-85247228D01*
X216072181Y-85673228D01*
X216010858Y-85706713D01*
X215941166Y-85701729D01*
X215885233Y-85659857D01*
X215860816Y-85594393D01*
X215860500Y-85585547D01*
X215860500Y-75691456D01*
X215822052Y-75498170D01*
X215822051Y-75498169D01*
X215822051Y-75498165D01*
X215822049Y-75498160D01*
X215746635Y-75316092D01*
X215746628Y-75316079D01*
X215637139Y-75152218D01*
X215637136Y-75152214D01*
X215497785Y-75012863D01*
X215497781Y-75012860D01*
X215333920Y-74903371D01*
X215333907Y-74903364D01*
X215151839Y-74827950D01*
X215151829Y-74827947D01*
X214958543Y-74789500D01*
X214958541Y-74789500D01*
X214745783Y-74789500D01*
X214678744Y-74769815D01*
X214658106Y-74753185D01*
X214567782Y-74662861D01*
X214567781Y-74662860D01*
X214567780Y-74662859D01*
X214403920Y-74553371D01*
X214403911Y-74553366D01*
X214282965Y-74503269D01*
X214275165Y-74500038D01*
X214221836Y-74477949D01*
X214079593Y-74449655D01*
X214075930Y-74448926D01*
X214075925Y-74448925D01*
X214028542Y-74439500D01*
X214028541Y-74439500D01*
X208240200Y-74439500D01*
X208173161Y-74419815D01*
X208160634Y-74410506D01*
X207987820Y-74284951D01*
X207987115Y-74284591D01*
X207979054Y-74280485D01*
X207928259Y-74232512D01*
X207911463Y-74164692D01*
X207933999Y-74098556D01*
X207979054Y-74059515D01*
X207987816Y-74055051D01*
X208009789Y-74039086D01*
X208159786Y-73930109D01*
X208159788Y-73930106D01*
X208159792Y-73930104D01*
X208310104Y-73779792D01*
X208310106Y-73779788D01*
X208310109Y-73779786D01*
X208435048Y-73607820D01*
X208435047Y-73607820D01*
X208435051Y-73607816D01*
X208531557Y-73418412D01*
X208597246Y-73216243D01*
X208630500Y-73006287D01*
X208630500Y-73006285D01*
X208631262Y-73001475D01*
X208632321Y-73001642D01*
X208655361Y-72941172D01*
X208666416Y-72928503D01*
X217467140Y-64127781D01*
X217576632Y-63963914D01*
X217652052Y-63781835D01*
X217690501Y-63588540D01*
X217690501Y-63391459D01*
X217690501Y-63386349D01*
X217690500Y-63386323D01*
X217690500Y-59810199D01*
X217710185Y-59743160D01*
X217719471Y-59730664D01*
X217845048Y-59557820D01*
X217845047Y-59557820D01*
X217845051Y-59557816D01*
X217915280Y-59419983D01*
X230459500Y-59419983D01*
X230459500Y-61020001D01*
X230459501Y-61020018D01*
X230470000Y-61122796D01*
X230470001Y-61122799D01*
X230504795Y-61227799D01*
X230525186Y-61289334D01*
X230617288Y-61438656D01*
X230741344Y-61562712D01*
X230890666Y-61654814D01*
X231057203Y-61709999D01*
X231159991Y-61720500D01*
X232460008Y-61720499D01*
X232562797Y-61709999D01*
X232729334Y-61654814D01*
X232878656Y-61562712D01*
X233002712Y-61438656D01*
X233094814Y-61289334D01*
X233149999Y-61122797D01*
X233160500Y-61020009D01*
X233160499Y-59419992D01*
X233149999Y-59317203D01*
X233094814Y-59150666D01*
X233002712Y-59001344D01*
X232878656Y-58877288D01*
X232729334Y-58785186D01*
X232562797Y-58730001D01*
X232562795Y-58730000D01*
X232460010Y-58719500D01*
X231159998Y-58719500D01*
X231159981Y-58719501D01*
X231057203Y-58730000D01*
X231057200Y-58730001D01*
X230890668Y-58785185D01*
X230890663Y-58785187D01*
X230741342Y-58877289D01*
X230617289Y-59001342D01*
X230525187Y-59150663D01*
X230525185Y-59150668D01*
X230497349Y-59234670D01*
X230470001Y-59317203D01*
X230470001Y-59317204D01*
X230470000Y-59317204D01*
X230459500Y-59419983D01*
X217915280Y-59419983D01*
X217941557Y-59368412D01*
X218007246Y-59166243D01*
X218040500Y-58956287D01*
X218040500Y-58443713D01*
X218007246Y-58233757D01*
X217941557Y-58031588D01*
X217845051Y-57842184D01*
X217845049Y-57842181D01*
X217845048Y-57842179D01*
X217720109Y-57670213D01*
X217612077Y-57562181D01*
X217578592Y-57500858D01*
X217583576Y-57431166D01*
X217625448Y-57375233D01*
X217690912Y-57350816D01*
X217699758Y-57350500D01*
X239815500Y-57350500D01*
X239882539Y-57370185D01*
X239928294Y-57422989D01*
X239939500Y-57474500D01*
X239939500Y-106225500D01*
X239919815Y-106292539D01*
X239867011Y-106338294D01*
X239815500Y-106349500D01*
X191064500Y-106349500D01*
X190997461Y-106329815D01*
X190951706Y-106277011D01*
X190940500Y-106225500D01*
X190940500Y-57474500D01*
X190960185Y-57407461D01*
X191012989Y-57361706D01*
X191064500Y-57350500D01*
X212855819Y-57350500D01*
X212922858Y-57370185D01*
G37*
%TD.AperFunction*%
%TD*%
%TA.AperFunction,NonConductor*%
G36*
X215644953Y-59763309D02*
G01*
X215683810Y-59821378D01*
X215689500Y-59858510D01*
X215689500Y-63024216D01*
X215669815Y-63091255D01*
X215653181Y-63111897D01*
X215402181Y-63362897D01*
X215340858Y-63396382D01*
X215271166Y-63391398D01*
X215215233Y-63349526D01*
X215190816Y-63284062D01*
X215190500Y-63275216D01*
X215190500Y-60153957D01*
X215210185Y-60086918D01*
X215249407Y-60048416D01*
X215258656Y-60042712D01*
X215382712Y-59918656D01*
X215459961Y-59793413D01*
X215511909Y-59746689D01*
X215580871Y-59735466D01*
X215644953Y-59763309D01*
G37*
%TD.AperFunction*%
%TA.AperFunction,NonConductor*%
G36*
X221261619Y-70999787D02*
G01*
X221276824Y-70999135D01*
X221294464Y-71009431D01*
X221314058Y-71015185D01*
X221324954Y-71027228D01*
X221337167Y-71034357D01*
X221357503Y-71063203D01*
X221364950Y-71077819D01*
X221489890Y-71249786D01*
X221640213Y-71400109D01*
X221812182Y-71525050D01*
X221820946Y-71529516D01*
X221871742Y-71577491D01*
X221888536Y-71645312D01*
X221865998Y-71711447D01*
X221820946Y-71750484D01*
X221812182Y-71754949D01*
X221640213Y-71879890D01*
X221489890Y-72030213D01*
X221364951Y-72202179D01*
X221268444Y-72391585D01*
X221268443Y-72391587D01*
X221268443Y-72391588D01*
X221235598Y-72492672D01*
X221202753Y-72593760D01*
X221190406Y-72671716D01*
X221169500Y-72803713D01*
X221169500Y-73016287D01*
X221171279Y-73027516D01*
X221202753Y-73226241D01*
X221207821Y-73241837D01*
X221209816Y-73311678D01*
X221177571Y-73367837D01*
X218857181Y-75688228D01*
X218795858Y-75721713D01*
X218726166Y-75716729D01*
X218670233Y-75674857D01*
X218645816Y-75609393D01*
X218645500Y-75600547D01*
X218645500Y-71119500D01*
X218665185Y-71052461D01*
X218717989Y-71006706D01*
X218769500Y-70995500D01*
X221247019Y-70995500D01*
X221261619Y-70999787D01*
G37*
%TD.AperFunction*%
%TA.AperFunction,NonConductor*%
G36*
X221088834Y-75328269D02*
G01*
X221144767Y-75370141D01*
X221169184Y-75435605D01*
X221169500Y-75444451D01*
X221169500Y-75556286D01*
X221202753Y-75766241D01*
X221207821Y-75781837D01*
X221209816Y-75851678D01*
X221177571Y-75907837D01*
X219607181Y-77478228D01*
X219545858Y-77511713D01*
X219476166Y-77506729D01*
X219420233Y-77464857D01*
X219395816Y-77399393D01*
X219395500Y-77390547D01*
X219395500Y-76970451D01*
X219415185Y-76903412D01*
X219431814Y-76882775D01*
X220957819Y-75356769D01*
X221019142Y-75323285D01*
X221088834Y-75328269D01*
G37*
%TD.AperFunction*%
%TA.AperFunction,NonConductor*%
G36*
X212463087Y-101953044D02*
G01*
X212494618Y-101953495D01*
X212497668Y-101955517D01*
X212501323Y-101955779D01*
X212526573Y-101974681D01*
X212552851Y-101992104D01*
X212554324Y-101995456D01*
X212557256Y-101997651D01*
X212568277Y-102027200D01*
X212580966Y-102056068D01*
X212580895Y-102061029D01*
X212581673Y-102063115D01*
X212580462Y-102091358D01*
X212559500Y-102223712D01*
X212559500Y-102736286D01*
X212577477Y-102849792D01*
X212592754Y-102946243D01*
X212649117Y-103119711D01*
X212658444Y-103148414D01*
X212710309Y-103250205D01*
X212723205Y-103318874D01*
X212696929Y-103383615D01*
X212639822Y-103423872D01*
X212599824Y-103430500D01*
X208904836Y-103430500D01*
X208837797Y-103410815D01*
X208792042Y-103358011D01*
X208782098Y-103288853D01*
X208811123Y-103225297D01*
X208848541Y-103196015D01*
X208987816Y-103125051D01*
X209009789Y-103109086D01*
X209159786Y-103000109D01*
X209159788Y-103000106D01*
X209159792Y-103000104D01*
X209310104Y-102849792D01*
X209310106Y-102849788D01*
X209310109Y-102849786D01*
X209435049Y-102677819D01*
X209442497Y-102663203D01*
X209490473Y-102612408D01*
X209552981Y-102595500D01*
X211561608Y-102595500D01*
X211561608Y-102595499D01*
X211646867Y-102578541D01*
X211682452Y-102571463D01*
X211715792Y-102557652D01*
X211796286Y-102524312D01*
X211847509Y-102490084D01*
X211850009Y-102488414D01*
X211866028Y-102477710D01*
X211898733Y-102455858D01*
X211985858Y-102368733D01*
X211985859Y-102368731D01*
X211992925Y-102361665D01*
X211992928Y-102361661D01*
X212370310Y-101984278D01*
X212397981Y-101969169D01*
X212424756Y-101952497D01*
X212428418Y-101952549D01*
X212431631Y-101950795D01*
X212463087Y-101953044D01*
G37*
%TD.AperFunction*%
M02*
