%TF.GenerationSoftware,KiCad,Pcbnew,9.0.4*%
%TF.CreationDate,2025-09-18T17:41:51-06:00*%
%TF.ProjectId,sumo_bueno,73756d6f-5f62-4756-956e-6f2e6b696361,rev?*%
%TF.SameCoordinates,Original*%
%TF.FileFunction,Copper,L1,Top*%
%TF.FilePolarity,Positive*%
%FSLAX46Y46*%
G04 Gerber Fmt 4.6, Leading zero omitted, Abs format (unit mm)*
G04 Created by KiCad (PCBNEW 9.0.4) date 2025-09-18 17:41:51*
%MOMM*%
%LPD*%
G01*
G04 APERTURE LIST*
G04 Aperture macros list*
%AMRoundRect*
0 Rectangle with rounded corners*
0 $1 Rounding radius*
0 $2 $3 $4 $5 $6 $7 $8 $9 X,Y pos of 4 corners*
0 Add a 4 corners polygon primitive as box body*
4,1,4,$2,$3,$4,$5,$6,$7,$8,$9,$2,$3,0*
0 Add four circle primitives for the rounded corners*
1,1,$1+$1,$2,$3*
1,1,$1+$1,$4,$5*
1,1,$1+$1,$6,$7*
1,1,$1+$1,$8,$9*
0 Add four rect primitives between the rounded corners*
20,1,$1+$1,$2,$3,$4,$5,0*
20,1,$1+$1,$4,$5,$6,$7,0*
20,1,$1+$1,$6,$7,$8,$9,0*
20,1,$1+$1,$8,$9,$2,$3,0*%
G04 Aperture macros list end*
%TA.AperFunction,ComponentPad*%
%ADD10R,1.700000X1.700000*%
%TD*%
%TA.AperFunction,ComponentPad*%
%ADD11C,1.700000*%
%TD*%
%TA.AperFunction,ComponentPad*%
%ADD12RoundRect,0.249999X-0.850001X0.850001X-0.850001X-0.850001X0.850001X-0.850001X0.850001X0.850001X0*%
%TD*%
%TA.AperFunction,ComponentPad*%
%ADD13C,2.200000*%
%TD*%
%TA.AperFunction,ComponentPad*%
%ADD14RoundRect,0.250000X-0.600000X-0.725000X0.600000X-0.725000X0.600000X0.725000X-0.600000X0.725000X0*%
%TD*%
%TA.AperFunction,ComponentPad*%
%ADD15O,1.700000X1.950000*%
%TD*%
%TA.AperFunction,ComponentPad*%
%ADD16RoundRect,0.250000X-0.600000X-0.750000X0.600000X-0.750000X0.600000X0.750000X-0.600000X0.750000X0*%
%TD*%
%TA.AperFunction,ComponentPad*%
%ADD17O,1.700000X2.000000*%
%TD*%
%TA.AperFunction,ComponentPad*%
%ADD18R,2.250000X2.250000*%
%TD*%
%TA.AperFunction,ComponentPad*%
%ADD19C,2.250000*%
%TD*%
%TA.AperFunction,ComponentPad*%
%ADD20R,2.000000X1.905000*%
%TD*%
%TA.AperFunction,ComponentPad*%
%ADD21O,2.000000X1.905000*%
%TD*%
%TA.AperFunction,ComponentPad*%
%ADD22RoundRect,0.250000X0.600000X0.750000X-0.600000X0.750000X-0.600000X-0.750000X0.600000X-0.750000X0*%
%TD*%
%TA.AperFunction,ViaPad*%
%ADD23C,0.600000*%
%TD*%
%TA.AperFunction,Conductor*%
%ADD24C,0.200000*%
%TD*%
%TA.AperFunction,Conductor*%
%ADD25C,0.250000*%
%TD*%
%TA.AperFunction,Conductor*%
%ADD26C,0.500000*%
%TD*%
%TA.AperFunction,Conductor*%
%ADD27C,1.000000*%
%TD*%
G04 APERTURE END LIST*
D10*
%TO.P,S7,1,Pin_1*%
%TO.N,+5V*%
X237460000Y-84800000D03*
D11*
%TO.P,S7,2,Pin_2*%
%TO.N,/S7*%
X234920000Y-84800000D03*
%TO.P,S7,3,Pin_3*%
%TO.N,GND*%
X232380000Y-84800000D03*
%TD*%
D12*
%TO.P,D3,1,K*%
%TO.N,Net-(D1-K)*%
X237580000Y-91420000D03*
D13*
%TO.P,D3,2,A*%
%TO.N,/S1*%
X237580000Y-96500000D03*
%TD*%
D14*
%TO.P,S4,1,Pin_1*%
%TO.N,+5V*%
X194970000Y-77010000D03*
D15*
%TO.P,S4,2,Pin_2*%
%TO.N,GND*%
X197470000Y-77010000D03*
%TO.P,S4,3,Pin_3*%
%TO.N,/S4*%
X199970000Y-77010000D03*
%TD*%
D16*
%TO.P,Source1,1,Pin_1*%
%TO.N,+10V*%
X231810000Y-60220000D03*
D17*
%TO.P,Source1,2,Pin_2*%
%TO.N,GND*%
X234310000Y-60220000D03*
%TD*%
D14*
%TO.P,S1,1,Pin_1*%
%TO.N,+5V*%
X194900000Y-85560000D03*
D15*
%TO.P,S1,2,Pin_2*%
%TO.N,/S1*%
X197400000Y-85560000D03*
%TO.P,S1,3,Pin_3*%
%TO.N,Net-(S1-Pin_3)*%
X199900000Y-85560000D03*
%TD*%
D10*
%TO.P,J3,1,Pin_1*%
%TO.N,+10V*%
X207280000Y-62740000D03*
D11*
%TO.P,J3,2,Pin_2*%
%TO.N,+5V*%
X207280000Y-65280000D03*
%TO.P,J3,3,Pin_3*%
%TO.N,GND*%
X207280000Y-67820000D03*
%TO.P,J3,4,Pin_4*%
%TO.N,Net-(J3-Pin_4)*%
X207280000Y-70360000D03*
%TO.P,J3,5,Pin_5*%
%TO.N,Net-(J3-Pin_5)*%
X207280000Y-72900000D03*
%TO.P,J3,6,Pin_6*%
%TO.N,Net-(J3-Pin_6)*%
X207280000Y-75440000D03*
%TO.P,J3,7,Pin_7*%
%TO.N,Net-(J3-Pin_7)*%
X207280000Y-77980000D03*
%TO.P,J3,8,Pin_8*%
%TO.N,GND*%
X207280000Y-80520000D03*
%TD*%
D14*
%TO.P,S3,1,Pin_1*%
%TO.N,+5V*%
X194900000Y-101160000D03*
D15*
%TO.P,S3,2,Pin_2*%
%TO.N,/S3*%
X197400000Y-101160000D03*
%TO.P,S3,3,Pin_3*%
%TO.N,Net-(S3-Pin_3)*%
X199900000Y-101160000D03*
%TD*%
D10*
%TO.P,J4,1,Pin_1*%
%TO.N,/PWMA*%
X222520000Y-62750000D03*
D11*
%TO.P,J4,2,Pin_2*%
%TO.N,/MA1*%
X222520000Y-65290000D03*
%TO.P,J4,3,Pin_3*%
%TO.N,/MA2*%
X222520000Y-67830000D03*
%TO.P,J4,4,Pin_4*%
%TO.N,/Stby*%
X222520000Y-70370000D03*
%TO.P,J4,5,Pin_5*%
%TO.N,/MB1*%
X222520000Y-72910000D03*
%TO.P,J4,6,Pin_6*%
%TO.N,/MB2*%
X222520000Y-75450000D03*
%TO.P,J4,7,Pin_7*%
%TO.N,/PWMB*%
X222520000Y-77990000D03*
%TO.P,J4,8,Pin_8*%
%TO.N,GND*%
X222520000Y-80530000D03*
%TD*%
D18*
%TO.P,SW1,1,1*%
%TO.N,+5V*%
X228470000Y-74260000D03*
D19*
%TO.P,SW1,2,2*%
%TO.N,/S7*%
X228470000Y-80760000D03*
%TD*%
D20*
%TO.P,U2,1,VI*%
%TO.N,+10V*%
X236460000Y-68700000D03*
D21*
%TO.P,U2,2,GND*%
%TO.N,GND*%
X236460000Y-71240000D03*
%TO.P,U2,3,VO*%
%TO.N,+5V*%
X236460000Y-73780000D03*
%TD*%
D12*
%TO.P,D1,1,K*%
%TO.N,Net-(D1-K)*%
X228570000Y-91360000D03*
D13*
%TO.P,D1,2,A*%
%TO.N,/S3*%
X228570000Y-96440000D03*
%TD*%
D10*
%TO.P,J2,1,Pin_1*%
%TO.N,/PWMA*%
X223520000Y-86730000D03*
D11*
%TO.P,J2,2,Pin_2*%
%TO.N,/S7*%
X223520000Y-89270000D03*
%TO.P,J2,3,Pin_3*%
%TO.N,/Stby*%
X223520000Y-91810000D03*
%TO.P,J2,4,Pin_4*%
%TO.N,/MA2*%
X223520000Y-94350000D03*
%TO.P,J2,5,Pin_5*%
%TO.N,/MA1*%
X223520000Y-96890000D03*
%TO.P,J2,6,Pin_6*%
%TO.N,GND*%
X223520000Y-99430000D03*
%TO.P,J2,7,Pin_7*%
%TO.N,+5V*%
X223520000Y-101970000D03*
%TD*%
D14*
%TO.P,S6,1,Pin_1*%
%TO.N,+5V*%
X194970000Y-60350000D03*
D15*
%TO.P,S6,2,Pin_2*%
%TO.N,GND*%
X197470000Y-60350000D03*
%TO.P,S6,3,Pin_3*%
%TO.N,/S6*%
X199970000Y-60350000D03*
%TD*%
D14*
%TO.P,S2,1,Pin_1*%
%TO.N,+5V*%
X194900000Y-93360000D03*
D15*
%TO.P,S2,2,Pin_2*%
%TO.N,/S2*%
X197400000Y-93360000D03*
%TO.P,S2,3,Pin_3*%
%TO.N,Net-(S2-Pin_3)*%
X199900000Y-93360000D03*
%TD*%
D12*
%TO.P,D2,1,K*%
%TO.N,Net-(D1-K)*%
X233050000Y-91420000D03*
D13*
%TO.P,D2,2,A*%
%TO.N,/S2*%
X233050000Y-96500000D03*
%TD*%
D10*
%TO.P,J1,1,Pin_1*%
%TO.N,/S6*%
X208280000Y-86730000D03*
D11*
%TO.P,J1,2,Pin_2*%
%TO.N,/S5*%
X208280000Y-89270000D03*
%TO.P,J1,3,Pin_3*%
%TO.N,/S4*%
X208280000Y-91810000D03*
%TO.P,J1,4,Pin_4*%
%TO.N,/PWMB*%
X208280000Y-94350000D03*
%TO.P,J1,5,Pin_5*%
%TO.N,/MB1*%
X208280000Y-96890000D03*
%TO.P,J1,6,Pin_6*%
%TO.N,/MB2*%
X208280000Y-99430000D03*
%TO.P,J1,7,Pin_7*%
%TO.N,Net-(D1-K)*%
X208280000Y-101970000D03*
%TD*%
D14*
%TO.P,S5,1,Pin_1*%
%TO.N,+5V*%
X194970000Y-68660000D03*
D15*
%TO.P,S5,2,Pin_2*%
%TO.N,GND*%
X197470000Y-68660000D03*
%TO.P,S5,3,Pin_3*%
%TO.N,/S5*%
X199970000Y-68660000D03*
%TD*%
D16*
%TO.P,MotoA1,1,Pin_1*%
%TO.N,Net-(J3-Pin_4)*%
X214190000Y-58700000D03*
D17*
%TO.P,MotoA1,2,Pin_2*%
%TO.N,Net-(J3-Pin_5)*%
X216690000Y-58700000D03*
%TD*%
D22*
%TO.P,MotorB1,1,Pin_1*%
%TO.N,Net-(J3-Pin_6)*%
X216410000Y-102480000D03*
D17*
%TO.P,MotorB1,2,Pin_2*%
%TO.N,Net-(J3-Pin_7)*%
X213910000Y-102480000D03*
%TD*%
D23*
%TO.N,/S1*%
X233800000Y-103630000D03*
%TO.N,/S6*%
X204880000Y-69270000D03*
%TO.N,/MB1*%
X218770000Y-81820000D03*
%TO.N,/MB2*%
X219490000Y-86670000D03*
%TO.N,/PWMB*%
X217160000Y-78170000D03*
X215940000Y-86750000D03*
%TO.N,Net-(J3-Pin_7)*%
X213690000Y-95510000D03*
%TO.N,Net-(J3-Pin_6)*%
X216410000Y-93060000D03*
%TD*%
D24*
%TO.N,Net-(D1-K)*%
X237580000Y-91420000D02*
X233050000Y-91420000D01*
%TO.N,/S1*%
X233800000Y-103630000D02*
X231110000Y-103630000D01*
X231110000Y-103630000D02*
X231050000Y-103690000D01*
D25*
X193599000Y-102182292D02*
X195106708Y-103690000D01*
X197400000Y-85560000D02*
X193599000Y-89361000D01*
X214397115Y-103806000D02*
X214513115Y-103690000D01*
X215448486Y-103690000D02*
X215564486Y-103806000D01*
X215564486Y-103806000D02*
X217255514Y-103806000D01*
X217255514Y-103806000D02*
X217371514Y-103690000D01*
X193599000Y-89361000D02*
X193599000Y-102182292D01*
X214513115Y-103690000D02*
X215448486Y-103690000D01*
X213422885Y-103806000D02*
X214397115Y-103806000D01*
X213306885Y-103690000D02*
X213422885Y-103806000D01*
X217371514Y-103690000D02*
X231050000Y-103690000D01*
X195106708Y-103690000D02*
X213306885Y-103690000D01*
%TO.N,/S6*%
X208280000Y-86730000D02*
X204700000Y-83150000D01*
X204700000Y-69450000D02*
X204880000Y-69270000D01*
X204700000Y-83150000D02*
X204700000Y-69450000D01*
%TO.N,/MB1*%
X218770000Y-86400000D02*
X208280000Y-96890000D01*
X218770000Y-81820000D02*
X218770000Y-86400000D01*
%TO.N,/S4*%
X208280000Y-91810000D02*
X199970000Y-83500000D01*
X199970000Y-83500000D02*
X199970000Y-77010000D01*
%TO.N,/MB2*%
X219490000Y-86670000D02*
X219490000Y-88220000D01*
X219490000Y-88220000D02*
X208280000Y-99430000D01*
%TO.N,/S5*%
X208280000Y-89270000D02*
X203770000Y-84760000D01*
X203770000Y-84760000D02*
X203770000Y-69430000D01*
X203000000Y-68660000D02*
X199970000Y-68660000D01*
X203770000Y-69430000D02*
X203000000Y-68660000D01*
%TO.N,/PWMB*%
X208280000Y-94350000D02*
X215880000Y-86750000D01*
X215880000Y-86750000D02*
X215940000Y-86750000D01*
X222520000Y-77990000D02*
X217340000Y-77990000D01*
X217340000Y-77990000D02*
X217160000Y-78170000D01*
D26*
%TO.N,+5V*%
X237460000Y-74780000D02*
X236460000Y-73780000D01*
X228470000Y-66098000D02*
X228470000Y-74260000D01*
X223821000Y-61449000D02*
X228470000Y-66098000D01*
X194970000Y-68660000D02*
X196396000Y-67234000D01*
X211111000Y-61449000D02*
X223821000Y-61449000D01*
X237460000Y-81840000D02*
X237460000Y-74780000D01*
X228950000Y-73780000D02*
X228470000Y-74260000D01*
X205326000Y-67234000D02*
X207280000Y-65280000D01*
X227019000Y-86831000D02*
X232010000Y-81840000D01*
X227019000Y-98471000D02*
X227019000Y-86831000D01*
X232010000Y-81840000D02*
X237460000Y-81840000D01*
X237460000Y-84800000D02*
X237460000Y-81840000D01*
X223520000Y-101970000D02*
X227019000Y-98471000D01*
X196396000Y-67234000D02*
X205326000Y-67234000D01*
X207280000Y-65280000D02*
X211111000Y-61449000D01*
X236460000Y-73780000D02*
X228950000Y-73780000D01*
D25*
%TO.N,/MA2*%
X224696000Y-70006000D02*
X224696000Y-93174000D01*
X224696000Y-93174000D02*
X223520000Y-94350000D01*
X222520000Y-67830000D02*
X224696000Y-70006000D01*
%TO.N,/MA1*%
X224930000Y-93577810D02*
X224930000Y-95480000D01*
X224930000Y-69602190D02*
X225147000Y-69819190D01*
X225147000Y-69819190D02*
X225147000Y-93360810D01*
X224930000Y-67700000D02*
X224930000Y-69602190D01*
X222520000Y-65290000D02*
X224930000Y-67700000D01*
X225147000Y-93360810D02*
X224930000Y-93577810D01*
X224930000Y-95480000D02*
X223520000Y-96890000D01*
%TO.N,/PWMA*%
X216534000Y-68736000D02*
X216534000Y-78698702D01*
X222520000Y-62750000D02*
X216534000Y-68736000D01*
X216534000Y-78698702D02*
X223520000Y-85684702D01*
X223520000Y-85684702D02*
X223520000Y-86730000D01*
D26*
%TO.N,+10V*%
X236460000Y-68700000D02*
X236460000Y-64870000D01*
X236460000Y-64870000D02*
X231810000Y-60220000D01*
X231810000Y-60220000D02*
X209800000Y-60220000D01*
X209800000Y-60220000D02*
X207280000Y-62740000D01*
D27*
%TO.N,Net-(J3-Pin_7)*%
X213910000Y-102480000D02*
X213910000Y-95730000D01*
X213910000Y-95730000D02*
X213690000Y-95510000D01*
%TO.N,Net-(J3-Pin_6)*%
X216410000Y-102480000D02*
X216410000Y-93060000D01*
D25*
%TO.N,Net-(D1-K)*%
X233050000Y-91420000D02*
X228630000Y-91420000D01*
X228630000Y-91420000D02*
X228570000Y-91360000D01*
%TD*%
M02*
