%TF.GenerationSoftware,KiCad,Pcbnew,9.0.4*%
%TF.CreationDate,2025-09-18T17:41:51-06:00*%
%TF.ProjectId,sumo_bueno,73756d6f-5f62-4756-956e-6f2e6b696361,rev?*%
%TF.SameCoordinates,Original*%
%TF.FileFunction,Soldermask,Top*%
%TF.FilePolarity,Negative*%
%FSLAX46Y46*%
G04 Gerber Fmt 4.6, Leading zero omitted, Abs format (unit mm)*
G04 Created by KiCad (PCBNEW 9.0.4) date 2025-09-18 17:41:51*
%MOMM*%
%LPD*%
G01*
G04 APERTURE LIST*
G04 Aperture macros list*
%AMRoundRect*
0 Rectangle with rounded corners*
0 $1 Rounding radius*
0 $2 $3 $4 $5 $6 $7 $8 $9 X,Y pos of 4 corners*
0 Add a 4 corners polygon primitive as box body*
4,1,4,$2,$3,$4,$5,$6,$7,$8,$9,$2,$3,0*
0 Add four circle primitives for the rounded corners*
1,1,$1+$1,$2,$3*
1,1,$1+$1,$4,$5*
1,1,$1+$1,$6,$7*
1,1,$1+$1,$8,$9*
0 Add four rect primitives between the rounded corners*
20,1,$1+$1,$2,$3,$4,$5,0*
20,1,$1+$1,$4,$5,$6,$7,0*
20,1,$1+$1,$6,$7,$8,$9,0*
20,1,$1+$1,$8,$9,$2,$3,0*%
G04 Aperture macros list end*
%ADD10R,1.700000X1.700000*%
%ADD11C,1.700000*%
%ADD12RoundRect,0.249999X-0.850001X0.850001X-0.850001X-0.850001X0.850001X-0.850001X0.850001X0.850001X0*%
%ADD13C,2.200000*%
%ADD14RoundRect,0.250000X-0.600000X-0.725000X0.600000X-0.725000X0.600000X0.725000X-0.600000X0.725000X0*%
%ADD15O,1.700000X1.950000*%
%ADD16RoundRect,0.250000X-0.600000X-0.750000X0.600000X-0.750000X0.600000X0.750000X-0.600000X0.750000X0*%
%ADD17O,1.700000X2.000000*%
%ADD18R,2.250000X2.250000*%
%ADD19C,2.250000*%
%ADD20R,2.000000X1.905000*%
%ADD21O,2.000000X1.905000*%
%ADD22RoundRect,0.250000X0.600000X0.750000X-0.600000X0.750000X-0.600000X-0.750000X0.600000X-0.750000X0*%
G04 APERTURE END LIST*
D10*
%TO.C,S7*%
X237460000Y-84800000D03*
D11*
X234920000Y-84800000D03*
X232380000Y-84800000D03*
%TD*%
D12*
%TO.C,D3*%
X237580000Y-91420000D03*
D13*
X237580000Y-96500000D03*
%TD*%
D14*
%TO.C,S4*%
X194970000Y-77010000D03*
D15*
X197470000Y-77010000D03*
X199970000Y-77010000D03*
%TD*%
D16*
%TO.C,Source1*%
X231810000Y-60220000D03*
D17*
X234310000Y-60220000D03*
%TD*%
D14*
%TO.C,S1*%
X194900000Y-85560000D03*
D15*
X197400000Y-85560000D03*
X199900000Y-85560000D03*
%TD*%
D10*
%TO.C,J3*%
X207280000Y-62740000D03*
D11*
X207280000Y-65280000D03*
X207280000Y-67820000D03*
X207280000Y-70360000D03*
X207280000Y-72900000D03*
X207280000Y-75440000D03*
X207280000Y-77980000D03*
X207280000Y-80520000D03*
%TD*%
D14*
%TO.C,S3*%
X194900000Y-101160000D03*
D15*
X197400000Y-101160000D03*
X199900000Y-101160000D03*
%TD*%
D10*
%TO.C,J4*%
X222520000Y-62750000D03*
D11*
X222520000Y-65290000D03*
X222520000Y-67830000D03*
X222520000Y-70370000D03*
X222520000Y-72910000D03*
X222520000Y-75450000D03*
X222520000Y-77990000D03*
X222520000Y-80530000D03*
%TD*%
D18*
%TO.C,SW1*%
X228470000Y-74260000D03*
D19*
X228470000Y-80760000D03*
%TD*%
D20*
%TO.C,U2*%
X236460000Y-68700000D03*
D21*
X236460000Y-71240000D03*
X236460000Y-73780000D03*
%TD*%
D12*
%TO.C,D1*%
X228570000Y-91360000D03*
D13*
X228570000Y-96440000D03*
%TD*%
D10*
%TO.C,J2*%
X223520000Y-86730000D03*
D11*
X223520000Y-89270000D03*
X223520000Y-91810000D03*
X223520000Y-94350000D03*
X223520000Y-96890000D03*
X223520000Y-99430000D03*
X223520000Y-101970000D03*
%TD*%
D14*
%TO.C,S6*%
X194970000Y-60350000D03*
D15*
X197470000Y-60350000D03*
X199970000Y-60350000D03*
%TD*%
D14*
%TO.C,S2*%
X194900000Y-93360000D03*
D15*
X197400000Y-93360000D03*
X199900000Y-93360000D03*
%TD*%
D12*
%TO.C,D2*%
X233050000Y-91420000D03*
D13*
X233050000Y-96500000D03*
%TD*%
D10*
%TO.C,J1*%
X208280000Y-86730000D03*
D11*
X208280000Y-89270000D03*
X208280000Y-91810000D03*
X208280000Y-94350000D03*
X208280000Y-96890000D03*
X208280000Y-99430000D03*
X208280000Y-101970000D03*
%TD*%
D14*
%TO.C,S5*%
X194970000Y-68660000D03*
D15*
X197470000Y-68660000D03*
X199970000Y-68660000D03*
%TD*%
D16*
%TO.C,MotoA1*%
X214190000Y-58700000D03*
D17*
X216690000Y-58700000D03*
%TD*%
D22*
%TO.C,MotorB1*%
X216410000Y-102480000D03*
D17*
X213910000Y-102480000D03*
%TD*%
M02*
