M48
; DRILL file {KiCad 9.0.4} date 2025-10-15T08:51:44-0600
; FORMAT={-:-/ absolute / metric / decimal}
; #@! TF.CreationDate,2025-10-15T08:51:44-06:00
; #@! TF.GenerationSoftware,Kicad,Pcbnew,9.0.4
; #@! TF.FileFunction,Plated,1,2,PTH
FMAT,2
METRIC
; #@! TA.AperFunction,Plated,PTH,ViaDrill
T1C0.300
; #@! TA.AperFunction,Plated,PTH,ComponentDrill
T2C0.950
; #@! TA.AperFunction,Plated,PTH,ComponentDrill
T3C1.000
; #@! TA.AperFunction,Plated,PTH,ComponentDrill
T4C1.100
; #@! TA.AperFunction,Plated,PTH,ComponentDrill
T5C1.300
%
G90
G05
T1
X109.94Y-59.42
X111.67Y-69.59
X112.11Y-61.94
X113.63Y-78.33
X121.59Y-78.24
X125.44Y-80.36
X132.32Y-65.4
X134.415Y-51.145
X138.35Y-54.28
T2
X103.65Y-44.22
X103.65Y-46.72
X103.65Y-49.22
X104.89Y-81.65
X104.89Y-84.15
X104.89Y-86.65
X112.69Y-81.65
X112.69Y-84.15
X112.69Y-86.65
X120.49Y-81.65
X120.49Y-84.15
X120.49Y-86.65
X128.29Y-81.65
X128.29Y-84.15
X128.29Y-86.65
X136.57Y-81.65
X136.57Y-84.15
X136.57Y-86.65
X144.37Y-81.65
X144.37Y-84.15
X144.37Y-86.65
T3
X98.16Y-56.99
X98.16Y-74.77
X100.7Y-56.99
X100.7Y-74.77
X103.24Y-56.99
X103.24Y-74.77
X105.78Y-56.99
X105.78Y-74.77
X106.77Y-66.03
X106.77Y-68.53
X108.32Y-56.99
X108.32Y-74.77
X110.86Y-56.99
X110.86Y-74.77
X113.145Y-43.26
X113.145Y-45.76
X113.4Y-56.99
X113.4Y-74.77
X115.94Y-56.99
X115.94Y-74.77
X118.48Y-56.99
X118.48Y-74.77
X121.02Y-56.99
X121.02Y-74.77
X123.56Y-56.99
X123.56Y-74.77
X126.1Y-56.99
X126.1Y-74.77
X128.64Y-56.99
X128.64Y-74.77
X129.204Y-46.69
X129.204Y-61.98
X131.18Y-56.99
X131.18Y-74.77
X131.744Y-46.74
X131.744Y-61.98
X133.72Y-56.99
X133.72Y-74.77
X134.284Y-46.74
X134.284Y-61.98
X136.26Y-56.99
X136.26Y-74.77
X136.824Y-46.74
X136.824Y-61.98
X138.8Y-56.99
X138.8Y-74.77
X139.364Y-46.74
X139.364Y-61.98
X141.21Y-67.0
X141.21Y-69.5
X141.34Y-56.99
X141.34Y-74.77
X141.904Y-46.74
X141.904Y-61.98
X143.88Y-56.99
X143.88Y-74.77
X144.444Y-46.74
X144.444Y-61.98
X146.42Y-56.99
X146.42Y-74.77
X146.984Y-46.74
X146.984Y-61.98
T4
X137.12Y-42.93
X139.66Y-42.93
X142.2Y-42.93
T5
X122.07Y-44.44
X122.07Y-50.94
M30
