%TF.GenerationSoftware,KiCad,Pcbnew,9.0.4*%
%TF.CreationDate,2025-10-15T08:51:35-06:00*%
%TF.ProjectId,Sumo_RapsPico,53756d6f-5f52-4617-9073-5069636f2e6b,rev?*%
%TF.SameCoordinates,Original*%
%TF.FileFunction,Copper,L1,Top*%
%TF.FilePolarity,Positive*%
%FSLAX46Y46*%
G04 Gerber Fmt 4.6, Leading zero omitted, Abs format (unit mm)*
G04 Created by KiCad (PCBNEW 9.0.4) date 2025-10-15 08:51:35*
%MOMM*%
%LPD*%
G01*
G04 APERTURE LIST*
G04 Aperture macros list*
%AMRoundRect*
0 Rectangle with rounded corners*
0 $1 Rounding radius*
0 $2 $3 $4 $5 $6 $7 $8 $9 X,Y pos of 4 corners*
0 Add a 4 corners polygon primitive as box body*
4,1,4,$2,$3,$4,$5,$6,$7,$8,$9,$2,$3,0*
0 Add four circle primitives for the rounded corners*
1,1,$1+$1,$2,$3*
1,1,$1+$1,$4,$5*
1,1,$1+$1,$6,$7*
1,1,$1+$1,$8,$9*
0 Add four rect primitives between the rounded corners*
20,1,$1+$1,$2,$3,$4,$5,0*
20,1,$1+$1,$4,$5,$6,$7,0*
20,1,$1+$1,$6,$7,$8,$9,0*
20,1,$1+$1,$8,$9,$2,$3,0*%
%AMFreePoly0*
4,1,37,0.603843,0.796157,0.639018,0.796157,0.711114,0.766294,0.766294,0.711114,0.796157,0.639018,0.796157,0.603843,0.800000,0.600000,0.800000,-0.600000,0.796157,-0.603843,0.796157,-0.639018,0.766294,-0.711114,0.711114,-0.766294,0.639018,-0.796157,0.603843,-0.796157,0.600000,-0.800000,0.000000,-0.800000,0.000000,-0.796148,-0.078414,-0.796148,-0.232228,-0.765552,-0.377117,-0.705537,
-0.507515,-0.618408,-0.618408,-0.507515,-0.705537,-0.377117,-0.765552,-0.232228,-0.796148,-0.078414,-0.796148,0.078414,-0.765552,0.232228,-0.705537,0.377117,-0.618408,0.507515,-0.507515,0.618408,-0.377117,0.705537,-0.232228,0.765552,-0.078414,0.796148,0.000000,0.796148,0.000000,0.800000,0.600000,0.800000,0.603843,0.796157,0.603843,0.796157,$1*%
%AMFreePoly1*
4,1,37,0.000000,0.796148,0.078414,0.796148,0.232228,0.765552,0.377117,0.705537,0.507515,0.618408,0.618408,0.507515,0.705537,0.377117,0.765552,0.232228,0.796148,0.078414,0.796148,-0.078414,0.765552,-0.232228,0.705537,-0.377117,0.618408,-0.507515,0.507515,-0.618408,0.377117,-0.705537,0.232228,-0.765552,0.078414,-0.796148,0.000000,-0.796148,0.000000,-0.800000,-0.600000,-0.800000,
-0.603843,-0.796157,-0.639018,-0.796157,-0.711114,-0.766294,-0.766294,-0.711114,-0.796157,-0.639018,-0.796157,-0.603843,-0.800000,-0.600000,-0.800000,0.600000,-0.796157,0.603843,-0.796157,0.639018,-0.766294,0.711114,-0.711114,0.766294,-0.639018,0.796157,-0.603843,0.796157,-0.600000,0.800000,0.000000,0.800000,0.000000,0.796148,0.000000,0.796148,$1*%
G04 Aperture macros list end*
%TA.AperFunction,ComponentPad*%
%ADD10RoundRect,0.250000X0.750000X-0.600000X0.750000X0.600000X-0.750000X0.600000X-0.750000X-0.600000X0*%
%TD*%
%TA.AperFunction,ComponentPad*%
%ADD11O,2.000000X1.700000*%
%TD*%
%TA.AperFunction,ComponentPad*%
%ADD12RoundRect,0.250000X0.725000X-0.600000X0.725000X0.600000X-0.725000X0.600000X-0.725000X-0.600000X0*%
%TD*%
%TA.AperFunction,ComponentPad*%
%ADD13O,1.950000X1.700000*%
%TD*%
%TA.AperFunction,ComponentPad*%
%ADD14R,2.250000X2.250000*%
%TD*%
%TA.AperFunction,ComponentPad*%
%ADD15C,2.250000*%
%TD*%
%TA.AperFunction,ComponentPad*%
%ADD16RoundRect,0.200000X-0.600000X0.600000X-0.600000X-0.600000X0.600000X-0.600000X0.600000X0.600000X0*%
%TD*%
%TA.AperFunction,ComponentPad*%
%ADD17C,1.600000*%
%TD*%
%TA.AperFunction,ComponentPad*%
%ADD18FreePoly0,270.000000*%
%TD*%
%TA.AperFunction,ComponentPad*%
%ADD19FreePoly1,270.000000*%
%TD*%
%TA.AperFunction,ComponentPad*%
%ADD20R,1.905000X2.000000*%
%TD*%
%TA.AperFunction,ComponentPad*%
%ADD21O,1.905000X2.000000*%
%TD*%
%TA.AperFunction,ComponentPad*%
%ADD22RoundRect,0.250000X-0.750000X0.600000X-0.750000X-0.600000X0.750000X-0.600000X0.750000X0.600000X0*%
%TD*%
%TA.AperFunction,ComponentPad*%
%ADD23R,1.700000X1.700000*%
%TD*%
%TA.AperFunction,ComponentPad*%
%ADD24C,1.700000*%
%TD*%
%TA.AperFunction,ViaPad*%
%ADD25C,0.600000*%
%TD*%
%TA.AperFunction,Conductor*%
%ADD26C,0.250000*%
%TD*%
%TA.AperFunction,Conductor*%
%ADD27C,0.200000*%
%TD*%
%TA.AperFunction,Conductor*%
%ADD28C,0.500000*%
%TD*%
%TA.AperFunction,Conductor*%
%ADD29C,1.000000*%
%TD*%
G04 APERTURE END LIST*
D10*
%TO.P,Source1,1,Pin_1*%
%TO.N,+10V*%
X113145000Y-45760000D03*
D11*
%TO.P,Source1,2,Pin_2*%
%TO.N,GND*%
X113145000Y-43260000D03*
%TD*%
D12*
%TO.P,S4,1,Pin_1*%
%TO.N,+5V*%
X104890000Y-86650000D03*
D13*
%TO.P,S4,2,Pin_2*%
%TO.N,GND*%
X104890000Y-84150000D03*
%TO.P,S4,3,Pin_3*%
%TO.N,Net-(S4-Pin_3)*%
X104890000Y-81650000D03*
%TD*%
D12*
%TO.P,S6,1,Pin_1*%
%TO.N,+5V*%
X120490000Y-86650000D03*
D13*
%TO.P,S6,2,Pin_2*%
%TO.N,GND*%
X120490000Y-84150000D03*
%TO.P,S6,3,Pin_3*%
%TO.N,Net-(S6-Pin_3)*%
X120490000Y-81650000D03*
%TD*%
D14*
%TO.P,SW1,1,1*%
%TO.N,+3.3V*%
X122070000Y-44440000D03*
D15*
%TO.P,SW1,2,2*%
%TO.N,Net-(A1-GPIO16)*%
X122070000Y-50940000D03*
%TD*%
D16*
%TO.P,A1,1,GPIO0*%
%TO.N,/PWMB*%
X146420000Y-56990000D03*
D17*
%TO.P,A1,2,GPIO1*%
%TO.N,/PWMA*%
X143880000Y-56990000D03*
D18*
%TO.P,A1,3,GND*%
%TO.N,GND*%
X141340000Y-56990000D03*
D17*
%TO.P,A1,4,GPIO2*%
%TO.N,/MB1*%
X138800000Y-56990000D03*
%TO.P,A1,5,GPIO3*%
%TO.N,/MB2*%
X136260000Y-56990000D03*
%TO.P,A1,6,GPIO4*%
%TO.N,/Stby*%
X133720000Y-56990000D03*
%TO.P,A1,7,GPIO5*%
%TO.N,/MA2*%
X131180000Y-56990000D03*
D18*
%TO.P,A1,8,GND*%
%TO.N,GND*%
X128640000Y-56990000D03*
D17*
%TO.P,A1,9,GPIO6*%
%TO.N,/MA1*%
X126100000Y-56990000D03*
%TO.P,A1,10,GPIO7*%
%TO.N,unconnected-(A1-GPIO7-Pad10)*%
X123560000Y-56990000D03*
%TO.P,A1,11,GPIO8*%
%TO.N,unconnected-(A1-GPIO8-Pad11)*%
X121020000Y-56990000D03*
%TO.P,A1,12,GPIO9*%
%TO.N,unconnected-(A1-GPIO9-Pad12)*%
X118480000Y-56990000D03*
D18*
%TO.P,A1,13,GND*%
%TO.N,GND*%
X115940000Y-56990000D03*
D17*
%TO.P,A1,14,GPIO10*%
%TO.N,unconnected-(A1-GPIO10-Pad14)*%
X113400000Y-56990000D03*
%TO.P,A1,15,GPIO11*%
%TO.N,unconnected-(A1-GPIO11-Pad15)*%
X110860000Y-56990000D03*
%TO.P,A1,16,GPIO12*%
%TO.N,unconnected-(A1-GPIO12-Pad16)*%
X108320000Y-56990000D03*
%TO.P,A1,17,GPIO13*%
%TO.N,unconnected-(A1-GPIO13-Pad17)*%
X105780000Y-56990000D03*
D18*
%TO.P,A1,18,GND*%
%TO.N,GND*%
X103240000Y-56990000D03*
D17*
%TO.P,A1,19,GPIO14*%
%TO.N,unconnected-(A1-GPIO14-Pad19)*%
X100700000Y-56990000D03*
%TO.P,A1,20,GPIO15*%
%TO.N,unconnected-(A1-GPIO15-Pad20)*%
X98160000Y-56990000D03*
%TO.P,A1,21,GPIO16*%
%TO.N,Net-(A1-GPIO16)*%
X98160000Y-74770000D03*
%TO.P,A1,22,GPIO17*%
%TO.N,unconnected-(A1-GPIO17-Pad22)*%
X100700000Y-74770000D03*
D19*
%TO.P,A1,23,GND*%
%TO.N,GND*%
X103240000Y-74770000D03*
D17*
%TO.P,A1,24,GPIO18*%
%TO.N,unconnected-(A1-GPIO18-Pad24)*%
X105780000Y-74770000D03*
%TO.P,A1,25,GPIO19*%
%TO.N,/S8*%
X108320000Y-74770000D03*
%TO.P,A1,26,GPIO20*%
%TO.N,/S1*%
X110860000Y-74770000D03*
%TO.P,A1,27,GPIO21*%
%TO.N,/S2*%
X113400000Y-74770000D03*
D19*
%TO.P,A1,28,GND*%
%TO.N,GND*%
X115940000Y-74770000D03*
D17*
%TO.P,A1,29,GPIO22*%
%TO.N,/S3*%
X118480000Y-74770000D03*
%TO.P,A1,30,RUN*%
%TO.N,unconnected-(A1-RUN-Pad30)*%
X121020000Y-74770000D03*
%TO.P,A1,31,GPIO26_ADC0*%
%TO.N,/S4*%
X123560000Y-74770000D03*
%TO.P,A1,32,GPIO27_ADC1*%
%TO.N,/S5*%
X126100000Y-74770000D03*
D19*
%TO.P,A1,33,AGND*%
%TO.N,unconnected-(A1-AGND-Pad33)*%
X128640000Y-74770000D03*
D17*
%TO.P,A1,34,GPIO28_ADC2*%
%TO.N,/S6*%
X131180000Y-74770000D03*
%TO.P,A1,35,ADC_VREF*%
%TO.N,unconnected-(A1-ADC_VREF-Pad35)*%
X133720000Y-74770000D03*
%TO.P,A1,36,3V3*%
%TO.N,+3.3V*%
X136260000Y-74770000D03*
%TO.P,A1,37,3V3_EN*%
%TO.N,unconnected-(A1-3V3_EN-Pad37)*%
X138800000Y-74770000D03*
D19*
%TO.P,A1,38,GND*%
%TO.N,GND*%
X141340000Y-74770000D03*
D17*
%TO.P,A1,39,VSYS*%
%TO.N,+5V*%
X143880000Y-74770000D03*
%TO.P,A1,40,VBUS*%
%TO.N,unconnected-(A1-VBUS-Pad40)*%
X146420000Y-74770000D03*
%TD*%
D12*
%TO.P,S5,1,Pin_1*%
%TO.N,+5V*%
X112690000Y-86650000D03*
D13*
%TO.P,S5,2,Pin_2*%
%TO.N,GND*%
X112690000Y-84150000D03*
%TO.P,S5,3,Pin_3*%
%TO.N,Net-(S5-Pin_3)*%
X112690000Y-81650000D03*
%TD*%
D12*
%TO.P,S8,1,Pin_1*%
%TO.N,+3.3V*%
X128290000Y-86650000D03*
D13*
%TO.P,S8,2,Pin_2*%
%TO.N,Net-(S8-Pin_2)*%
X128290000Y-84150000D03*
%TO.P,S8,3,Pin_3*%
%TO.N,/S8*%
X128290000Y-81650000D03*
%TD*%
D12*
%TO.P,S3,1,Pin_1*%
%TO.N,+3.3V*%
X136570000Y-86650000D03*
D13*
%TO.P,S3,2,Pin_2*%
%TO.N,Net-(S3-Pin_2)*%
X136570000Y-84150000D03*
%TO.P,S3,3,Pin_3*%
%TO.N,/S3*%
X136570000Y-81650000D03*
%TD*%
D20*
%TO.P,U2,1,VI*%
%TO.N,+10V*%
X137120000Y-42930000D03*
D21*
%TO.P,U2,2,GND*%
%TO.N,GND*%
X139660000Y-42930000D03*
%TO.P,U2,3,VO*%
%TO.N,+5V*%
X142200000Y-42930000D03*
%TD*%
D12*
%TO.P,S2,1,Pin_1*%
%TO.N,+3.3V*%
X144370000Y-86650000D03*
D13*
%TO.P,S2,2,Pin_2*%
%TO.N,Net-(S2-Pin_2)*%
X144370000Y-84150000D03*
%TO.P,S2,3,Pin_3*%
%TO.N,/S2*%
X144370000Y-81650000D03*
%TD*%
D12*
%TO.P,S1,1,Pin_1*%
%TO.N,+3.3V*%
X103650000Y-49220000D03*
D13*
%TO.P,S1,2,Pin_2*%
%TO.N,Net-(S1-Pin_2)*%
X103650000Y-46720000D03*
%TO.P,S1,3,Pin_3*%
%TO.N,/S1*%
X103650000Y-44220000D03*
%TD*%
D22*
%TO.P,MotoA1,1,Pin_1*%
%TO.N,Net-(J3-Pin_4)*%
X141210000Y-67000000D03*
D11*
%TO.P,MotoA1,2,Pin_2*%
%TO.N,Net-(J3-Pin_5)*%
X141210000Y-69500000D03*
%TD*%
D23*
%TO.P,J4,1,Pin_1*%
%TO.N,/PWMA*%
X129204000Y-46690000D03*
D24*
%TO.P,J4,2,Pin_2*%
%TO.N,/MA1*%
X131744000Y-46740000D03*
%TO.P,J4,3,Pin_3*%
%TO.N,/MA2*%
X134284000Y-46740000D03*
%TO.P,J4,4,Pin_4*%
%TO.N,/Stby*%
X136824000Y-46740000D03*
%TO.P,J4,5,Pin_5*%
%TO.N,/MB1*%
X139364000Y-46740000D03*
%TO.P,J4,6,Pin_6*%
%TO.N,/MB2*%
X141904000Y-46740000D03*
%TO.P,J4,7,Pin_7*%
%TO.N,/PWMB*%
X144444000Y-46740000D03*
%TO.P,J4,8,Pin_8*%
%TO.N,GND*%
X146984000Y-46740000D03*
%TD*%
D23*
%TO.P,J3,1,Pin_1*%
%TO.N,+10V*%
X129204000Y-61980000D03*
D24*
%TO.P,J3,2,Pin_2*%
%TO.N,+3.3V*%
X131744000Y-61980000D03*
%TO.P,J3,3,Pin_3*%
%TO.N,GND*%
X134284000Y-61980000D03*
%TO.P,J3,4,Pin_4*%
%TO.N,Net-(J3-Pin_4)*%
X136824000Y-61980000D03*
%TO.P,J3,5,Pin_5*%
%TO.N,Net-(J3-Pin_5)*%
X139364000Y-61980000D03*
%TO.P,J3,6,Pin_6*%
%TO.N,Net-(J3-Pin_6)*%
X141904000Y-61980000D03*
%TO.P,J3,7,Pin_7*%
%TO.N,Net-(J3-Pin_7)*%
X144444000Y-61980000D03*
%TO.P,J3,8,Pin_8*%
%TO.N,GND*%
X146984000Y-61980000D03*
%TD*%
D10*
%TO.P,MotorB1,1,Pin_1*%
%TO.N,Net-(J3-Pin_6)*%
X106770000Y-68530000D03*
D11*
%TO.P,MotorB1,2,Pin_2*%
%TO.N,Net-(J3-Pin_7)*%
X106770000Y-66030000D03*
%TD*%
D25*
%TO.N,/S6*%
X125440000Y-80360000D03*
%TO.N,/PWMA*%
X138350000Y-54280000D03*
X134415000Y-51145000D03*
%TO.N,/S5*%
X121590000Y-78240000D03*
%TO.N,/S4*%
X113630000Y-78330000D03*
%TO.N,+3.3V*%
X132320000Y-65400000D03*
%TO.N,/S1*%
X112110000Y-61940000D03*
X109940000Y-59420000D03*
X111670000Y-69590000D03*
%TD*%
D26*
%TO.N,/S8*%
X111756000Y-78956000D02*
X108320000Y-75520000D01*
X108320000Y-75520000D02*
X108320000Y-74770000D01*
X122284000Y-81650000D02*
X119590000Y-78956000D01*
X119590000Y-78956000D02*
X111756000Y-78956000D01*
X128290000Y-81650000D02*
X122284000Y-81650000D01*
X128290000Y-81650000D02*
X128290000Y-81380000D01*
%TO.N,+3.3V*%
X124849000Y-56686595D02*
X121642405Y-53480000D01*
X121642405Y-53480000D02*
X120470000Y-53480000D01*
X128010000Y-58246000D02*
X125586818Y-58246000D01*
X124849000Y-57508182D02*
X124849000Y-56686595D01*
X131744000Y-61980000D02*
X128010000Y-58246000D01*
X125586818Y-58246000D02*
X124849000Y-57508182D01*
%TO.N,/PWMA*%
X135910000Y-52640000D02*
X136710000Y-52640000D01*
X134415000Y-51145000D02*
X135910000Y-52640000D01*
X136710000Y-52640000D02*
X138350000Y-54280000D01*
D27*
%TO.N,/S6*%
X125440000Y-80360000D02*
X125590000Y-80360000D01*
X125590000Y-80360000D02*
X131180000Y-74770000D01*
D26*
%TO.N,/MA2*%
X134304000Y-46740000D02*
X131180000Y-49864000D01*
X131180000Y-49864000D02*
X131180000Y-56990000D01*
D27*
%TO.N,/S5*%
X122630000Y-78240000D02*
X126100000Y-74770000D01*
X121590000Y-78240000D02*
X122630000Y-78240000D01*
D26*
%TO.N,/PWMB*%
X146420000Y-48696000D02*
X144464000Y-46740000D01*
X146420000Y-56990000D02*
X146420000Y-48696000D01*
D27*
%TO.N,/S4*%
X120000000Y-78330000D02*
X123560000Y-74770000D01*
X113630000Y-78330000D02*
X120000000Y-78330000D01*
D28*
%TO.N,+3.3V*%
X136570000Y-86650000D02*
X134310000Y-84390000D01*
X136260000Y-74770000D02*
X136260000Y-69340000D01*
X136570000Y-86650000D02*
X144370000Y-86650000D01*
X120470000Y-53480000D02*
X117415000Y-50425000D01*
X134310000Y-84390000D02*
X134310000Y-76720000D01*
X134310000Y-76720000D02*
X136260000Y-74770000D01*
X128290000Y-86650000D02*
X136570000Y-86650000D01*
X136260000Y-69340000D02*
X132320000Y-65400000D01*
X117415000Y-50425000D02*
X117415000Y-49095000D01*
X122070000Y-44440000D02*
X117415000Y-49095000D01*
X117415000Y-49095000D02*
X117290000Y-49220000D01*
X117290000Y-49220000D02*
X103650000Y-49220000D01*
D26*
%TO.N,/S1*%
X111670000Y-69590000D02*
X110860000Y-70400000D01*
X109940000Y-59420000D02*
X109940000Y-59770000D01*
X109940000Y-59770000D02*
X112110000Y-61940000D01*
X110860000Y-70400000D02*
X110860000Y-74770000D01*
%TO.N,/MB1*%
X139384000Y-56406000D02*
X138800000Y-56990000D01*
X139384000Y-46740000D02*
X139384000Y-56406000D01*
D28*
%TO.N,+5V*%
X123320000Y-89480000D02*
X149220000Y-89480000D01*
X149220000Y-89480000D02*
X149220000Y-78530000D01*
X104890000Y-86650000D02*
X112690000Y-86650000D01*
X120490000Y-86650000D02*
X123320000Y-89480000D01*
X149220000Y-78530000D02*
X148490000Y-77800000D01*
X112690000Y-86650000D02*
X120490000Y-86650000D01*
X146910000Y-77800000D02*
X143880000Y-74770000D01*
X148490000Y-77800000D02*
X146910000Y-77800000D01*
D26*
%TO.N,/MB2*%
X140209000Y-57173405D02*
X140209000Y-48455000D01*
X137386000Y-58116000D02*
X139266405Y-58116000D01*
X140209000Y-48455000D02*
X141924000Y-46740000D01*
X136260000Y-56990000D02*
X137386000Y-58116000D01*
X139266405Y-58116000D02*
X140209000Y-57173405D01*
%TO.N,/MA1*%
X131764000Y-46740000D02*
X126100000Y-52404000D01*
X126100000Y-52404000D02*
X126100000Y-56990000D01*
%TO.N,/Stby*%
X136844000Y-46740000D02*
X133720000Y-49864000D01*
X133720000Y-49864000D02*
X133720000Y-56990000D01*
D29*
%TO.N,Net-(J3-Pin_7)*%
X142893000Y-63531000D02*
X144444000Y-61980000D01*
X106770000Y-66030000D02*
X109269000Y-63531000D01*
X109269000Y-63531000D02*
X142893000Y-63531000D01*
%TD*%
M02*
