%TF.GenerationSoftware,KiCad,Pcbnew,9.0.4*%
%TF.CreationDate,2025-10-15T08:51:35-06:00*%
%TF.ProjectId,Sumo_RapsPico,53756d6f-5f52-4617-9073-5069636f2e6b,rev?*%
%TF.SameCoordinates,Original*%
%TF.FileFunction,Legend,Bot*%
%TF.FilePolarity,Positive*%
%FSLAX46Y46*%
G04 Gerber Fmt 4.6, Leading zero omitted, Abs format (unit mm)*
G04 Created by KiCad (PCBNEW 9.0.4) date 2025-10-15 08:51:35*
%MOMM*%
%LPD*%
G01*
G04 APERTURE LIST*
%ADD10C,0.150000*%
%ADD11C,0.120000*%
G04 APERTURE END LIST*
D10*
X136564819Y-65821428D02*
X135564819Y-65821428D01*
X135564819Y-65821428D02*
X136279104Y-66154761D01*
X136279104Y-66154761D02*
X135564819Y-66488094D01*
X135564819Y-66488094D02*
X136564819Y-66488094D01*
X136564819Y-67107142D02*
X136517200Y-67011904D01*
X136517200Y-67011904D02*
X136469580Y-66964285D01*
X136469580Y-66964285D02*
X136374342Y-66916666D01*
X136374342Y-66916666D02*
X136088628Y-66916666D01*
X136088628Y-66916666D02*
X135993390Y-66964285D01*
X135993390Y-66964285D02*
X135945771Y-67011904D01*
X135945771Y-67011904D02*
X135898152Y-67107142D01*
X135898152Y-67107142D02*
X135898152Y-67249999D01*
X135898152Y-67249999D02*
X135945771Y-67345237D01*
X135945771Y-67345237D02*
X135993390Y-67392856D01*
X135993390Y-67392856D02*
X136088628Y-67440475D01*
X136088628Y-67440475D02*
X136374342Y-67440475D01*
X136374342Y-67440475D02*
X136469580Y-67392856D01*
X136469580Y-67392856D02*
X136517200Y-67345237D01*
X136517200Y-67345237D02*
X136564819Y-67249999D01*
X136564819Y-67249999D02*
X136564819Y-67107142D01*
X135898152Y-67726190D02*
X135898152Y-68107142D01*
X135564819Y-67869047D02*
X136421961Y-67869047D01*
X136421961Y-67869047D02*
X136517200Y-67916666D01*
X136517200Y-67916666D02*
X136564819Y-68011904D01*
X136564819Y-68011904D02*
X136564819Y-68107142D01*
X136564819Y-68583333D02*
X136517200Y-68488095D01*
X136517200Y-68488095D02*
X136469580Y-68440476D01*
X136469580Y-68440476D02*
X136374342Y-68392857D01*
X136374342Y-68392857D02*
X136088628Y-68392857D01*
X136088628Y-68392857D02*
X135993390Y-68440476D01*
X135993390Y-68440476D02*
X135945771Y-68488095D01*
X135945771Y-68488095D02*
X135898152Y-68583333D01*
X135898152Y-68583333D02*
X135898152Y-68726190D01*
X135898152Y-68726190D02*
X135945771Y-68821428D01*
X135945771Y-68821428D02*
X135993390Y-68869047D01*
X135993390Y-68869047D02*
X136088628Y-68916666D01*
X136088628Y-68916666D02*
X136374342Y-68916666D01*
X136374342Y-68916666D02*
X136469580Y-68869047D01*
X136469580Y-68869047D02*
X136517200Y-68821428D01*
X136517200Y-68821428D02*
X136564819Y-68726190D01*
X136564819Y-68726190D02*
X136564819Y-68583333D01*
X136279104Y-69297619D02*
X136279104Y-69773809D01*
X136564819Y-69202381D02*
X135564819Y-69535714D01*
X135564819Y-69535714D02*
X136564819Y-69869047D01*
X136564819Y-70726190D02*
X136564819Y-70154762D01*
X136564819Y-70440476D02*
X135564819Y-70440476D01*
X135564819Y-70440476D02*
X135707676Y-70345238D01*
X135707676Y-70345238D02*
X135802914Y-70250000D01*
X135802914Y-70250000D02*
X135850533Y-70154762D01*
X139404819Y-80533333D02*
X138928628Y-80200000D01*
X139404819Y-79961905D02*
X138404819Y-79961905D01*
X138404819Y-79961905D02*
X138404819Y-80342857D01*
X138404819Y-80342857D02*
X138452438Y-80438095D01*
X138452438Y-80438095D02*
X138500057Y-80485714D01*
X138500057Y-80485714D02*
X138595295Y-80533333D01*
X138595295Y-80533333D02*
X138738152Y-80533333D01*
X138738152Y-80533333D02*
X138833390Y-80485714D01*
X138833390Y-80485714D02*
X138881009Y-80438095D01*
X138881009Y-80438095D02*
X138928628Y-80342857D01*
X138928628Y-80342857D02*
X138928628Y-79961905D01*
X138500057Y-80914286D02*
X138452438Y-80961905D01*
X138452438Y-80961905D02*
X138404819Y-81057143D01*
X138404819Y-81057143D02*
X138404819Y-81295238D01*
X138404819Y-81295238D02*
X138452438Y-81390476D01*
X138452438Y-81390476D02*
X138500057Y-81438095D01*
X138500057Y-81438095D02*
X138595295Y-81485714D01*
X138595295Y-81485714D02*
X138690533Y-81485714D01*
X138690533Y-81485714D02*
X138833390Y-81438095D01*
X138833390Y-81438095D02*
X139404819Y-80866667D01*
X139404819Y-80866667D02*
X139404819Y-81485714D01*
X142704819Y-80104761D02*
X142704819Y-79533333D01*
X142704819Y-79819047D02*
X141704819Y-79819047D01*
X141704819Y-79819047D02*
X141847676Y-79723809D01*
X141847676Y-79723809D02*
X141942914Y-79628571D01*
X141942914Y-79628571D02*
X141990533Y-79533333D01*
X141704819Y-80723809D02*
X141704819Y-80819047D01*
X141704819Y-80819047D02*
X141752438Y-80914285D01*
X141752438Y-80914285D02*
X141800057Y-80961904D01*
X141800057Y-80961904D02*
X141895295Y-81009523D01*
X141895295Y-81009523D02*
X142085771Y-81057142D01*
X142085771Y-81057142D02*
X142323866Y-81057142D01*
X142323866Y-81057142D02*
X142514342Y-81009523D01*
X142514342Y-81009523D02*
X142609580Y-80961904D01*
X142609580Y-80961904D02*
X142657200Y-80914285D01*
X142657200Y-80914285D02*
X142704819Y-80819047D01*
X142704819Y-80819047D02*
X142704819Y-80723809D01*
X142704819Y-80723809D02*
X142657200Y-80628571D01*
X142657200Y-80628571D02*
X142609580Y-80580952D01*
X142609580Y-80580952D02*
X142514342Y-80533333D01*
X142514342Y-80533333D02*
X142323866Y-80485714D01*
X142323866Y-80485714D02*
X142085771Y-80485714D01*
X142085771Y-80485714D02*
X141895295Y-80533333D01*
X141895295Y-80533333D02*
X141800057Y-80580952D01*
X141800057Y-80580952D02*
X141752438Y-80628571D01*
X141752438Y-80628571D02*
X141704819Y-80723809D01*
X142704819Y-81485714D02*
X141704819Y-81485714D01*
X142323866Y-81580952D02*
X142704819Y-81866666D01*
X142038152Y-81866666D02*
X142419104Y-81485714D01*
X131034819Y-80403333D02*
X130558628Y-80070000D01*
X131034819Y-79831905D02*
X130034819Y-79831905D01*
X130034819Y-79831905D02*
X130034819Y-80212857D01*
X130034819Y-80212857D02*
X130082438Y-80308095D01*
X130082438Y-80308095D02*
X130130057Y-80355714D01*
X130130057Y-80355714D02*
X130225295Y-80403333D01*
X130225295Y-80403333D02*
X130368152Y-80403333D01*
X130368152Y-80403333D02*
X130463390Y-80355714D01*
X130463390Y-80355714D02*
X130511009Y-80308095D01*
X130511009Y-80308095D02*
X130558628Y-80212857D01*
X130558628Y-80212857D02*
X130558628Y-79831905D01*
X130463390Y-80974762D02*
X130415771Y-80879524D01*
X130415771Y-80879524D02*
X130368152Y-80831905D01*
X130368152Y-80831905D02*
X130272914Y-80784286D01*
X130272914Y-80784286D02*
X130225295Y-80784286D01*
X130225295Y-80784286D02*
X130130057Y-80831905D01*
X130130057Y-80831905D02*
X130082438Y-80879524D01*
X130082438Y-80879524D02*
X130034819Y-80974762D01*
X130034819Y-80974762D02*
X130034819Y-81165238D01*
X130034819Y-81165238D02*
X130082438Y-81260476D01*
X130082438Y-81260476D02*
X130130057Y-81308095D01*
X130130057Y-81308095D02*
X130225295Y-81355714D01*
X130225295Y-81355714D02*
X130272914Y-81355714D01*
X130272914Y-81355714D02*
X130368152Y-81308095D01*
X130368152Y-81308095D02*
X130415771Y-81260476D01*
X130415771Y-81260476D02*
X130463390Y-81165238D01*
X130463390Y-81165238D02*
X130463390Y-80974762D01*
X130463390Y-80974762D02*
X130511009Y-80879524D01*
X130511009Y-80879524D02*
X130558628Y-80831905D01*
X130558628Y-80831905D02*
X130653866Y-80784286D01*
X130653866Y-80784286D02*
X130844342Y-80784286D01*
X130844342Y-80784286D02*
X130939580Y-80831905D01*
X130939580Y-80831905D02*
X130987200Y-80879524D01*
X130987200Y-80879524D02*
X131034819Y-80974762D01*
X131034819Y-80974762D02*
X131034819Y-81165238D01*
X131034819Y-81165238D02*
X130987200Y-81260476D01*
X130987200Y-81260476D02*
X130939580Y-81308095D01*
X130939580Y-81308095D02*
X130844342Y-81355714D01*
X130844342Y-81355714D02*
X130653866Y-81355714D01*
X130653866Y-81355714D02*
X130558628Y-81308095D01*
X130558628Y-81308095D02*
X130511009Y-81260476D01*
X130511009Y-81260476D02*
X130463390Y-81165238D01*
X134334819Y-79974761D02*
X134334819Y-79403333D01*
X134334819Y-79689047D02*
X133334819Y-79689047D01*
X133334819Y-79689047D02*
X133477676Y-79593809D01*
X133477676Y-79593809D02*
X133572914Y-79498571D01*
X133572914Y-79498571D02*
X133620533Y-79403333D01*
X133334819Y-80593809D02*
X133334819Y-80689047D01*
X133334819Y-80689047D02*
X133382438Y-80784285D01*
X133382438Y-80784285D02*
X133430057Y-80831904D01*
X133430057Y-80831904D02*
X133525295Y-80879523D01*
X133525295Y-80879523D02*
X133715771Y-80927142D01*
X133715771Y-80927142D02*
X133953866Y-80927142D01*
X133953866Y-80927142D02*
X134144342Y-80879523D01*
X134144342Y-80879523D02*
X134239580Y-80831904D01*
X134239580Y-80831904D02*
X134287200Y-80784285D01*
X134287200Y-80784285D02*
X134334819Y-80689047D01*
X134334819Y-80689047D02*
X134334819Y-80593809D01*
X134334819Y-80593809D02*
X134287200Y-80498571D01*
X134287200Y-80498571D02*
X134239580Y-80450952D01*
X134239580Y-80450952D02*
X134144342Y-80403333D01*
X134144342Y-80403333D02*
X133953866Y-80355714D01*
X133953866Y-80355714D02*
X133715771Y-80355714D01*
X133715771Y-80355714D02*
X133525295Y-80403333D01*
X133525295Y-80403333D02*
X133430057Y-80450952D01*
X133430057Y-80450952D02*
X133382438Y-80498571D01*
X133382438Y-80498571D02*
X133334819Y-80593809D01*
X134334819Y-81355714D02*
X133334819Y-81355714D01*
X133953866Y-81450952D02*
X134334819Y-81736666D01*
X133668152Y-81736666D02*
X134049104Y-81355714D01*
X109014819Y-47543333D02*
X108538628Y-47210000D01*
X109014819Y-46971905D02*
X108014819Y-46971905D01*
X108014819Y-46971905D02*
X108014819Y-47352857D01*
X108014819Y-47352857D02*
X108062438Y-47448095D01*
X108062438Y-47448095D02*
X108110057Y-47495714D01*
X108110057Y-47495714D02*
X108205295Y-47543333D01*
X108205295Y-47543333D02*
X108348152Y-47543333D01*
X108348152Y-47543333D02*
X108443390Y-47495714D01*
X108443390Y-47495714D02*
X108491009Y-47448095D01*
X108491009Y-47448095D02*
X108538628Y-47352857D01*
X108538628Y-47352857D02*
X108538628Y-46971905D01*
X108014819Y-48448095D02*
X108014819Y-47971905D01*
X108014819Y-47971905D02*
X108491009Y-47924286D01*
X108491009Y-47924286D02*
X108443390Y-47971905D01*
X108443390Y-47971905D02*
X108395771Y-48067143D01*
X108395771Y-48067143D02*
X108395771Y-48305238D01*
X108395771Y-48305238D02*
X108443390Y-48400476D01*
X108443390Y-48400476D02*
X108491009Y-48448095D01*
X108491009Y-48448095D02*
X108586247Y-48495714D01*
X108586247Y-48495714D02*
X108824342Y-48495714D01*
X108824342Y-48495714D02*
X108919580Y-48448095D01*
X108919580Y-48448095D02*
X108967200Y-48400476D01*
X108967200Y-48400476D02*
X109014819Y-48305238D01*
X109014819Y-48305238D02*
X109014819Y-48067143D01*
X109014819Y-48067143D02*
X108967200Y-47971905D01*
X108967200Y-47971905D02*
X108919580Y-47924286D01*
X104714819Y-46424286D02*
X104714819Y-47043333D01*
X104714819Y-47043333D02*
X105095771Y-46710000D01*
X105095771Y-46710000D02*
X105095771Y-46852857D01*
X105095771Y-46852857D02*
X105143390Y-46948095D01*
X105143390Y-46948095D02*
X105191009Y-46995714D01*
X105191009Y-46995714D02*
X105286247Y-47043333D01*
X105286247Y-47043333D02*
X105524342Y-47043333D01*
X105524342Y-47043333D02*
X105619580Y-46995714D01*
X105619580Y-46995714D02*
X105667200Y-46948095D01*
X105667200Y-46948095D02*
X105714819Y-46852857D01*
X105714819Y-46852857D02*
X105714819Y-46567143D01*
X105714819Y-46567143D02*
X105667200Y-46471905D01*
X105667200Y-46471905D02*
X105619580Y-46424286D01*
X104714819Y-47376667D02*
X104714819Y-47995714D01*
X104714819Y-47995714D02*
X105095771Y-47662381D01*
X105095771Y-47662381D02*
X105095771Y-47805238D01*
X105095771Y-47805238D02*
X105143390Y-47900476D01*
X105143390Y-47900476D02*
X105191009Y-47948095D01*
X105191009Y-47948095D02*
X105286247Y-47995714D01*
X105286247Y-47995714D02*
X105524342Y-47995714D01*
X105524342Y-47995714D02*
X105619580Y-47948095D01*
X105619580Y-47948095D02*
X105667200Y-47900476D01*
X105667200Y-47900476D02*
X105714819Y-47805238D01*
X105714819Y-47805238D02*
X105714819Y-47519524D01*
X105714819Y-47519524D02*
X105667200Y-47424286D01*
X105667200Y-47424286D02*
X105619580Y-47376667D01*
X104714819Y-48614762D02*
X104714819Y-48710000D01*
X104714819Y-48710000D02*
X104762438Y-48805238D01*
X104762438Y-48805238D02*
X104810057Y-48852857D01*
X104810057Y-48852857D02*
X104905295Y-48900476D01*
X104905295Y-48900476D02*
X105095771Y-48948095D01*
X105095771Y-48948095D02*
X105333866Y-48948095D01*
X105333866Y-48948095D02*
X105524342Y-48900476D01*
X105524342Y-48900476D02*
X105619580Y-48852857D01*
X105619580Y-48852857D02*
X105667200Y-48805238D01*
X105667200Y-48805238D02*
X105714819Y-48710000D01*
X105714819Y-48710000D02*
X105714819Y-48614762D01*
X105714819Y-48614762D02*
X105667200Y-48519524D01*
X105667200Y-48519524D02*
X105619580Y-48471905D01*
X105619580Y-48471905D02*
X105524342Y-48424286D01*
X105524342Y-48424286D02*
X105333866Y-48376667D01*
X105333866Y-48376667D02*
X105095771Y-48376667D01*
X105095771Y-48376667D02*
X104905295Y-48424286D01*
X104905295Y-48424286D02*
X104810057Y-48471905D01*
X104810057Y-48471905D02*
X104762438Y-48519524D01*
X104762438Y-48519524D02*
X104714819Y-48614762D01*
X142724819Y-84803333D02*
X142248628Y-84470000D01*
X142724819Y-84231905D02*
X141724819Y-84231905D01*
X141724819Y-84231905D02*
X141724819Y-84612857D01*
X141724819Y-84612857D02*
X141772438Y-84708095D01*
X141772438Y-84708095D02*
X141820057Y-84755714D01*
X141820057Y-84755714D02*
X141915295Y-84803333D01*
X141915295Y-84803333D02*
X142058152Y-84803333D01*
X142058152Y-84803333D02*
X142153390Y-84755714D01*
X142153390Y-84755714D02*
X142201009Y-84708095D01*
X142201009Y-84708095D02*
X142248628Y-84612857D01*
X142248628Y-84612857D02*
X142248628Y-84231905D01*
X142724819Y-85755714D02*
X142724819Y-85184286D01*
X142724819Y-85470000D02*
X141724819Y-85470000D01*
X141724819Y-85470000D02*
X141867676Y-85374762D01*
X141867676Y-85374762D02*
X141962914Y-85279524D01*
X141962914Y-85279524D02*
X142010533Y-85184286D01*
X138424819Y-83684286D02*
X138424819Y-84303333D01*
X138424819Y-84303333D02*
X138805771Y-83970000D01*
X138805771Y-83970000D02*
X138805771Y-84112857D01*
X138805771Y-84112857D02*
X138853390Y-84208095D01*
X138853390Y-84208095D02*
X138901009Y-84255714D01*
X138901009Y-84255714D02*
X138996247Y-84303333D01*
X138996247Y-84303333D02*
X139234342Y-84303333D01*
X139234342Y-84303333D02*
X139329580Y-84255714D01*
X139329580Y-84255714D02*
X139377200Y-84208095D01*
X139377200Y-84208095D02*
X139424819Y-84112857D01*
X139424819Y-84112857D02*
X139424819Y-83827143D01*
X139424819Y-83827143D02*
X139377200Y-83731905D01*
X139377200Y-83731905D02*
X139329580Y-83684286D01*
X138424819Y-84636667D02*
X138424819Y-85255714D01*
X138424819Y-85255714D02*
X138805771Y-84922381D01*
X138805771Y-84922381D02*
X138805771Y-85065238D01*
X138805771Y-85065238D02*
X138853390Y-85160476D01*
X138853390Y-85160476D02*
X138901009Y-85208095D01*
X138901009Y-85208095D02*
X138996247Y-85255714D01*
X138996247Y-85255714D02*
X139234342Y-85255714D01*
X139234342Y-85255714D02*
X139329580Y-85208095D01*
X139329580Y-85208095D02*
X139377200Y-85160476D01*
X139377200Y-85160476D02*
X139424819Y-85065238D01*
X139424819Y-85065238D02*
X139424819Y-84779524D01*
X139424819Y-84779524D02*
X139377200Y-84684286D01*
X139377200Y-84684286D02*
X139329580Y-84636667D01*
X138424819Y-85874762D02*
X138424819Y-85970000D01*
X138424819Y-85970000D02*
X138472438Y-86065238D01*
X138472438Y-86065238D02*
X138520057Y-86112857D01*
X138520057Y-86112857D02*
X138615295Y-86160476D01*
X138615295Y-86160476D02*
X138805771Y-86208095D01*
X138805771Y-86208095D02*
X139043866Y-86208095D01*
X139043866Y-86208095D02*
X139234342Y-86160476D01*
X139234342Y-86160476D02*
X139329580Y-86112857D01*
X139329580Y-86112857D02*
X139377200Y-86065238D01*
X139377200Y-86065238D02*
X139424819Y-85970000D01*
X139424819Y-85970000D02*
X139424819Y-85874762D01*
X139424819Y-85874762D02*
X139377200Y-85779524D01*
X139377200Y-85779524D02*
X139329580Y-85731905D01*
X139329580Y-85731905D02*
X139234342Y-85684286D01*
X139234342Y-85684286D02*
X139043866Y-85636667D01*
X139043866Y-85636667D02*
X138805771Y-85636667D01*
X138805771Y-85636667D02*
X138615295Y-85684286D01*
X138615295Y-85684286D02*
X138520057Y-85731905D01*
X138520057Y-85731905D02*
X138472438Y-85779524D01*
X138472438Y-85779524D02*
X138424819Y-85874762D01*
X122694819Y-83507142D02*
X122218628Y-83173809D01*
X122694819Y-82935714D02*
X121694819Y-82935714D01*
X121694819Y-82935714D02*
X121694819Y-83316666D01*
X121694819Y-83316666D02*
X121742438Y-83411904D01*
X121742438Y-83411904D02*
X121790057Y-83459523D01*
X121790057Y-83459523D02*
X121885295Y-83507142D01*
X121885295Y-83507142D02*
X122028152Y-83507142D01*
X122028152Y-83507142D02*
X122123390Y-83459523D01*
X122123390Y-83459523D02*
X122171009Y-83411904D01*
X122171009Y-83411904D02*
X122218628Y-83316666D01*
X122218628Y-83316666D02*
X122218628Y-82935714D01*
X122694819Y-84459523D02*
X122694819Y-83888095D01*
X122694819Y-84173809D02*
X121694819Y-84173809D01*
X121694819Y-84173809D02*
X121837676Y-84078571D01*
X121837676Y-84078571D02*
X121932914Y-83983333D01*
X121932914Y-83983333D02*
X121980533Y-83888095D01*
X121694819Y-85078571D02*
X121694819Y-85173809D01*
X121694819Y-85173809D02*
X121742438Y-85269047D01*
X121742438Y-85269047D02*
X121790057Y-85316666D01*
X121790057Y-85316666D02*
X121885295Y-85364285D01*
X121885295Y-85364285D02*
X122075771Y-85411904D01*
X122075771Y-85411904D02*
X122313866Y-85411904D01*
X122313866Y-85411904D02*
X122504342Y-85364285D01*
X122504342Y-85364285D02*
X122599580Y-85316666D01*
X122599580Y-85316666D02*
X122647200Y-85269047D01*
X122647200Y-85269047D02*
X122694819Y-85173809D01*
X122694819Y-85173809D02*
X122694819Y-85078571D01*
X122694819Y-85078571D02*
X122647200Y-84983333D01*
X122647200Y-84983333D02*
X122599580Y-84935714D01*
X122599580Y-84935714D02*
X122504342Y-84888095D01*
X122504342Y-84888095D02*
X122313866Y-84840476D01*
X122313866Y-84840476D02*
X122075771Y-84840476D01*
X122075771Y-84840476D02*
X121885295Y-84888095D01*
X121885295Y-84888095D02*
X121790057Y-84935714D01*
X121790057Y-84935714D02*
X121742438Y-84983333D01*
X121742438Y-84983333D02*
X121694819Y-85078571D01*
X125994819Y-83316666D02*
X125994819Y-82745238D01*
X125994819Y-83030952D02*
X124994819Y-83030952D01*
X124994819Y-83030952D02*
X125137676Y-82935714D01*
X125137676Y-82935714D02*
X125232914Y-82840476D01*
X125232914Y-82840476D02*
X125280533Y-82745238D01*
X125899580Y-83745238D02*
X125947200Y-83792857D01*
X125947200Y-83792857D02*
X125994819Y-83745238D01*
X125994819Y-83745238D02*
X125947200Y-83697619D01*
X125947200Y-83697619D02*
X125899580Y-83745238D01*
X125899580Y-83745238D02*
X125994819Y-83745238D01*
X125090057Y-84173809D02*
X125042438Y-84221428D01*
X125042438Y-84221428D02*
X124994819Y-84316666D01*
X124994819Y-84316666D02*
X124994819Y-84554761D01*
X124994819Y-84554761D02*
X125042438Y-84649999D01*
X125042438Y-84649999D02*
X125090057Y-84697618D01*
X125090057Y-84697618D02*
X125185295Y-84745237D01*
X125185295Y-84745237D02*
X125280533Y-84745237D01*
X125280533Y-84745237D02*
X125423390Y-84697618D01*
X125423390Y-84697618D02*
X125994819Y-84126190D01*
X125994819Y-84126190D02*
X125994819Y-84745237D01*
X125994819Y-85173809D02*
X124994819Y-85173809D01*
X125613866Y-85269047D02*
X125994819Y-85554761D01*
X125328152Y-85554761D02*
X125709104Y-85173809D01*
X134334819Y-84633333D02*
X133858628Y-84300000D01*
X134334819Y-84061905D02*
X133334819Y-84061905D01*
X133334819Y-84061905D02*
X133334819Y-84442857D01*
X133334819Y-84442857D02*
X133382438Y-84538095D01*
X133382438Y-84538095D02*
X133430057Y-84585714D01*
X133430057Y-84585714D02*
X133525295Y-84633333D01*
X133525295Y-84633333D02*
X133668152Y-84633333D01*
X133668152Y-84633333D02*
X133763390Y-84585714D01*
X133763390Y-84585714D02*
X133811009Y-84538095D01*
X133811009Y-84538095D02*
X133858628Y-84442857D01*
X133858628Y-84442857D02*
X133858628Y-84061905D01*
X133334819Y-84966667D02*
X133334819Y-85633333D01*
X133334819Y-85633333D02*
X134334819Y-85204762D01*
X130034819Y-83514286D02*
X130034819Y-84133333D01*
X130034819Y-84133333D02*
X130415771Y-83800000D01*
X130415771Y-83800000D02*
X130415771Y-83942857D01*
X130415771Y-83942857D02*
X130463390Y-84038095D01*
X130463390Y-84038095D02*
X130511009Y-84085714D01*
X130511009Y-84085714D02*
X130606247Y-84133333D01*
X130606247Y-84133333D02*
X130844342Y-84133333D01*
X130844342Y-84133333D02*
X130939580Y-84085714D01*
X130939580Y-84085714D02*
X130987200Y-84038095D01*
X130987200Y-84038095D02*
X131034819Y-83942857D01*
X131034819Y-83942857D02*
X131034819Y-83657143D01*
X131034819Y-83657143D02*
X130987200Y-83561905D01*
X130987200Y-83561905D02*
X130939580Y-83514286D01*
X130034819Y-84466667D02*
X130034819Y-85085714D01*
X130034819Y-85085714D02*
X130415771Y-84752381D01*
X130415771Y-84752381D02*
X130415771Y-84895238D01*
X130415771Y-84895238D02*
X130463390Y-84990476D01*
X130463390Y-84990476D02*
X130511009Y-85038095D01*
X130511009Y-85038095D02*
X130606247Y-85085714D01*
X130606247Y-85085714D02*
X130844342Y-85085714D01*
X130844342Y-85085714D02*
X130939580Y-85038095D01*
X130939580Y-85038095D02*
X130987200Y-84990476D01*
X130987200Y-84990476D02*
X131034819Y-84895238D01*
X131034819Y-84895238D02*
X131034819Y-84609524D01*
X131034819Y-84609524D02*
X130987200Y-84514286D01*
X130987200Y-84514286D02*
X130939580Y-84466667D01*
X130034819Y-85704762D02*
X130034819Y-85800000D01*
X130034819Y-85800000D02*
X130082438Y-85895238D01*
X130082438Y-85895238D02*
X130130057Y-85942857D01*
X130130057Y-85942857D02*
X130225295Y-85990476D01*
X130225295Y-85990476D02*
X130415771Y-86038095D01*
X130415771Y-86038095D02*
X130653866Y-86038095D01*
X130653866Y-86038095D02*
X130844342Y-85990476D01*
X130844342Y-85990476D02*
X130939580Y-85942857D01*
X130939580Y-85942857D02*
X130987200Y-85895238D01*
X130987200Y-85895238D02*
X131034819Y-85800000D01*
X131034819Y-85800000D02*
X131034819Y-85704762D01*
X131034819Y-85704762D02*
X130987200Y-85609524D01*
X130987200Y-85609524D02*
X130939580Y-85561905D01*
X130939580Y-85561905D02*
X130844342Y-85514286D01*
X130844342Y-85514286D02*
X130653866Y-85466667D01*
X130653866Y-85466667D02*
X130415771Y-85466667D01*
X130415771Y-85466667D02*
X130225295Y-85514286D01*
X130225295Y-85514286D02*
X130130057Y-85561905D01*
X130130057Y-85561905D02*
X130082438Y-85609524D01*
X130082438Y-85609524D02*
X130034819Y-85704762D01*
X143536666Y-49529580D02*
X143584285Y-49577200D01*
X143584285Y-49577200D02*
X143727142Y-49624819D01*
X143727142Y-49624819D02*
X143822380Y-49624819D01*
X143822380Y-49624819D02*
X143965237Y-49577200D01*
X143965237Y-49577200D02*
X144060475Y-49481961D01*
X144060475Y-49481961D02*
X144108094Y-49386723D01*
X144108094Y-49386723D02*
X144155713Y-49196247D01*
X144155713Y-49196247D02*
X144155713Y-49053390D01*
X144155713Y-49053390D02*
X144108094Y-48862914D01*
X144108094Y-48862914D02*
X144060475Y-48767676D01*
X144060475Y-48767676D02*
X143965237Y-48672438D01*
X143965237Y-48672438D02*
X143822380Y-48624819D01*
X143822380Y-48624819D02*
X143727142Y-48624819D01*
X143727142Y-48624819D02*
X143584285Y-48672438D01*
X143584285Y-48672438D02*
X143536666Y-48720057D01*
X143155713Y-48720057D02*
X143108094Y-48672438D01*
X143108094Y-48672438D02*
X143012856Y-48624819D01*
X143012856Y-48624819D02*
X142774761Y-48624819D01*
X142774761Y-48624819D02*
X142679523Y-48672438D01*
X142679523Y-48672438D02*
X142631904Y-48720057D01*
X142631904Y-48720057D02*
X142584285Y-48815295D01*
X142584285Y-48815295D02*
X142584285Y-48910533D01*
X142584285Y-48910533D02*
X142631904Y-49053390D01*
X142631904Y-49053390D02*
X143203332Y-49624819D01*
X143203332Y-49624819D02*
X142584285Y-49624819D01*
X145012856Y-51984819D02*
X144917618Y-51984819D01*
X144917618Y-51984819D02*
X144822380Y-52032438D01*
X144822380Y-52032438D02*
X144774761Y-52080057D01*
X144774761Y-52080057D02*
X144727142Y-52175295D01*
X144727142Y-52175295D02*
X144679523Y-52365771D01*
X144679523Y-52365771D02*
X144679523Y-52603866D01*
X144679523Y-52603866D02*
X144727142Y-52794342D01*
X144727142Y-52794342D02*
X144774761Y-52889580D01*
X144774761Y-52889580D02*
X144822380Y-52937200D01*
X144822380Y-52937200D02*
X144917618Y-52984819D01*
X144917618Y-52984819D02*
X145012856Y-52984819D01*
X145012856Y-52984819D02*
X145108094Y-52937200D01*
X145108094Y-52937200D02*
X145155713Y-52889580D01*
X145155713Y-52889580D02*
X145203332Y-52794342D01*
X145203332Y-52794342D02*
X145250951Y-52603866D01*
X145250951Y-52603866D02*
X145250951Y-52365771D01*
X145250951Y-52365771D02*
X145203332Y-52175295D01*
X145203332Y-52175295D02*
X145155713Y-52080057D01*
X145155713Y-52080057D02*
X145108094Y-52032438D01*
X145108094Y-52032438D02*
X145012856Y-51984819D01*
X144250951Y-52889580D02*
X144203332Y-52937200D01*
X144203332Y-52937200D02*
X144250951Y-52984819D01*
X144250951Y-52984819D02*
X144298570Y-52937200D01*
X144298570Y-52937200D02*
X144250951Y-52889580D01*
X144250951Y-52889580D02*
X144250951Y-52984819D01*
X143250952Y-52984819D02*
X143822380Y-52984819D01*
X143536666Y-52984819D02*
X143536666Y-51984819D01*
X143536666Y-51984819D02*
X143631904Y-52127676D01*
X143631904Y-52127676D02*
X143727142Y-52222914D01*
X143727142Y-52222914D02*
X143822380Y-52270533D01*
X142393809Y-52318152D02*
X142393809Y-52984819D01*
X142822380Y-52318152D02*
X142822380Y-52841961D01*
X142822380Y-52841961D02*
X142774761Y-52937200D01*
X142774761Y-52937200D02*
X142679523Y-52984819D01*
X142679523Y-52984819D02*
X142536666Y-52984819D01*
X142536666Y-52984819D02*
X142441428Y-52937200D01*
X142441428Y-52937200D02*
X142393809Y-52889580D01*
X141584285Y-52461009D02*
X141917618Y-52461009D01*
X141917618Y-52984819D02*
X141917618Y-51984819D01*
X141917618Y-51984819D02*
X141441428Y-51984819D01*
X122724819Y-80113333D02*
X122248628Y-79780000D01*
X122724819Y-79541905D02*
X121724819Y-79541905D01*
X121724819Y-79541905D02*
X121724819Y-79922857D01*
X121724819Y-79922857D02*
X121772438Y-80018095D01*
X121772438Y-80018095D02*
X121820057Y-80065714D01*
X121820057Y-80065714D02*
X121915295Y-80113333D01*
X121915295Y-80113333D02*
X122058152Y-80113333D01*
X122058152Y-80113333D02*
X122153390Y-80065714D01*
X122153390Y-80065714D02*
X122201009Y-80018095D01*
X122201009Y-80018095D02*
X122248628Y-79922857D01*
X122248628Y-79922857D02*
X122248628Y-79541905D01*
X122724819Y-80589524D02*
X122724819Y-80780000D01*
X122724819Y-80780000D02*
X122677200Y-80875238D01*
X122677200Y-80875238D02*
X122629580Y-80922857D01*
X122629580Y-80922857D02*
X122486723Y-81018095D01*
X122486723Y-81018095D02*
X122296247Y-81065714D01*
X122296247Y-81065714D02*
X121915295Y-81065714D01*
X121915295Y-81065714D02*
X121820057Y-81018095D01*
X121820057Y-81018095D02*
X121772438Y-80970476D01*
X121772438Y-80970476D02*
X121724819Y-80875238D01*
X121724819Y-80875238D02*
X121724819Y-80684762D01*
X121724819Y-80684762D02*
X121772438Y-80589524D01*
X121772438Y-80589524D02*
X121820057Y-80541905D01*
X121820057Y-80541905D02*
X121915295Y-80494286D01*
X121915295Y-80494286D02*
X122153390Y-80494286D01*
X122153390Y-80494286D02*
X122248628Y-80541905D01*
X122248628Y-80541905D02*
X122296247Y-80589524D01*
X122296247Y-80589524D02*
X122343866Y-80684762D01*
X122343866Y-80684762D02*
X122343866Y-80875238D01*
X122343866Y-80875238D02*
X122296247Y-80970476D01*
X122296247Y-80970476D02*
X122248628Y-81018095D01*
X122248628Y-81018095D02*
X122153390Y-81065714D01*
X125120057Y-78875238D02*
X125072438Y-78922857D01*
X125072438Y-78922857D02*
X125024819Y-79018095D01*
X125024819Y-79018095D02*
X125024819Y-79256190D01*
X125024819Y-79256190D02*
X125072438Y-79351428D01*
X125072438Y-79351428D02*
X125120057Y-79399047D01*
X125120057Y-79399047D02*
X125215295Y-79446666D01*
X125215295Y-79446666D02*
X125310533Y-79446666D01*
X125310533Y-79446666D02*
X125453390Y-79399047D01*
X125453390Y-79399047D02*
X126024819Y-78827619D01*
X126024819Y-78827619D02*
X126024819Y-79446666D01*
X125929580Y-79875238D02*
X125977200Y-79922857D01*
X125977200Y-79922857D02*
X126024819Y-79875238D01*
X126024819Y-79875238D02*
X125977200Y-79827619D01*
X125977200Y-79827619D02*
X125929580Y-79875238D01*
X125929580Y-79875238D02*
X126024819Y-79875238D01*
X125120057Y-80303809D02*
X125072438Y-80351428D01*
X125072438Y-80351428D02*
X125024819Y-80446666D01*
X125024819Y-80446666D02*
X125024819Y-80684761D01*
X125024819Y-80684761D02*
X125072438Y-80779999D01*
X125072438Y-80779999D02*
X125120057Y-80827618D01*
X125120057Y-80827618D02*
X125215295Y-80875237D01*
X125215295Y-80875237D02*
X125310533Y-80875237D01*
X125310533Y-80875237D02*
X125453390Y-80827618D01*
X125453390Y-80827618D02*
X126024819Y-80256190D01*
X126024819Y-80256190D02*
X126024819Y-80875237D01*
X126024819Y-81303809D02*
X125024819Y-81303809D01*
X125643866Y-81399047D02*
X126024819Y-81684761D01*
X125358152Y-81684761D02*
X125739104Y-81303809D01*
X150014819Y-85013333D02*
X149538628Y-84680000D01*
X150014819Y-84441905D02*
X149014819Y-84441905D01*
X149014819Y-84441905D02*
X149014819Y-84822857D01*
X149014819Y-84822857D02*
X149062438Y-84918095D01*
X149062438Y-84918095D02*
X149110057Y-84965714D01*
X149110057Y-84965714D02*
X149205295Y-85013333D01*
X149205295Y-85013333D02*
X149348152Y-85013333D01*
X149348152Y-85013333D02*
X149443390Y-84965714D01*
X149443390Y-84965714D02*
X149491009Y-84918095D01*
X149491009Y-84918095D02*
X149538628Y-84822857D01*
X149538628Y-84822857D02*
X149538628Y-84441905D01*
X149014819Y-85346667D02*
X149014819Y-85965714D01*
X149014819Y-85965714D02*
X149395771Y-85632381D01*
X149395771Y-85632381D02*
X149395771Y-85775238D01*
X149395771Y-85775238D02*
X149443390Y-85870476D01*
X149443390Y-85870476D02*
X149491009Y-85918095D01*
X149491009Y-85918095D02*
X149586247Y-85965714D01*
X149586247Y-85965714D02*
X149824342Y-85965714D01*
X149824342Y-85965714D02*
X149919580Y-85918095D01*
X149919580Y-85918095D02*
X149967200Y-85870476D01*
X149967200Y-85870476D02*
X150014819Y-85775238D01*
X150014819Y-85775238D02*
X150014819Y-85489524D01*
X150014819Y-85489524D02*
X149967200Y-85394286D01*
X149967200Y-85394286D02*
X149919580Y-85346667D01*
X145714819Y-83894286D02*
X145714819Y-84513333D01*
X145714819Y-84513333D02*
X146095771Y-84180000D01*
X146095771Y-84180000D02*
X146095771Y-84322857D01*
X146095771Y-84322857D02*
X146143390Y-84418095D01*
X146143390Y-84418095D02*
X146191009Y-84465714D01*
X146191009Y-84465714D02*
X146286247Y-84513333D01*
X146286247Y-84513333D02*
X146524342Y-84513333D01*
X146524342Y-84513333D02*
X146619580Y-84465714D01*
X146619580Y-84465714D02*
X146667200Y-84418095D01*
X146667200Y-84418095D02*
X146714819Y-84322857D01*
X146714819Y-84322857D02*
X146714819Y-84037143D01*
X146714819Y-84037143D02*
X146667200Y-83941905D01*
X146667200Y-83941905D02*
X146619580Y-83894286D01*
X145714819Y-84846667D02*
X145714819Y-85465714D01*
X145714819Y-85465714D02*
X146095771Y-85132381D01*
X146095771Y-85132381D02*
X146095771Y-85275238D01*
X146095771Y-85275238D02*
X146143390Y-85370476D01*
X146143390Y-85370476D02*
X146191009Y-85418095D01*
X146191009Y-85418095D02*
X146286247Y-85465714D01*
X146286247Y-85465714D02*
X146524342Y-85465714D01*
X146524342Y-85465714D02*
X146619580Y-85418095D01*
X146619580Y-85418095D02*
X146667200Y-85370476D01*
X146667200Y-85370476D02*
X146714819Y-85275238D01*
X146714819Y-85275238D02*
X146714819Y-84989524D01*
X146714819Y-84989524D02*
X146667200Y-84894286D01*
X146667200Y-84894286D02*
X146619580Y-84846667D01*
X145714819Y-86084762D02*
X145714819Y-86180000D01*
X145714819Y-86180000D02*
X145762438Y-86275238D01*
X145762438Y-86275238D02*
X145810057Y-86322857D01*
X145810057Y-86322857D02*
X145905295Y-86370476D01*
X145905295Y-86370476D02*
X146095771Y-86418095D01*
X146095771Y-86418095D02*
X146333866Y-86418095D01*
X146333866Y-86418095D02*
X146524342Y-86370476D01*
X146524342Y-86370476D02*
X146619580Y-86322857D01*
X146619580Y-86322857D02*
X146667200Y-86275238D01*
X146667200Y-86275238D02*
X146714819Y-86180000D01*
X146714819Y-86180000D02*
X146714819Y-86084762D01*
X146714819Y-86084762D02*
X146667200Y-85989524D01*
X146667200Y-85989524D02*
X146619580Y-85941905D01*
X146619580Y-85941905D02*
X146524342Y-85894286D01*
X146524342Y-85894286D02*
X146333866Y-85846667D01*
X146333866Y-85846667D02*
X146095771Y-85846667D01*
X146095771Y-85846667D02*
X145905295Y-85894286D01*
X145905295Y-85894286D02*
X145810057Y-85941905D01*
X145810057Y-85941905D02*
X145762438Y-85989524D01*
X145762438Y-85989524D02*
X145714819Y-86084762D01*
X107094819Y-78557142D02*
X106618628Y-78223809D01*
X107094819Y-77985714D02*
X106094819Y-77985714D01*
X106094819Y-77985714D02*
X106094819Y-78366666D01*
X106094819Y-78366666D02*
X106142438Y-78461904D01*
X106142438Y-78461904D02*
X106190057Y-78509523D01*
X106190057Y-78509523D02*
X106285295Y-78557142D01*
X106285295Y-78557142D02*
X106428152Y-78557142D01*
X106428152Y-78557142D02*
X106523390Y-78509523D01*
X106523390Y-78509523D02*
X106571009Y-78461904D01*
X106571009Y-78461904D02*
X106618628Y-78366666D01*
X106618628Y-78366666D02*
X106618628Y-77985714D01*
X107094819Y-79509523D02*
X107094819Y-78938095D01*
X107094819Y-79223809D02*
X106094819Y-79223809D01*
X106094819Y-79223809D02*
X106237676Y-79128571D01*
X106237676Y-79128571D02*
X106332914Y-79033333D01*
X106332914Y-79033333D02*
X106380533Y-78938095D01*
X106094819Y-79842857D02*
X106094819Y-80461904D01*
X106094819Y-80461904D02*
X106475771Y-80128571D01*
X106475771Y-80128571D02*
X106475771Y-80271428D01*
X106475771Y-80271428D02*
X106523390Y-80366666D01*
X106523390Y-80366666D02*
X106571009Y-80414285D01*
X106571009Y-80414285D02*
X106666247Y-80461904D01*
X106666247Y-80461904D02*
X106904342Y-80461904D01*
X106904342Y-80461904D02*
X106999580Y-80414285D01*
X106999580Y-80414285D02*
X107047200Y-80366666D01*
X107047200Y-80366666D02*
X107094819Y-80271428D01*
X107094819Y-80271428D02*
X107094819Y-79985714D01*
X107094819Y-79985714D02*
X107047200Y-79890476D01*
X107047200Y-79890476D02*
X106999580Y-79842857D01*
X109490057Y-77795238D02*
X109442438Y-77842857D01*
X109442438Y-77842857D02*
X109394819Y-77938095D01*
X109394819Y-77938095D02*
X109394819Y-78176190D01*
X109394819Y-78176190D02*
X109442438Y-78271428D01*
X109442438Y-78271428D02*
X109490057Y-78319047D01*
X109490057Y-78319047D02*
X109585295Y-78366666D01*
X109585295Y-78366666D02*
X109680533Y-78366666D01*
X109680533Y-78366666D02*
X109823390Y-78319047D01*
X109823390Y-78319047D02*
X110394819Y-77747619D01*
X110394819Y-77747619D02*
X110394819Y-78366666D01*
X110299580Y-78795238D02*
X110347200Y-78842857D01*
X110347200Y-78842857D02*
X110394819Y-78795238D01*
X110394819Y-78795238D02*
X110347200Y-78747619D01*
X110347200Y-78747619D02*
X110299580Y-78795238D01*
X110299580Y-78795238D02*
X110394819Y-78795238D01*
X109490057Y-79223809D02*
X109442438Y-79271428D01*
X109442438Y-79271428D02*
X109394819Y-79366666D01*
X109394819Y-79366666D02*
X109394819Y-79604761D01*
X109394819Y-79604761D02*
X109442438Y-79699999D01*
X109442438Y-79699999D02*
X109490057Y-79747618D01*
X109490057Y-79747618D02*
X109585295Y-79795237D01*
X109585295Y-79795237D02*
X109680533Y-79795237D01*
X109680533Y-79795237D02*
X109823390Y-79747618D01*
X109823390Y-79747618D02*
X110394819Y-79176190D01*
X110394819Y-79176190D02*
X110394819Y-79795237D01*
X110394819Y-80223809D02*
X109394819Y-80223809D01*
X110013866Y-80319047D02*
X110394819Y-80604761D01*
X109728152Y-80604761D02*
X110109104Y-80223809D01*
X138266666Y-52999580D02*
X138314285Y-53047200D01*
X138314285Y-53047200D02*
X138457142Y-53094819D01*
X138457142Y-53094819D02*
X138552380Y-53094819D01*
X138552380Y-53094819D02*
X138695237Y-53047200D01*
X138695237Y-53047200D02*
X138790475Y-52951961D01*
X138790475Y-52951961D02*
X138838094Y-52856723D01*
X138838094Y-52856723D02*
X138885713Y-52666247D01*
X138885713Y-52666247D02*
X138885713Y-52523390D01*
X138885713Y-52523390D02*
X138838094Y-52332914D01*
X138838094Y-52332914D02*
X138790475Y-52237676D01*
X138790475Y-52237676D02*
X138695237Y-52142438D01*
X138695237Y-52142438D02*
X138552380Y-52094819D01*
X138552380Y-52094819D02*
X138457142Y-52094819D01*
X138457142Y-52094819D02*
X138314285Y-52142438D01*
X138314285Y-52142438D02*
X138266666Y-52190057D01*
X137314285Y-53094819D02*
X137885713Y-53094819D01*
X137599999Y-53094819D02*
X137599999Y-52094819D01*
X137599999Y-52094819D02*
X137695237Y-52237676D01*
X137695237Y-52237676D02*
X137790475Y-52332914D01*
X137790475Y-52332914D02*
X137885713Y-52380533D01*
X139742856Y-48734819D02*
X139647618Y-48734819D01*
X139647618Y-48734819D02*
X139552380Y-48782438D01*
X139552380Y-48782438D02*
X139504761Y-48830057D01*
X139504761Y-48830057D02*
X139457142Y-48925295D01*
X139457142Y-48925295D02*
X139409523Y-49115771D01*
X139409523Y-49115771D02*
X139409523Y-49353866D01*
X139409523Y-49353866D02*
X139457142Y-49544342D01*
X139457142Y-49544342D02*
X139504761Y-49639580D01*
X139504761Y-49639580D02*
X139552380Y-49687200D01*
X139552380Y-49687200D02*
X139647618Y-49734819D01*
X139647618Y-49734819D02*
X139742856Y-49734819D01*
X139742856Y-49734819D02*
X139838094Y-49687200D01*
X139838094Y-49687200D02*
X139885713Y-49639580D01*
X139885713Y-49639580D02*
X139933332Y-49544342D01*
X139933332Y-49544342D02*
X139980951Y-49353866D01*
X139980951Y-49353866D02*
X139980951Y-49115771D01*
X139980951Y-49115771D02*
X139933332Y-48925295D01*
X139933332Y-48925295D02*
X139885713Y-48830057D01*
X139885713Y-48830057D02*
X139838094Y-48782438D01*
X139838094Y-48782438D02*
X139742856Y-48734819D01*
X138980951Y-49639580D02*
X138933332Y-49687200D01*
X138933332Y-49687200D02*
X138980951Y-49734819D01*
X138980951Y-49734819D02*
X139028570Y-49687200D01*
X139028570Y-49687200D02*
X138980951Y-49639580D01*
X138980951Y-49639580D02*
X138980951Y-49734819D01*
X137980952Y-49734819D02*
X138552380Y-49734819D01*
X138266666Y-49734819D02*
X138266666Y-48734819D01*
X138266666Y-48734819D02*
X138361904Y-48877676D01*
X138361904Y-48877676D02*
X138457142Y-48972914D01*
X138457142Y-48972914D02*
X138552380Y-49020533D01*
X137123809Y-49068152D02*
X137123809Y-49734819D01*
X137552380Y-49068152D02*
X137552380Y-49591961D01*
X137552380Y-49591961D02*
X137504761Y-49687200D01*
X137504761Y-49687200D02*
X137409523Y-49734819D01*
X137409523Y-49734819D02*
X137266666Y-49734819D01*
X137266666Y-49734819D02*
X137171428Y-49687200D01*
X137171428Y-49687200D02*
X137123809Y-49639580D01*
X136314285Y-49211009D02*
X136647618Y-49211009D01*
X136647618Y-49734819D02*
X136647618Y-48734819D01*
X136647618Y-48734819D02*
X136171428Y-48734819D01*
X146464819Y-80393333D02*
X145988628Y-80060000D01*
X146464819Y-79821905D02*
X145464819Y-79821905D01*
X145464819Y-79821905D02*
X145464819Y-80202857D01*
X145464819Y-80202857D02*
X145512438Y-80298095D01*
X145512438Y-80298095D02*
X145560057Y-80345714D01*
X145560057Y-80345714D02*
X145655295Y-80393333D01*
X145655295Y-80393333D02*
X145798152Y-80393333D01*
X145798152Y-80393333D02*
X145893390Y-80345714D01*
X145893390Y-80345714D02*
X145941009Y-80298095D01*
X145941009Y-80298095D02*
X145988628Y-80202857D01*
X145988628Y-80202857D02*
X145988628Y-79821905D01*
X145464819Y-81250476D02*
X145464819Y-81060000D01*
X145464819Y-81060000D02*
X145512438Y-80964762D01*
X145512438Y-80964762D02*
X145560057Y-80917143D01*
X145560057Y-80917143D02*
X145702914Y-80821905D01*
X145702914Y-80821905D02*
X145893390Y-80774286D01*
X145893390Y-80774286D02*
X146274342Y-80774286D01*
X146274342Y-80774286D02*
X146369580Y-80821905D01*
X146369580Y-80821905D02*
X146417200Y-80869524D01*
X146417200Y-80869524D02*
X146464819Y-80964762D01*
X146464819Y-80964762D02*
X146464819Y-81155238D01*
X146464819Y-81155238D02*
X146417200Y-81250476D01*
X146417200Y-81250476D02*
X146369580Y-81298095D01*
X146369580Y-81298095D02*
X146274342Y-81345714D01*
X146274342Y-81345714D02*
X146036247Y-81345714D01*
X146036247Y-81345714D02*
X145941009Y-81298095D01*
X145941009Y-81298095D02*
X145893390Y-81250476D01*
X145893390Y-81250476D02*
X145845771Y-81155238D01*
X145845771Y-81155238D02*
X145845771Y-80964762D01*
X145845771Y-80964762D02*
X145893390Y-80869524D01*
X145893390Y-80869524D02*
X145941009Y-80821905D01*
X145941009Y-80821905D02*
X146036247Y-80774286D01*
X149764819Y-79964761D02*
X149764819Y-79393333D01*
X149764819Y-79679047D02*
X148764819Y-79679047D01*
X148764819Y-79679047D02*
X148907676Y-79583809D01*
X148907676Y-79583809D02*
X149002914Y-79488571D01*
X149002914Y-79488571D02*
X149050533Y-79393333D01*
X148764819Y-80583809D02*
X148764819Y-80679047D01*
X148764819Y-80679047D02*
X148812438Y-80774285D01*
X148812438Y-80774285D02*
X148860057Y-80821904D01*
X148860057Y-80821904D02*
X148955295Y-80869523D01*
X148955295Y-80869523D02*
X149145771Y-80917142D01*
X149145771Y-80917142D02*
X149383866Y-80917142D01*
X149383866Y-80917142D02*
X149574342Y-80869523D01*
X149574342Y-80869523D02*
X149669580Y-80821904D01*
X149669580Y-80821904D02*
X149717200Y-80774285D01*
X149717200Y-80774285D02*
X149764819Y-80679047D01*
X149764819Y-80679047D02*
X149764819Y-80583809D01*
X149764819Y-80583809D02*
X149717200Y-80488571D01*
X149717200Y-80488571D02*
X149669580Y-80440952D01*
X149669580Y-80440952D02*
X149574342Y-80393333D01*
X149574342Y-80393333D02*
X149383866Y-80345714D01*
X149383866Y-80345714D02*
X149145771Y-80345714D01*
X149145771Y-80345714D02*
X148955295Y-80393333D01*
X148955295Y-80393333D02*
X148860057Y-80440952D01*
X148860057Y-80440952D02*
X148812438Y-80488571D01*
X148812438Y-80488571D02*
X148764819Y-80583809D01*
X149764819Y-81345714D02*
X148764819Y-81345714D01*
X149383866Y-81440952D02*
X149764819Y-81726666D01*
X149098152Y-81726666D02*
X149479104Y-81345714D01*
X115234819Y-83567142D02*
X114758628Y-83233809D01*
X115234819Y-82995714D02*
X114234819Y-82995714D01*
X114234819Y-82995714D02*
X114234819Y-83376666D01*
X114234819Y-83376666D02*
X114282438Y-83471904D01*
X114282438Y-83471904D02*
X114330057Y-83519523D01*
X114330057Y-83519523D02*
X114425295Y-83567142D01*
X114425295Y-83567142D02*
X114568152Y-83567142D01*
X114568152Y-83567142D02*
X114663390Y-83519523D01*
X114663390Y-83519523D02*
X114711009Y-83471904D01*
X114711009Y-83471904D02*
X114758628Y-83376666D01*
X114758628Y-83376666D02*
X114758628Y-82995714D01*
X115234819Y-84519523D02*
X115234819Y-83948095D01*
X115234819Y-84233809D02*
X114234819Y-84233809D01*
X114234819Y-84233809D02*
X114377676Y-84138571D01*
X114377676Y-84138571D02*
X114472914Y-84043333D01*
X114472914Y-84043333D02*
X114520533Y-83948095D01*
X114330057Y-84900476D02*
X114282438Y-84948095D01*
X114282438Y-84948095D02*
X114234819Y-85043333D01*
X114234819Y-85043333D02*
X114234819Y-85281428D01*
X114234819Y-85281428D02*
X114282438Y-85376666D01*
X114282438Y-85376666D02*
X114330057Y-85424285D01*
X114330057Y-85424285D02*
X114425295Y-85471904D01*
X114425295Y-85471904D02*
X114520533Y-85471904D01*
X114520533Y-85471904D02*
X114663390Y-85424285D01*
X114663390Y-85424285D02*
X115234819Y-84852857D01*
X115234819Y-84852857D02*
X115234819Y-85471904D01*
X118534819Y-83376666D02*
X118534819Y-82805238D01*
X118534819Y-83090952D02*
X117534819Y-83090952D01*
X117534819Y-83090952D02*
X117677676Y-82995714D01*
X117677676Y-82995714D02*
X117772914Y-82900476D01*
X117772914Y-82900476D02*
X117820533Y-82805238D01*
X118439580Y-83805238D02*
X118487200Y-83852857D01*
X118487200Y-83852857D02*
X118534819Y-83805238D01*
X118534819Y-83805238D02*
X118487200Y-83757619D01*
X118487200Y-83757619D02*
X118439580Y-83805238D01*
X118439580Y-83805238D02*
X118534819Y-83805238D01*
X117630057Y-84233809D02*
X117582438Y-84281428D01*
X117582438Y-84281428D02*
X117534819Y-84376666D01*
X117534819Y-84376666D02*
X117534819Y-84614761D01*
X117534819Y-84614761D02*
X117582438Y-84709999D01*
X117582438Y-84709999D02*
X117630057Y-84757618D01*
X117630057Y-84757618D02*
X117725295Y-84805237D01*
X117725295Y-84805237D02*
X117820533Y-84805237D01*
X117820533Y-84805237D02*
X117963390Y-84757618D01*
X117963390Y-84757618D02*
X118534819Y-84186190D01*
X118534819Y-84186190D02*
X118534819Y-84805237D01*
X118534819Y-85233809D02*
X117534819Y-85233809D01*
X118153866Y-85329047D02*
X118534819Y-85614761D01*
X117868152Y-85614761D02*
X118249104Y-85233809D01*
X115264819Y-79207142D02*
X114788628Y-78873809D01*
X115264819Y-78635714D02*
X114264819Y-78635714D01*
X114264819Y-78635714D02*
X114264819Y-79016666D01*
X114264819Y-79016666D02*
X114312438Y-79111904D01*
X114312438Y-79111904D02*
X114360057Y-79159523D01*
X114360057Y-79159523D02*
X114455295Y-79207142D01*
X114455295Y-79207142D02*
X114598152Y-79207142D01*
X114598152Y-79207142D02*
X114693390Y-79159523D01*
X114693390Y-79159523D02*
X114741009Y-79111904D01*
X114741009Y-79111904D02*
X114788628Y-79016666D01*
X114788628Y-79016666D02*
X114788628Y-78635714D01*
X115264819Y-80159523D02*
X115264819Y-79588095D01*
X115264819Y-79873809D02*
X114264819Y-79873809D01*
X114264819Y-79873809D02*
X114407676Y-79778571D01*
X114407676Y-79778571D02*
X114502914Y-79683333D01*
X114502914Y-79683333D02*
X114550533Y-79588095D01*
X115264819Y-81111904D02*
X115264819Y-80540476D01*
X115264819Y-80826190D02*
X114264819Y-80826190D01*
X114264819Y-80826190D02*
X114407676Y-80730952D01*
X114407676Y-80730952D02*
X114502914Y-80635714D01*
X114502914Y-80635714D02*
X114550533Y-80540476D01*
X117660057Y-78445238D02*
X117612438Y-78492857D01*
X117612438Y-78492857D02*
X117564819Y-78588095D01*
X117564819Y-78588095D02*
X117564819Y-78826190D01*
X117564819Y-78826190D02*
X117612438Y-78921428D01*
X117612438Y-78921428D02*
X117660057Y-78969047D01*
X117660057Y-78969047D02*
X117755295Y-79016666D01*
X117755295Y-79016666D02*
X117850533Y-79016666D01*
X117850533Y-79016666D02*
X117993390Y-78969047D01*
X117993390Y-78969047D02*
X118564819Y-78397619D01*
X118564819Y-78397619D02*
X118564819Y-79016666D01*
X118469580Y-79445238D02*
X118517200Y-79492857D01*
X118517200Y-79492857D02*
X118564819Y-79445238D01*
X118564819Y-79445238D02*
X118517200Y-79397619D01*
X118517200Y-79397619D02*
X118469580Y-79445238D01*
X118469580Y-79445238D02*
X118564819Y-79445238D01*
X117660057Y-79873809D02*
X117612438Y-79921428D01*
X117612438Y-79921428D02*
X117564819Y-80016666D01*
X117564819Y-80016666D02*
X117564819Y-80254761D01*
X117564819Y-80254761D02*
X117612438Y-80349999D01*
X117612438Y-80349999D02*
X117660057Y-80397618D01*
X117660057Y-80397618D02*
X117755295Y-80445237D01*
X117755295Y-80445237D02*
X117850533Y-80445237D01*
X117850533Y-80445237D02*
X117993390Y-80397618D01*
X117993390Y-80397618D02*
X118564819Y-79826190D01*
X118564819Y-79826190D02*
X118564819Y-80445237D01*
X118564819Y-80873809D02*
X117564819Y-80873809D01*
X118183866Y-80969047D02*
X118564819Y-81254761D01*
X117898152Y-81254761D02*
X118279104Y-80873809D01*
X112324819Y-64470476D02*
X111324819Y-64470476D01*
X111324819Y-64470476D02*
X112039104Y-64803809D01*
X112039104Y-64803809D02*
X111324819Y-65137142D01*
X111324819Y-65137142D02*
X112324819Y-65137142D01*
X112324819Y-65756190D02*
X112277200Y-65660952D01*
X112277200Y-65660952D02*
X112229580Y-65613333D01*
X112229580Y-65613333D02*
X112134342Y-65565714D01*
X112134342Y-65565714D02*
X111848628Y-65565714D01*
X111848628Y-65565714D02*
X111753390Y-65613333D01*
X111753390Y-65613333D02*
X111705771Y-65660952D01*
X111705771Y-65660952D02*
X111658152Y-65756190D01*
X111658152Y-65756190D02*
X111658152Y-65899047D01*
X111658152Y-65899047D02*
X111705771Y-65994285D01*
X111705771Y-65994285D02*
X111753390Y-66041904D01*
X111753390Y-66041904D02*
X111848628Y-66089523D01*
X111848628Y-66089523D02*
X112134342Y-66089523D01*
X112134342Y-66089523D02*
X112229580Y-66041904D01*
X112229580Y-66041904D02*
X112277200Y-65994285D01*
X112277200Y-65994285D02*
X112324819Y-65899047D01*
X112324819Y-65899047D02*
X112324819Y-65756190D01*
X111658152Y-66375238D02*
X111658152Y-66756190D01*
X111324819Y-66518095D02*
X112181961Y-66518095D01*
X112181961Y-66518095D02*
X112277200Y-66565714D01*
X112277200Y-66565714D02*
X112324819Y-66660952D01*
X112324819Y-66660952D02*
X112324819Y-66756190D01*
X112324819Y-67232381D02*
X112277200Y-67137143D01*
X112277200Y-67137143D02*
X112229580Y-67089524D01*
X112229580Y-67089524D02*
X112134342Y-67041905D01*
X112134342Y-67041905D02*
X111848628Y-67041905D01*
X111848628Y-67041905D02*
X111753390Y-67089524D01*
X111753390Y-67089524D02*
X111705771Y-67137143D01*
X111705771Y-67137143D02*
X111658152Y-67232381D01*
X111658152Y-67232381D02*
X111658152Y-67375238D01*
X111658152Y-67375238D02*
X111705771Y-67470476D01*
X111705771Y-67470476D02*
X111753390Y-67518095D01*
X111753390Y-67518095D02*
X111848628Y-67565714D01*
X111848628Y-67565714D02*
X112134342Y-67565714D01*
X112134342Y-67565714D02*
X112229580Y-67518095D01*
X112229580Y-67518095D02*
X112277200Y-67470476D01*
X112277200Y-67470476D02*
X112324819Y-67375238D01*
X112324819Y-67375238D02*
X112324819Y-67232381D01*
X112324819Y-67994286D02*
X111658152Y-67994286D01*
X111848628Y-67994286D02*
X111753390Y-68041905D01*
X111753390Y-68041905D02*
X111705771Y-68089524D01*
X111705771Y-68089524D02*
X111658152Y-68184762D01*
X111658152Y-68184762D02*
X111658152Y-68280000D01*
X111801009Y-68946667D02*
X111848628Y-69089524D01*
X111848628Y-69089524D02*
X111896247Y-69137143D01*
X111896247Y-69137143D02*
X111991485Y-69184762D01*
X111991485Y-69184762D02*
X112134342Y-69184762D01*
X112134342Y-69184762D02*
X112229580Y-69137143D01*
X112229580Y-69137143D02*
X112277200Y-69089524D01*
X112277200Y-69089524D02*
X112324819Y-68994286D01*
X112324819Y-68994286D02*
X112324819Y-68613334D01*
X112324819Y-68613334D02*
X111324819Y-68613334D01*
X111324819Y-68613334D02*
X111324819Y-68946667D01*
X111324819Y-68946667D02*
X111372438Y-69041905D01*
X111372438Y-69041905D02*
X111420057Y-69089524D01*
X111420057Y-69089524D02*
X111515295Y-69137143D01*
X111515295Y-69137143D02*
X111610533Y-69137143D01*
X111610533Y-69137143D02*
X111705771Y-69089524D01*
X111705771Y-69089524D02*
X111753390Y-69041905D01*
X111753390Y-69041905D02*
X111801009Y-68946667D01*
X111801009Y-68946667D02*
X111801009Y-68613334D01*
X112324819Y-70137143D02*
X112324819Y-69565715D01*
X112324819Y-69851429D02*
X111324819Y-69851429D01*
X111324819Y-69851429D02*
X111467676Y-69756191D01*
X111467676Y-69756191D02*
X111562914Y-69660953D01*
X111562914Y-69660953D02*
X111610533Y-69565715D01*
X107094819Y-82507142D02*
X106618628Y-82173809D01*
X107094819Y-81935714D02*
X106094819Y-81935714D01*
X106094819Y-81935714D02*
X106094819Y-82316666D01*
X106094819Y-82316666D02*
X106142438Y-82411904D01*
X106142438Y-82411904D02*
X106190057Y-82459523D01*
X106190057Y-82459523D02*
X106285295Y-82507142D01*
X106285295Y-82507142D02*
X106428152Y-82507142D01*
X106428152Y-82507142D02*
X106523390Y-82459523D01*
X106523390Y-82459523D02*
X106571009Y-82411904D01*
X106571009Y-82411904D02*
X106618628Y-82316666D01*
X106618628Y-82316666D02*
X106618628Y-81935714D01*
X107094819Y-83459523D02*
X107094819Y-82888095D01*
X107094819Y-83173809D02*
X106094819Y-83173809D01*
X106094819Y-83173809D02*
X106237676Y-83078571D01*
X106237676Y-83078571D02*
X106332914Y-82983333D01*
X106332914Y-82983333D02*
X106380533Y-82888095D01*
X106428152Y-84316666D02*
X107094819Y-84316666D01*
X106047200Y-84078571D02*
X106761485Y-83840476D01*
X106761485Y-83840476D02*
X106761485Y-84459523D01*
X110394819Y-82316666D02*
X110394819Y-81745238D01*
X110394819Y-82030952D02*
X109394819Y-82030952D01*
X109394819Y-82030952D02*
X109537676Y-81935714D01*
X109537676Y-81935714D02*
X109632914Y-81840476D01*
X109632914Y-81840476D02*
X109680533Y-81745238D01*
X110299580Y-82745238D02*
X110347200Y-82792857D01*
X110347200Y-82792857D02*
X110394819Y-82745238D01*
X110394819Y-82745238D02*
X110347200Y-82697619D01*
X110347200Y-82697619D02*
X110299580Y-82745238D01*
X110299580Y-82745238D02*
X110394819Y-82745238D01*
X109490057Y-83173809D02*
X109442438Y-83221428D01*
X109442438Y-83221428D02*
X109394819Y-83316666D01*
X109394819Y-83316666D02*
X109394819Y-83554761D01*
X109394819Y-83554761D02*
X109442438Y-83649999D01*
X109442438Y-83649999D02*
X109490057Y-83697618D01*
X109490057Y-83697618D02*
X109585295Y-83745237D01*
X109585295Y-83745237D02*
X109680533Y-83745237D01*
X109680533Y-83745237D02*
X109823390Y-83697618D01*
X109823390Y-83697618D02*
X110394819Y-83126190D01*
X110394819Y-83126190D02*
X110394819Y-83745237D01*
X110394819Y-84173809D02*
X109394819Y-84173809D01*
X110013866Y-84269047D02*
X110394819Y-84554761D01*
X109728152Y-84554761D02*
X110109104Y-84173809D01*
X105724819Y-43113333D02*
X105248628Y-42780000D01*
X105724819Y-42541905D02*
X104724819Y-42541905D01*
X104724819Y-42541905D02*
X104724819Y-42922857D01*
X104724819Y-42922857D02*
X104772438Y-43018095D01*
X104772438Y-43018095D02*
X104820057Y-43065714D01*
X104820057Y-43065714D02*
X104915295Y-43113333D01*
X104915295Y-43113333D02*
X105058152Y-43113333D01*
X105058152Y-43113333D02*
X105153390Y-43065714D01*
X105153390Y-43065714D02*
X105201009Y-43018095D01*
X105201009Y-43018095D02*
X105248628Y-42922857D01*
X105248628Y-42922857D02*
X105248628Y-42541905D01*
X105058152Y-43970476D02*
X105724819Y-43970476D01*
X104677200Y-43732381D02*
X105391485Y-43494286D01*
X105391485Y-43494286D02*
X105391485Y-44113333D01*
X109024819Y-42684761D02*
X109024819Y-42113333D01*
X109024819Y-42399047D02*
X108024819Y-42399047D01*
X108024819Y-42399047D02*
X108167676Y-42303809D01*
X108167676Y-42303809D02*
X108262914Y-42208571D01*
X108262914Y-42208571D02*
X108310533Y-42113333D01*
X108024819Y-43303809D02*
X108024819Y-43399047D01*
X108024819Y-43399047D02*
X108072438Y-43494285D01*
X108072438Y-43494285D02*
X108120057Y-43541904D01*
X108120057Y-43541904D02*
X108215295Y-43589523D01*
X108215295Y-43589523D02*
X108405771Y-43637142D01*
X108405771Y-43637142D02*
X108643866Y-43637142D01*
X108643866Y-43637142D02*
X108834342Y-43589523D01*
X108834342Y-43589523D02*
X108929580Y-43541904D01*
X108929580Y-43541904D02*
X108977200Y-43494285D01*
X108977200Y-43494285D02*
X109024819Y-43399047D01*
X109024819Y-43399047D02*
X109024819Y-43303809D01*
X109024819Y-43303809D02*
X108977200Y-43208571D01*
X108977200Y-43208571D02*
X108929580Y-43160952D01*
X108929580Y-43160952D02*
X108834342Y-43113333D01*
X108834342Y-43113333D02*
X108643866Y-43065714D01*
X108643866Y-43065714D02*
X108405771Y-43065714D01*
X108405771Y-43065714D02*
X108215295Y-43113333D01*
X108215295Y-43113333D02*
X108120057Y-43160952D01*
X108120057Y-43160952D02*
X108072438Y-43208571D01*
X108072438Y-43208571D02*
X108024819Y-43303809D01*
X109024819Y-44065714D02*
X108024819Y-44065714D01*
X108643866Y-44160952D02*
X109024819Y-44446666D01*
X108358152Y-44446666D02*
X108739104Y-44065714D01*
D11*
%TO.C,MotoA1*%
X137200000Y-64440000D02*
X137200000Y-65860000D01*
X137200000Y-65860000D02*
X141700000Y-65860000D01*
X137200000Y-70640000D02*
X141700000Y-70640000D01*
X137200000Y-72060000D02*
X137200000Y-70640000D01*
X139110000Y-66700000D02*
X139110000Y-67300000D01*
X139110000Y-67300000D02*
X139710000Y-67000000D01*
X139710000Y-67000000D02*
X139110000Y-66700000D01*
X142810000Y-66750000D02*
X148310000Y-66750000D01*
X142810000Y-67250000D02*
X142810000Y-66750000D01*
X142810000Y-69250000D02*
X148310000Y-69250000D01*
X142810000Y-69750000D02*
X142810000Y-69250000D01*
X148310000Y-66750000D02*
X148310000Y-67250000D01*
X148310000Y-67250000D02*
X142810000Y-67250000D01*
X148310000Y-69250000D02*
X148310000Y-69750000D01*
X148310000Y-69750000D02*
X142810000Y-69750000D01*
X148920000Y-64440000D02*
X137200000Y-64440000D01*
X148920000Y-68250000D02*
X148920000Y-64440000D01*
X148920000Y-68250000D02*
X148920000Y-72060000D01*
X148920000Y-72060000D02*
X137200000Y-72060000D01*
%TO.C,R2*%
X139865000Y-80472936D02*
X139865000Y-80927064D01*
X141335000Y-80472936D02*
X141335000Y-80927064D01*
%TO.C,J4*%
X127874000Y-46740000D02*
X127874000Y-48070000D01*
X127874000Y-48070000D02*
X129204000Y-48070000D01*
X130474000Y-45410000D02*
X130474000Y-48070000D01*
X130474000Y-45410000D02*
X148314000Y-45410000D01*
X130474000Y-48070000D02*
X148314000Y-48070000D01*
X148314000Y-45410000D02*
X148314000Y-48070000D01*
%TO.C,J3*%
X127874000Y-61980000D02*
X127874000Y-63310000D01*
X127874000Y-63310000D02*
X129204000Y-63310000D01*
X130474000Y-60650000D02*
X130474000Y-63310000D01*
X130474000Y-60650000D02*
X148314000Y-60650000D01*
X130474000Y-63310000D02*
X148314000Y-63310000D01*
X148314000Y-60650000D02*
X148314000Y-63310000D01*
%TO.C,R8*%
X131495000Y-80342936D02*
X131495000Y-80797064D01*
X132965000Y-80342936D02*
X132965000Y-80797064D01*
%TO.C,R5*%
X106175000Y-47937064D02*
X106175000Y-47482936D01*
X107645000Y-47937064D02*
X107645000Y-47482936D01*
%TO.C,R1*%
X139885000Y-85197064D02*
X139885000Y-84742936D01*
X141355000Y-85197064D02*
X141355000Y-84742936D01*
%TO.C,R10*%
X123155000Y-83922936D02*
X123155000Y-84377064D01*
X124625000Y-83922936D02*
X124625000Y-84377064D01*
%TO.C,R7*%
X131495000Y-85027064D02*
X131495000Y-84572936D01*
X132965000Y-85027064D02*
X132965000Y-84572936D01*
%TO.C,C2*%
X143631252Y-50115000D02*
X143108748Y-50115000D01*
X143631252Y-51585000D02*
X143108748Y-51585000D01*
%TO.C,R9*%
X123185000Y-80052936D02*
X123185000Y-80507064D01*
X124655000Y-80052936D02*
X124655000Y-80507064D01*
%TO.C,R3*%
X147175000Y-85407064D02*
X147175000Y-84952936D01*
X148645000Y-85407064D02*
X148645000Y-84952936D01*
%TO.C,R13*%
X107555000Y-78972936D02*
X107555000Y-79427064D01*
X109025000Y-78972936D02*
X109025000Y-79427064D01*
%TO.C,C1*%
X137838748Y-50225000D02*
X138361252Y-50225000D01*
X137838748Y-51695000D02*
X138361252Y-51695000D01*
%TO.C,R6*%
X146925000Y-80332936D02*
X146925000Y-80787064D01*
X148395000Y-80332936D02*
X148395000Y-80787064D01*
%TO.C,R12*%
X115695000Y-83982936D02*
X115695000Y-84437064D01*
X117165000Y-83982936D02*
X117165000Y-84437064D01*
%TO.C,R11*%
X115725000Y-79622936D02*
X115725000Y-80077064D01*
X117195000Y-79622936D02*
X117195000Y-80077064D01*
%TO.C,MotorB1*%
X99060000Y-63470000D02*
X110780000Y-63470000D01*
X99060000Y-67280000D02*
X99060000Y-63470000D01*
X99060000Y-67280000D02*
X99060000Y-71090000D01*
X99060000Y-71090000D02*
X110780000Y-71090000D01*
X99670000Y-65780000D02*
X105170000Y-65780000D01*
X99670000Y-66280000D02*
X99670000Y-65780000D01*
X99670000Y-68280000D02*
X105170000Y-68280000D01*
X99670000Y-68780000D02*
X99670000Y-68280000D01*
X105170000Y-65780000D02*
X105170000Y-66280000D01*
X105170000Y-66280000D02*
X99670000Y-66280000D01*
X105170000Y-68280000D02*
X105170000Y-68780000D01*
X105170000Y-68780000D02*
X99670000Y-68780000D01*
X108270000Y-68530000D02*
X108870000Y-68830000D01*
X108870000Y-68230000D02*
X108270000Y-68530000D01*
X108870000Y-68830000D02*
X108870000Y-68230000D01*
X110780000Y-63470000D02*
X110780000Y-64890000D01*
X110780000Y-64890000D02*
X106280000Y-64890000D01*
X110780000Y-69670000D02*
X106280000Y-69670000D01*
X110780000Y-71090000D02*
X110780000Y-69670000D01*
%TO.C,R14*%
X107555000Y-82922936D02*
X107555000Y-83377064D01*
X109025000Y-82922936D02*
X109025000Y-83377064D01*
%TO.C,R4*%
X106185000Y-43052936D02*
X106185000Y-43507064D01*
X107655000Y-43052936D02*
X107655000Y-43507064D01*
%TD*%
M02*
